<?xml version="1.0" encoding="utf-8"?>
<!-- Generator: Adobe Illustrator 19.0.0, SVG Export Plug-In . SVG Version: 6.00 Build 0)  -->
<!DOCTYPE svg PUBLIC "-//W3C//DTD SVG 1.1//EN" "http://www.w3.org/Graphics/SVG/1.1/DTD/svg11.dtd">
<svg version="1.1" id="Layer_1" xmlns="http://www.w3.org/2000/svg" xmlns:xlink="http://www.w3.org/1999/xlink" x="0px" y="0px"
	 width="64px" height="64px" viewBox="0 0 64 64" style="enable-background:new 0 0 64 64;" xml:space="preserve">
<g id="HGFe8D.tif">
	<g id="XMLID_2_">
		<path id="XMLID_3_" d="M63.9,29.4c-0.8,1.6-1.7,3.2-2.5,4.8c-0.1,0.2-0.1,0.4-0.1,0.7c0,0.1,0,0.3,0,0.4c0.5,3.4-0.4,6.4-2.8,8.8
			c-2.1,2.1-4.3,4-6.7,6.2c0.9,2.5,1.8,5.2,2.8,8.2c-1.7,1.2-3.4,2.4-5.2,3.7c-0.4-0.5-0.6-0.9-0.9-1.3c-1.9-2.7-3.8-5.4-5.8-8
			c-0.9-1.2-2-2-3.6-2.3c-1.6-0.4-3.1-1.8-4.7-1.9c-1.6-0.1-3.2,0.9-4.9,1.1c-3.4,0.4-6.5-0.6-9-2.9c-0.4-0.3-0.7-0.5-1-0.5
			c-0.3,0-0.7,0-1.1,0.2c-4.2,1.5-8.2,0.9-11.8-1.9c-0.5-0.4-3.4-1.7-5.2-5c-1.8-3.3-0.8-8.9-0.8-9.1c0-0.2-1.7-4.2,0.3-8.8
			c1.9-4.4,6.1-5.5,6.3-5.6c0.2-0.2,1-4,5.2-6.5C15.4,7.8,20,8,20.1,8c0.4-0.2,2.3-3.5,8.1-3.9s8.7,2.8,9.1,2.9
			c0.3,0.1,7-1.1,12.6,1c4.2,1.6,7.3,6,8.6,9.5c0.1,0.3,0.2,0.6,0.4,0.8c0.1,0.1,0.2,0.2,0.3,0.3c2.5,1.7,3.9,4.2,4.8,7
			C63.9,26.9,63.9,28.2,63.9,29.4z M53.4,19.4c-0.2,5,1.7,8.8,5.6,11.5c2.2-3.1,1.2-7.1-2.3-9.4c-0.3-0.2-0.7-0.5-1-0.9
			c-0.2-0.3-0.4-0.5-0.5-0.8c-1.7-6.1-6.7-9.9-13.1-9.5c-1.6,0.1-3.4,0.6-4.8,1.4c-1.7,1-3,2.6-4.5,4c-1.3,1.3-1.9,2.8-1.6,4.7
			c0.1,1.1,0.3,2.2,0.5,3.5c-1.3,0.2-2.4,0.4-3.9,0.6c-0.2-2.6-0.3-5.1-0.5-7.6c-0.7-0.1-1.5-0.3-2.4-0.5c0.2-1.3,0.4-2.4,0.6-3.7
			c3.8,1.2,6.2-0.6,8.4-3.2c-1.5-1-2.9-2-6.5-1.3c-3.6,0.7-5.5,3.9-5.7,4c-0.2,0.1-3.5-1.2-6.9,0.7s-4,6.1-4.2,6.2
			c-0.1,0.1-4.2,1-5.6,3.7c-1.5,2.8-0.3,7.6-0.3,7.8c0,0.3-1.3,5.8,0.3,7.8c1.9,2.3,4.3,4.2,7.2,4.9c1.2,0.3,2.6,0.1,3.9-0.1
			c1.4-0.1,1.9-0.9,1.9-2.4c-0.1-2.2-1-3.7-2.8-4.8c-1.9-1.2-3.8-2.3-5.7-3.6c0.7-1.1,1.3-2.1,2-3.2c1.3,0.8,2.6,1.6,3.8,2.3
			c1.2,0.7,2.4,1.5,3.3,2c1.6-1.3,3-2.6,4.5-3.9c0.8,1.4,1.4,2.4,2.1,3.5c-3,1-3.3,3.3-3.2,5.7c0,0.9-0.1,1.9,0,2.7
			c0.2,0.9,0.5,1.9,1.2,2.5c2.6,2.4,6.8,2.6,9.8,0.3c2.5-1.8,4.9-3.8,7.3-5.7c2.9-2.2,6-3.1,9.7-1.4c-0.3,1.1-0.6,2.1-0.9,3.2
			C45.5,40.1,45,40,43.6,41c-2,1.5-4,3-5.9,4.6c-0.1,0.2-0.2,0.4-0.3,0.6c6-0.1,8.6,4.3,11.7,8.1c-0.3-1.2-0.6-2.3-1-3.5
			c-0.4-1.1-0.7-2.2-1-3.1c1.7-0.8,3.4-1.1,4.4-2.2c1.2-1.4,2.6-2.5,4-3.6c2.4-1.9,3.1-5.8,1.6-7.7c-1.9-2.4-4.3-3.9-7.5-3.9
			c-2.5-0.1-5-0.3-7.4-0.4c0-1.3,0-2.4,0-3.4c3,0,5.8,0,8.5,0c-0.3-2.2-0.7-4.4-1-6.7C50.9,19.7,52,19.5,53.4,19.4z"/>
	</g>
</g>
</svg>
