<?xml version="1.0" encoding="utf-8"?>
<!-- Generator: Adobe Illustrator 19.0.0, SVG Export Plug-In . SVG Version: 6.00 Build 0)  -->
<!DOCTYPE svg PUBLIC "-//W3C//DTD SVG 1.1//EN" "http://www.w3.org/Graphics/SVG/1.1/DTD/svg11.dtd">
<svg version="1.1" id="Layer_1" xmlns="http://www.w3.org/2000/svg" xmlns:xlink="http://www.w3.org/1999/xlink" x="0px" y="0px"
	 width="64px" height="64px" viewBox="0 0 64 64" style="enable-background:new 0 0 64 64;" xml:space="preserve">
<style type="text/css">
	.st0{fill:#010101;}
</style>
<g id="XMLID_2_">
	<path id="XMLID_3_" class="st0" d="M63,12.1l-5-5C57.3,6.4,56.4,6,55.4,6c-1,0-1.9,0.4-2.6,1.1L23.3,36.6l-12-12
		c-0.7-0.7-1.6-1.1-2.6-1.1s-1.9,0.4-2.6,1.1l-5,5C0.4,30.3,0,31.2,0,32.2c0,1,0.4,1.9,1.1,2.6l19.6,19.6c0.7,0.7,1.6,1.1,2.6,1.1
		s1.9-0.4,2.6-1.1L63,17.3c0.7-0.7,1.1-1.6,1.1-2.6S63.7,12.8,63,12.1z"/>
</g>
</svg>
