<?xml version="1.0" encoding="UTF-8" standalone="no"?>
<svg width="76px" height="40px" viewBox="0 0 76 40" version="1.1" xmlns="http://www.w3.org/2000/svg" xmlns:xlink="http://www.w3.org/1999/xlink">
    <!-- Generator: Sketch 44.1 (41455) - http://www.bohemiancoding.com/sketch -->
    <title>icon-default</title>
    <desc>Created with Sketch.</desc>
    <defs></defs>
    <g id="Page-1" stroke="none" stroke-width="1" fill="none" fill-rule="evenodd">
        <g id="icon-default">
            <g id="Group"></g>
            <path d="M37,38 C27.0588745,38 19,29.9411255 19,20 C19,10.0588745 27.0588745,2 37,2 C46.9411255,2 55,10.0588745 55,20 C55,29.9411255 46.9411255,38 37,38 Z M34.784,23.792 L37.824,23.792 L37.824,22.48 C37.824,18.64 43.488,18.096 43.488,12.816 C43.488,9.264 40.416,6.96 36.8,6.96 C33.312,6.96 31.2,9.008 31.2,9.008 L32.928,11.216 C32.928,11.216 34.56,9.872 36.576,9.872 C38.688,9.872 40.224,11.248 40.224,13.04 C40.224,16.72 34.784,17.424 34.784,22.288 L34.784,23.792 Z M34.72,30 L37.888,30 L37.888,26.896 L34.72,26.896 L34.72,30 Z" id="Combined-Shape" fill="#FFFFFF"></path>
        </g>
    </g>
</svg>