<?xml version="1.0" encoding="UTF-8" standalone="no"?>
<svg width="64px" height="64px" viewBox="0 0 64 64" version="1.1" xmlns="http://www.w3.org/2000/svg" xmlns:xlink="http://www.w3.org/1999/xlink" xmlns:sketch="http://www.bohemiancoding.com/sketch/ns">
    <!-- Generator: Sketch 3.4.4 (17249) - http://www.bohemiancoding.com/sketch -->
    <title>default</title>
    <desc>Created with Sketch.</desc>
    <defs></defs>
    <g id="Page-1" stroke="none" stroke-width="1" fill="none" fill-rule="evenodd" sketch:type="MSPage">
        <g id="default" sketch:type="MSArtboardGroup">
            <circle id="Oval" fill-opacity="0.2" fill="#000000" sketch:type="MSShapeGroup" cx="32" cy="32" r="32"></circle>
            <path d="M47.8787062,15.8598383 C47.8787062,12.0795148 46.4703504,9.11455526 43.6536388,6.96495957 C41.1334232,5.03773585 37.7237197,4 33.5727763,4 C31.8679245,4 29.8665768,4.29649596 27.6428571,4.81536388 C26.3827493,4.44474394 25.7156334,4.22237197 25.6415094,4.22237197 C24.7520216,4.22237197 23.8625337,4.6671159 22.8989218,5.4083558 C22.009434,6.22371968 21.56469,7.03908356 21.56469,7.92857143 C21.56469,8.96630728 21.861186,9.78167116 22.4541779,10.3746631 C23.0471698,11.115903 23.7884097,11.4123989 24.8261456,11.4123989 C25.0485175,11.4123989 25.7897574,11.3382749 26.9757412,11.041779 C30.5336927,10.4487871 32.4609164,10.0781671 32.7574124,10.0781671 C38.8355795,10.0781671 41.9487871,12.0053908 41.9487871,15.7857143 C41.9487871,18.6024259 40.2439353,21.0485175 36.9083558,22.9757412 C34.0175202,24.680593 30.6078167,25.7183288 26.6792453,26.1630728 C24.3072776,26.4595687 23.1954178,27.4973046 23.1954178,29.2021563 C23.1954178,29.5727763 23.4177898,30.3881402 23.9366577,31.722372 C24.9743935,34.9097035 25.6415094,38.0229111 26.0121294,41.0619946 C26.2345013,43.1374663 27.1981132,44.1010782 28.902965,44.1010782 C30.8301887,44.1010782 31.8679245,43.0633423 31.8679245,40.8396226 C31.8679245,38.541779 31.2749326,35.3544474 30.1630728,31.351752 C34.8328841,30.6105121 38.9097035,28.9056604 42.319407,26.2371968 C46.0256065,23.2722372 47.8787062,19.8625337 47.8787062,15.8598383 L47.8787062,15.8598383 Z M33.3504043,54.0336927 C33.3504043,52.8477089 32.9056604,51.884097 32.0902965,51.1428571 C31.1266846,50.5498652 30.0889488,50.1792453 29.0512129,50.1792453 C27.7911051,50.1792453 26.8274933,50.6981132 26.0862534,51.6617251 C25.3450135,52.5512129 24.9743935,53.6630728 24.9743935,54.9231806 C24.9743935,56.0350404 25.2708895,56.9986523 25.9380054,57.8140162 C26.6051213,58.5552561 27.3463612,59 28.1617251,59 C29.8665768,59 31.2008086,58.5552561 32.0902965,57.6657682 C32.9056604,56.7021563 33.3504043,55.5161725 33.3504043,54.0336927 L33.3504043,54.0336927 Z" id="?" fill="#FFFFFF" sketch:type="MSShapeGroup"></path>
        </g>
    </g>
</svg>