<svg enable-background="new 0 0 64 64" height="64" viewBox="0 0 64 64" width="64" xmlns="http://www.w3.org/2000/svg" xmlns:xlink="http://www.w3.org/1999/xlink"><defs><path id="a" d="m61.4 14.7c-1.7-1.7-3.7-2.5-6.1-2.5h-25.8v-1.2c0-2.4-.8-4.4-2.5-6.1s-3.7-2.5-6.1-2.5h-12.4c-2.4 0-4.4.8-6.1 2.5-1.7 1.7-2.5 3.7-2.5 6.1v37c0 2.4.8 4.4 2.5 6.1s3.7 2.5 6.1 2.5h46.8c2.4 0 4.4-.8 6.1-2.5s2.5-3.7 2.5-6.1v-27.2c.1-2.3-.8-4.4-2.5-6.1zm-30.1 30.3-9.1-9.1 3.7-3.7 4.7 4.7 9.2-13.6 4.3 2.9z"/><clipPath id="b"><use xlink:href="#a"/></clipPath><clipPath id="c"><use xlink:href="#d"/></clipPath><path id="d" d="m-.1 2.2h65.7v57.1h-65.7z"/></defs><g enable-background="new"><use clip-rule="evenodd" fill-rule="evenodd" xlink:href="#a"/><g clip-path="url(#b)"><use xlink:href="#d"/><path clip-path="url(#c)" d="m-14.4-12h92.7v82.8h-92.7z"/></g></g></svg>