<?xml version="1.0" encoding="UTF-8"?>
<svg width="73px" height="79px" viewBox="0 0 73 79" version="1.1" xmlns="http://www.w3.org/2000/svg" xmlns:xlink="http://www.w3.org/1999/xlink">
    <!-- Generator: Sketch 52.2 (67145) - http://www.bohemiancoding.com/sketch -->
    <title>eenhoorn</title>
    <desc>Created with Sketch.</desc>
    <defs>
        <linearGradient x1="11.9983871%" y1="18.0580645%" x2="89.4096774%" y2="83.0145161%" id="linearGradient-1">
            <stop stop-color="#9CD1AD" offset="0%"></stop>
            <stop stop-color="#00A79C" offset="100%"></stop>
        </linearGradient>
    </defs>
    <g id="Page-1" stroke="none" stroke-width="1" fill="none" fill-rule="evenodd">
        <g id="alle-poppetjes-od-copy" transform="translate(-100.000000, 0.000000)">
            <g id="eenhoorn" transform="translate(100.000000, 0.000000)">
                <path d="M11.9,78.8 L56.6,78.8 C54.1,72.6 47,66.1 46,61.1 C44.8,55.2 46,53.5 46,53.5 L58.8,51.1 C58.8,51.1 58.8,51.1 62.4,52.5 C66,53.9 71.6,51.9 72.2,44.1 C72.8,36.3 41.2,25.6 41.2,25.6 C42.9,19.7 38,13.6 37.8,15.2 C37.6,16.7 34.7,22.9 34.7,22.9 C34.4,18.9 30.6,14.6 28.2,14.1 C25.8,13.6 29,27.4 29,27.4 C17.4,35.3 8.5,49.6 11.3,70.6 C11.8,73.6 11.9,76.3 11.9,78.8 Z" id="Path" fill="#EBF3F8"></path>
                <polygon id="Path" fill="#F99D1C" points="30.1 29.7 21.3 28.3 8 61.3 6.9 76.4"></polygon>
                <path d="M33.3,21 C34.5,19.4 36.1,18.5 37.9,17.8 C39.6,17.2 41.6,17 43.5,17.3 C44.5,17.4 45.4,17.7 46.3,18.1 C47.2,18.5 48,19.1 48.8,19.7 C50.3,21 51.4,22.6 52.4,24.3 C52.9,25.1 53.3,26 53.6,26.9 C53.9,27.8 54.1,28.7 54.3,29.7 C54.5,31.6 54.4,33.4 54,35 C53.2,38.3 51.6,41.1 49.8,43.6 L49,43.3 C49.6,40.3 50.1,37.4 49.7,34.7 C49.6,33.4 49.2,32.1 48.8,31.1 C48.3,30 47.7,29.1 46.9,28.4 C46.1,27.6 45,27.1 44,26.7 C43,26.3 42.1,25.9 41.2,25.4 C40.2,24.9 39.2,24.3 37.9,23.7 L33.6,21.8 L33.3,21 Z" id="Path" fill="#F99D1C"></path>
                <path d="M46.1,53.5 L58.9,51.1 C58.9,51.1 58.9,51.1 62.5,52.5 C66.1,53.9 71.7,51.9 72.3,44.1 C72.9,36.7 44.4,26.7 41.5,25.7 L37,26.8 C37,26.8 30.8,27.6 25.4,30.3 C22.3,33 19.5,36.2 17.1,39.9 C16.9,42.1 17.4,44.7 19.1,47.6 C25.6,59.1 36.7,58.5 44.8,56.5 C44.1,55 46.1,53.5 46.1,53.5 Z" id="Path" fill="#EBF3F8"></path>
                <path d="M41.2,27.8 L49.7,0.2 L47.8,29.5 C47.8,29.6 43.3,31.7 41.2,27.8 Z" id="Path" fill="#FFFFFF"></path>
                <g id="Group" transform="translate(41.000000, 10.000000)" fill="#9CCDE4">
                    <path d="M7.4,12.3 C5.5,13.3 3.3,14 1.2,14.4 L0.8,15.7 C2.9,15.3 5.3,14.7 7.3,13.7 L7.4,12.3 Z" id="Path"></path>
                    <path d="M5.4,1 L5,2.3 C6.1,2.1 7.1,1.9 8.2,1.5 L8.3,0.2 C7.3,0.6 6.3,0.8 5.4,1 Z" id="Path"></path>
                    <path d="M2.8,9.3 C4.7,8.8 6.4,8.2 7.7,7.6 L7.8,6.2 C6.6,6.8 5,7.4 3.2,7.9 L2.8,9.3 Z" id="Path"></path>
                </g>
                <circle id="Oval" fill="url(#linearGradient-1)" cx="45.2" cy="37.5" r="3.1"></circle>
                <path d="M46.8,37.5 C46.8,38.3 46.1,39 45.3,39 C44.5,39 43.8,38.3 43.8,37.5 C43.8,36.7 44.5,36 45.3,36 C46.1,36 46.8,36.7 46.8,37.5 Z" id="Path" fill="#000000"></path>
                <path d="M44.8,36.4 C44.8,36.7 44.5,37 44.2,37 C43.9,37 43.6,36.7 43.6,36.4 C43.6,36.1 43.9,35.8 44.2,35.8 C44.6,35.9 44.8,36.1 44.8,36.4 Z" id="Path" fill="#FFFFFF"></path>
                <path d="M28.1,28.8 C27.3,30.1 26.9,31.2 27,32 C27.1,32.8 27.6,33 27.9,33 C28.2,33.1 28.3,33.1 28.2,33.6 C28.1,34 27.8,34.8 27.8,35.5 C27.8,35.9 27.8,36.3 27.9,36.7 C27.9,36.9 28,37.2 28,37.5 C28,37.8 28.1,38.1 28.1,38.4 C28.2,39 28.2,39.6 28.2,40.2 C28.2,40.8 28.2,41.4 28.1,42 C28,43.2 27.6,44.6 26.9,45.7 C26.2,46.9 25,47.8 23.6,47.8 L23.3,46.8 C23.8,46.1 23.8,45.3 23.6,44.6 C23.4,43.9 23.1,43.3 22.7,42.6 C22.5,42.3 22.2,41.9 22,41.6 L21.3,40.6 L20.9,40.1 C20.8,39.9 20.7,39.8 20.5,39.5 L19.6,38 C19,36.9 18.2,35.8 17.9,34.3 C17.7,33.6 17.7,32.7 17.9,31.9 C18.1,31 18.4,30.1 18.9,29.2 C19.9,27.4 21.9,26.1 23.6,26 C25.4,25.8 26.9,26.4 28,27.6 L28,28.8 L28.1,28.8 Z" id="Path" fill="#F99D1C"></path>
                <path d="M34.2,21.7 C34.9,21.6 35.6,21.7 36.2,22 C36.8,22.3 37.5,22.7 38,23.3 C38.5,23.9 38.9,24.7 39,25.6 C39.2,26.5 39.1,27.3 38.8,28.1 C38.5,28.8 38.1,29.5 37.6,30.1 C37.1,30.7 36.4,31.2 35.8,31.5 C34.5,32.2 33.3,32.5 32.1,32.7 C29.9,33.1 27.9,33.2 26.2,33.9 C25.3,34.3 24.6,34.8 23.9,35.5 C23.2,36.2 22.6,37.1 22.1,38 L21.6,37.9 C21.8,36.8 22.1,35.7 22.7,34.7 C23.3,33.7 24.1,32.8 25,32 C26.9,30.5 29.2,29.9 31.1,29.2 C32,28.8 32.9,28.5 33.3,28 C33.5,27.8 33.7,27.5 33.8,27.3 C33.9,27.1 34,26.8 34.1,26.5 C34.2,26 34.5,25.8 34.6,25.1 C34.7,24.4 34.4,23.4 34,22.2 L34.2,21.7 Z" id="Path" fill="#4AB5CA"></path>
                <path d="M33.9,20.3 C34.4,20 34.9,19.8 35.5,19.7 C36.1,19.6 36.6,19.5 37.2,19.5 C38.4,19.5 39.7,19.9 40.8,20.7 C41.4,21.1 41.9,21.6 42.4,22.2 C42.8,22.8 43.2,23.4 43.5,24.1 C44.1,25.4 44.3,26.8 44.3,28 C44.3,28.3 44.3,28.6 44.3,28.9 C44.3,29.2 44.2,29.5 44.2,29.8 C44.2,30.1 44.1,30.4 44,30.6 L43.9,31 C43.9,31.1 43.8,31.3 43.7,31.5 C43.3,32.8 42.5,34.1 41.5,35 C40.5,36 39.5,36.7 38.5,37.2 C37.5,37.7 36.5,38.2 35.6,38.5 C33.8,39.2 32.1,39.6 30.5,40.1 C28.9,40.6 27.4,41.1 26.1,41.8 C24.8,42.5 23.6,43.4 22.6,44.7 C21.7,45.9 21,47.5 20.5,49.2 L19.7,49.1 C19.6,47.3 19.7,45.4 20.4,43.5 C21,41.6 22.2,39.9 23.7,38.5 C26.6,35.7 30.2,34.2 32.9,32.6 C33.6,32.2 34.1,31.8 34.5,31.3 C34.9,30.9 35.2,30.4 35.3,30 C35.4,29.6 35.4,29.3 35.5,28.9 C35.5,28.8 35.5,28.8 35.5,28.8 L35.5,28.6 C35.5,28.4 35.6,28.3 35.6,28.2 C35.7,27.9 35.7,27.7 35.8,27.4 L36.1,26.1 C36.2,25.7 36.3,25.4 36.3,24.9 C36.3,24.4 36.1,23.8 35.7,23.2 C35.3,22.5 34.7,21.9 34,21.1 L33.9,20.3 Z" id="Path" fill="#D60080"></path>
                <path d="M33.7,27.4 C33.7,27.4 36,23.2 33.4,19 C30.8,14.8 30.2,23.6 30.2,23.6 L33.7,27.4 Z" id="Path" fill="#EEF6FA"></path>
                <path d="M0.6,75.6 C0.7,76 0.8,76.4 0.9,76.8 C1.1,77.5 1.4,78.1 1.7,78.7 C1.7,78.7 1.7,78.8 1.8,78.8 L15,78.8 C13.5,77.9 12.1,76.9 10.9,76.1 C10.6,75.8 10.2,75.6 10,75.4 C9.9,75.3 9.8,75.2 9.7,75.1 C9.6,75 9.6,75 9.6,75 C9.6,75 9.6,75 9.6,75 C9.6,75 9.6,75 9.6,75 L9.6,74.9 L9.5,74.8 L9.1,74.3 L8.4,73.4 C8.2,73.1 8,73 7.9,72.9 C7.8,72.8 7.7,72.8 7.6,72.6 C7.5,72.4 7.5,71.9 7.6,71.3 L7.6,70.9 C7.6,70.7 7.6,70.6 7.6,70.5 C7.6,70.3 7.6,70.1 7.6,69.9 C7.6,69.1 7.8,68.2 8.1,67.3 C8.3,66.9 8.4,66.4 8.7,65.9 C8.9,65.5 9.2,65 9.5,64.5 L9.2,63.7 C6.7,63.8 4.2,65.4 2.7,67.8 C2.5,68.1 2.3,68.4 2.2,68.7 C2.1,68.9 2,69 2,69.1 L1.8,69.4 C1.5,69.8 1.2,70.4 0.9,71.2 C0.6,72 0.5,73.1 0.5,74.1 C0.4,74.7 0.5,75.1 0.6,75.6 Z" id="Path" fill="#A6CE39"></path>
                <path d="M4,72.4 C5.2,73.7 6.6,74.7 8,75.4 C10.8,76.9 13.7,77.8 16.6,78.4 C17.1,78.5 17.5,78.6 18,78.7 L29.9,78.7 C29,77.5 28,76.4 26.7,75.5 C25.4,74.5 24,73.8 22.5,73.2 C22.1,73 21.8,72.9 21.4,72.8 L20.4,72.5 C19.8,72.3 19.2,72.1 18.6,71.8 C16.3,70.8 14.2,69.6 12.5,68.2 C10.8,66.9 9.3,65.6 8.4,64.3 C8.2,64 8,63.6 7.8,63.3 C7.6,62.9 7.5,62.6 7.4,62.2 C7.3,61.8 7.2,61.4 7.2,61 C7.2,60.8 7.2,60.6 7.2,60.4 C7.2,60.2 7.2,60 7.3,59.7 C7.5,58.7 7.9,57.7 8.6,56.7 C8.9,56.2 9.3,55.7 9.7,55.2 C10.1,54.7 10.6,54.3 11.1,53.8 L10.9,53 C10.1,52.9 9.4,52.9 8.6,53.1 C7.8,53.2 7.1,53.5 6.3,53.8 C4.8,54.4 3.4,55.5 2.3,56.9 C2,57.2 1.7,57.6 1.5,58.1 C1.3,58.5 1,59 0.9,59.4 C0.6,60.3 0.3,61.2 0.2,62.2 C5.68156633e-14,64.1 0.3,66.1 1,67.8 C1.7,69.6 2.8,71.2 4,72.4 Z" id="Path" fill="#D60080"></path>
                <path d="M4.5,62.1 C5.8,63.8 7.2,65.1 8.8,66.3 C10.3,67.5 12,68.4 13.6,69.3 C15.2,70.2 16.9,70.9 18.5,71.6 C19.3,72 20.1,72.3 20.9,72.7 C21.6,73 22.2,73.2 22.8,73.5 C24,74.1 25.2,74.8 26.2,75.7 C27.3,76.6 28.2,77.6 29.1,78.7 L36,78.7 C35.1,75.7 33.5,72.9 31.4,70.5 C30.1,69 28.6,67.7 27,66.6 C26.6,66.3 26.2,66 25.8,65.8 L24.6,65.1 C23.9,64.7 23.3,64.3 22.6,63.9 C20,62.2 17.7,60.2 15.9,58.2 C14,56.2 12.4,54.3 11.3,52.5 C10.8,51.6 10.4,50.8 10.2,49.9 C10.1,49.5 10,49.1 10,48.6 C10,48.4 10,48.2 10,48 C10,47.9 10,47.8 10,47.7 L10,47.5 C10,47.4 10.1,47.4 10.1,47.3 C10.5,46.2 11.2,45.1 12.2,44 C13.2,43 14.5,42 15.9,41.1 L15.9,40 C14.1,39.4 12.1,39.3 10.1,39.7 C8.1,40.1 6.1,41.1 4.4,42.5 C4.3,42.6 4.2,42.7 4.1,42.8 L3.8,43.1 C3.6,43.3 3.4,43.6 3.2,43.8 C2.8,44.3 2.4,44.8 2.1,45.4 C1.5,46.5 1.1,47.7 0.8,49 C0.3,51.5 0.6,54 1.3,56.2 C2.2,58.5 3.2,60.5 4.5,62.1 Z" id="Path" fill="#4AB5CA"></path>
                <path d="M32.8,61.7 C31.8,60 30.5,58.5 29.2,57.1 L27.4,55.3 C26.9,54.8 26.4,54.2 25.9,53.6 C24,51.3 22.6,48.8 21.5,46.4 C20.4,44.1 19.6,41.9 19.1,39.9 C18.9,38.9 18.8,37.9 18.8,37 C18.8,36.5 18.9,36.1 19,35.7 C19,35.5 19.1,35.3 19.1,35.1 C19.1,35 19.1,34.9 19.2,34.8 L19.2,34.7 L19.3,34.5 C19.9,33.5 20.8,32.6 21.9,31.8 C23,31 24.5,30.3 26.1,29.7 L26.4,28.5 C24.8,27.3 22.9,26.8 20.8,26.6 C18.7,26.5 16.5,26.9 14.5,27.9 C14.4,28 14.2,28 14.1,28.1 L13.7,28.4 C13.4,28.6 13.1,28.8 12.9,29 C12.4,29.4 11.9,29.8 11.5,30.3 C10.6,31.2 9.9,32.3 9.4,33.4 C8.3,35.6 7.7,37.9 7.6,40.2 C7.5,42.5 7.8,44.8 8.4,46.8 C9,48.9 9.9,50.8 11,52.5 C13.2,55.9 16.1,58.5 18.9,60.8 C19.6,61.4 20.3,61.9 21,62.5 L22.1,63.3 L22.6,63.7 L23,64 C24.1,64.8 25.1,65.7 26.1,66.7 C27.9,68.7 29.4,71 30.1,73.6 C30.4,74.9 30.6,76.3 30.6,77.7 C30.6,78 30.6,78.4 30.5,78.7 L35.6,78.7 C36.2,76.8 36.4,74.8 36.3,72.8 C36.3,68.9 34.9,65 32.8,61.7 Z" id="Path" fill="#EEDC00"></path>
            </g>
        </g>
    </g>
</svg>