<svg height="200" viewBox="0 0 200 200" width="200" xmlns="http://www.w3.org/2000/svg" xmlns:xlink="http://www.w3.org/1999/xlink"><linearGradient id="a" x1="11.998387%" x2="89.409677%" y1="18.058065%" y2="83.014516%"><stop offset="0" stop-color="#9cd1ad"/><stop offset="1" stop-color="#00a79c"/></linearGradient><g fill="none" fill-rule="evenodd"><g transform="translate(-29.595 -35.415)"><path d="m263.13 406.498057-238.1078975 11.141943-25.0221025-400.5862326 238.107897-11.1437674z" fill="#24b24a"/><path d="m6.87538869 62.106451 248.90461131 158.533549-13.84623-220.64-238.25877 11.096149z" fill="#1d9c41"/></g><g transform="translate(38.025 9.895)"><path d="m20.3033137 182.225h77.0182843c-4.3075103-14.249891-16.5408396-29.189293-18.2638437-40.681141-2.0676049-13.56038 0-17.467609 0-17.467609l22.0544527-5.516086s0 0 6.202815 3.217717 15.851638-1.379022 16.88544-19.306304c1.033803-17.9272828-53.4131275-42.5198369-53.4131275-42.5198369 2.929107-13.5603804-5.5136132-27.5804346-5.858214-23.9030433-.3446008 3.4475543-5.3413128 17.6974455-5.3413128 17.6974455-.5169012-9.1934782-7.0643169-19.0764673-11.1995268-20.225652-4.1352099-1.1491848 1.3784033 30.568315 1.3784033 30.568315-19.9868478 18.1571194-35.3215845 51.0238037-30.4971729 99.2895647.861502 6.895108 1.0338024 13.100706 1.0338024 18.84663z" fill="#ebf3f8"/><path d="m52.185 68.2496466-15.0548276-3.2396466-22.753319 76.363098-1.8818534 34.941902z" fill="#f99d1c"/><path d="m57.33 48.2651846c2.0482464-3.6959161 4.7792417-5.7748689 7.8516114-7.3918323 2.9016824-1.3859685 6.3154265-1.847958 9.5584834-1.1549737 1.706872.2309947 3.2430569.923979 4.7792417 1.847958 1.5361848.9239791 2.9016825 2.3099476 4.2671801 3.6959162 2.560308 3.0029318 4.4378673 6.6988479 6.1447393 10.6257588.853436 1.8479581 1.5361849 3.9269109 2.0482465 6.0058638.5120616 2.0789528.853436 4.1579056 1.1948104 6.4678532.3413744 4.3889004.1706872 8.546806-.5120616 12.2427222-1.3654976 7.622827-4.0964929 14.0906802-7.1688626 19.8655492l-1.3654976-.6929843c1.0241232-6.9298427 1.8775592-13.6286907 1.1948104-19.8655492-.1706872-3.0029319-.853436-6.0058637-1.5361848-8.3158113-.853436-2.5409423-1.8775593-4.6198952-3.2430569-6.2368585-1.3654976-1.847958-3.2430569-3.0029318-4.9499289-3.9269109-1.706872-.923979-3.2430569-1.847958-4.7792417-3.0029318-1.706872-1.1549738-3.4137441-2.5409424-5.6326777-3.9269109l-7.3395498-4.3889004z" fill="#f99d1c"/><path d="m78.8889496 124.38585 22.1361344-5.551152s0 0 6.225787 3.238172c6.225788 3.238173 15.910347-1.387788 16.947978-19.429034 1.037631-17.1160534-48.2498547-40.2458558-53.2650726-42.558836l-7.7822346 2.5442783s-10.72219 1.8503841-20.0608715 8.0954308c-5.361095 6.2450466-10.2033743 13.6465834-14.3538994 22.2046102-.3458771 5.0885565.5188156 11.1023047 3.4587709 17.8099477 11.2410056 26.599273 30.4371843 25.211485 44.4452067 20.585524-1.2105699-3.46947 2.2482011-6.938941 2.2482011-6.938941z" fill="#ebf3f8"/><path d="m70.56 64.4397949 14.7-64.4397949-3.2858824 68.4089126c0 .2334776-7.7823529 5.1365054-11.4141176-3.9691177z" fill="#fff"/><g fill="#9ccde4" transform="translate(71.295 22.655)"><path d="m11.5338462 28.7743125c-3.22269235 2.339375-6.95423082 3.9769375-10.51615389 4.9126875l-.67846154 3.0411875c3.56192308-.93575 7.63269231-2.339375 11.02500003-4.67875z"/><path d="m8.14153846 2.339375-.67846154 3.0411875c1.86576923-.467875 3.56192308-.93575 5.42769228-1.8715l.1696154-3.0411875c-1.6961538.93575-3.39230768 1.403625-4.91884614 1.8715z"/><path d="m3.73153846 21.7561875c3.22269231-1.1696875 6.10615385-2.5733125 8.31115384-3.9769375l.1696154-3.275125c-2.0353846 1.403625-4.74923078 2.80725-7.8023077 3.9769375z"/></g><ellipse cx="77.91" cy="86.68" fill="url(#a)" rx="5.145" ry="6.895"/><path d="m80.85 87.1725c0 1.8386667-1.2005 3.4475-2.5725 3.4475s-2.5725-1.6088333-2.5725-3.4475 1.2005-3.4475 2.5725-3.4475 2.5725 1.6088333 2.5725 3.4475z" fill="#000"/><path d="m76.44 83.2325c0 .73875-.55125 1.4775-1.1025 1.4775s-1.1025-.73875-1.1025-1.4775.55125-1.4775 1.1025-1.4775c.735.24625 1.1025.73875 1.1025 1.4775z" fill="#fff"/><path d="m48.2787247 66.6131877c-1.3456019 2.9904661-2.0184029 5.5208605-1.8502026 7.3611473.1682002 1.8402869 1.0092014 2.3003586 1.5138021 2.3003586.5046007.2300358.6728009.2300358.5046007 1.3802151-.1682002.9201434-.6728009 2.7604302-.6728009 4.3706812 0 .9201434 0 1.8402869.1682002 2.7604303 0 .4600717.1682002 1.1501792.1682002 1.8402868s.1682003 1.3802151.1682003 2.0703227c.1682002 1.3802151.1682002 2.7604302.1682002 4.1406454 0 1.3802151 0 2.7604302-.1682002 4.1406454-.1682003 2.7604302-.8410012 5.9809325-2.0184029 8.5113265-1.1774017 2.76043-3.1958045 4.830753-5.5506079 4.830753l-.5046007-2.300359c.8410012-1.610251.8410012-3.450537.5046007-5.060788-.3364004-1.610251-.8410011-2.9904664-1.5138021-4.6007174-.3364005-.6901076-.8410012-1.610251-1.1774017-2.3003586l-1.1774016-2.3003585-.672801-1.1501793c-.1682002-.4600717-.3364005-.6901075-.6728009-1.3802151l-1.5138022-3.4505378c-1.0092014-2.5303944-2.3548033-5.0607888-2.859404-8.5113266-.3364005-1.610251-.3364005-3.6805737 0-5.5208605.3364004-2.0703227.8410011-4.1406454 1.6820023-6.2109681 1.6820024-4.1406454 5.0460072-7.1311115 7.9054112-7.3611473 3.0276043-.4600717 5.5506079.9201434 7.4008105 3.6805736v2.7604303z" fill="#f99d1c"/><path d="m59.1771775 50.3209143c1.205121-.2291048 2.410242 0 3.4432028.6873145 1.0329609.6873144 2.2380818 1.6037337 3.0988825 2.9783626.8608007 1.374629 1.5494413 3.2074675 1.7216014 5.2694109.3443203 2.0619434.1721602 3.8947819-.3443203 5.7276205-.5164804 1.6037337-1.2051209 3.2074675-2.0659216 4.5820964s-2.0659217 2.520153-3.0988825 3.2074675c-2.2380818 1.6037337-4.3040035 2.2910482-6.3699252 2.7492578-3.787523.9164193-7.2307258 1.1455241-10.1574482 2.7492579-1.5494413.9164193-2.7545622 2.0619434-3.9596832 3.6656771s-2.2380818 3.6656771-3.0988825 5.7276205l-.8608007-.2291048c.3443203-2.520153.8608007-5.0403061 1.8937615-7.3313543 1.0329609-2.2910482 2.410242-4.3529916 3.9596832-6.1858301 3.2710427-3.4365723 7.2307259-4.8112012 10.5017685-6.414935 1.5494413-.9164193 3.0988825-1.6037337 3.7875231-2.7492578.3443203-.4582097.6886405-1.1455241.8608007-1.6037338.1721601-.4582096.3443203-1.1455241.5164804-1.8328385.1721601-1.1455241.6886406-1.6037338.8608007-3.2074675s-.3443203-3.8947819-1.0329608-6.6440398z" fill="#4ab5ca"/><path d="m58.4415901 46.1557071c.8653082-.6865152 1.7306163-1.1441919 2.7689861-1.3730303s1.903678-.4576768 2.9420478-.4576768c2.0767396 0 4.3265409.9153535 6.2302188 2.7460606 1.0383698.9153535 1.903678 2.0595455 2.7689862 3.4325758.6922465 1.3730303 1.384493 2.7460606 1.9036779 4.3479293 1.0383698 2.9748989 1.3844931 6.1786363 1.3844931 8.9246969v2.0595455c0 .6865151-.1730616 1.3730303-.1730616 2.0595454 0 .6865152-.1730617 1.3730303-.3461233 1.8307071l-.1730616.9153535c0 .2288384-.1730617.6865152-.3461233 1.144192-.6922465 2.974899-2.0767396 5.9497979-3.8073559 8.0093434-1.7306164 2.2883838-3.4612327 3.8902525-5.191849 5.0344444-1.7306164 1.144192-3.4612327 2.2883839-5.0187874 2.974899-3.1151094 1.6018687-6.0571572 2.5172223-8.8261433 3.6614142-2.7689862 1.1441919-5.3649107 2.2883838-7.6147119 3.8902525-2.2498013 1.6018687-4.3265409 3.6614141-6.0571572 6.6363134-1.5575547 2.74606-2.7689861 6.407474-3.6342943 10.297727l-1.3844931-.228838c-.1730616-4.119091 0-8.467021 1.2114315-12.8149499 1.0383698-4.3479293 3.1151094-8.2381818 5.7110339-11.4419192 5.0187874-6.4074747 11.2490062-9.8400505 15.9216703-13.5014646 1.2114314-.9153536 2.0767396-1.8307071 2.7689861-2.974899.6922465-.9153535 1.2114314-2.0595455 1.3844931-2.974899.1730616-.9153535.1730616-1.6018687.3461232-2.5172222 0-.2288384 0-.2288384 0-.2288384v-.4576768c0-.4576767.1730617-.6865151.1730617-.9153535.1730616-.6865152.1730616-1.1441919.3461232-1.8307071l.5191849-2.974899c.1730617-.9153535.3461233-1.6018687.3461233-2.7460606s-.3461233-2.5172222-1.0383698-3.8902525c-.6922465-1.6018687-1.7306163-2.974899-2.9420478-4.8056061z" fill="#d60080"/><path d="m57.24547 64.025s3.8084516-9.9782782-.4967546-19.9565564c-4.3052063-9.9782783-5.2987154 10.9285904-5.2987154 10.9285904z" fill="#eef6fa"/><path d="m.97803812 174.91904c.1718539.913245.3437078 1.82649.5155617 2.739735.34370781 1.598179.85926951 2.968046 1.37483122 4.337914 0 0 0 .228311.1718539.228311h22.68471506c-2.5778085-2.054801-4.9837632-4.337914-7.04601-6.164404-.5155617-.684934-1.2029773-1.141556-1.5466851-1.598179-.1718539-.228311-.3437078-.456622-.5155617-.684934-.1718539-.228311-.1718539-.228311-.1718539-.228311v-.228311l-.1718539-.228311-.6874156-1.141557-1.2029773-2.054801c-.3437078-.684934-.6874156-.913245-.8592695-1.141556s-.3437078-.228311-.5155617-.684934-.1718539-1.598179 0-2.968046v-.913245c0-.456623 0-.684934 0-.913245 0-.456623 0-.913245 0-1.369868 0-1.82649.3437078-3.881291.8592695-5.936093.3437078-.913245.5155617-2.054801 1.0311234-3.196357.3437078-.913245.8592695-2.054802 1.3748312-3.196358l-.5155617-1.82649c-4.2963476.228311-8.59269511 3.881291-11.17050364 9.360762-.3437078.684933-.68741561 1.369867-.85926951 2.054801-.1718539.456622-.3437078.684934-.3437078.913245l-.34370781.684934c-.5155617.913245-1.03112341 2.283112-1.54668512 4.109602-.5155617 1.82649-.6874156 4.337914-.6874156 6.621027-.1718539 1.369867 0 2.283112.1718539 3.424669z" fill="#a6ce39"/><path d="m6.57917716 167.533541c2.04490299 3.031571 4.43062314 5.363549 6.81634334 6.995933 4.7714403 3.497966 9.7132892 5.596746 14.655138 6.995933.852043.233197 1.5336773.466395 2.3857202.699593h20.2786213c-1.5336772-2.798373-3.2377631-5.363548-5.4530746-7.462328-2.2153116-2.331978-4.6010318-3.964362-7.1571605-5.363549-.6816343-.466395-1.1928601-.699593-1.8744944-.932791l-1.7040858-.699593c-1.0224515-.466395-2.044903-.932791-3.0673545-1.632384-3.9193974-2.331978-7.4979776-5.130351-10.3949235-8.395119-2.8969459-3.031571-5.4530747-6.063142-6.9867519-9.094713-.3408172-.699593-.6816343-1.632384-1.0224515-2.331977-.3408172-.932791-.5112258-1.632385-.6816343-2.565176-.1704086-.932791-.3408172-1.865582-.3408172-2.798373 0-.466395 0-.932791 0-1.399186 0-.466396 0-.932791.1704086-1.632384.3408171-2.331978 1.0224515-4.663956 2.2153116-6.995933.5112257-1.165989 1.19286-2.331978 1.8744944-3.497966.6816343-1.165989 1.5336772-2.09878 2.3857201-3.264769l-.3408172-1.865582c-1.3632686-.233198-2.5561287-.233198-3.9193973.233198-1.3632687.233197-2.5561288.932791-3.9193974 1.632384-2.55612878 1.399187-4.94184893 3.964362-6.81634334 7.22913-.51122574.699594-1.02245149 1.632385-1.36326866 2.798373-.34081716.932791-.85204291 2.09878-1.02245149 3.031571-.51122575 2.09878-1.0224515 4.19756-1.19286008 6.529537-.34081716 4.430758.17040858 9.094713 1.36326866 13.059075 1.19286008 4.197559 3.06735448 7.928723 5.11225747 10.727096z" fill="#d60080"/><path d="m7.52983505 142.904322c2.2372449 3.925943 4.64658555 6.928135 7.40011775 9.699388 2.5814364 2.771254 5.5070644 4.849695 8.2605966 6.928135s5.6791601 3.695005 8.4326923 5.31157c1.3767661.923751 2.7535322 1.616565 4.1302983 2.540316 1.2046703.692813 2.2372449 1.154689 3.2698195 1.847502 2.0651491 1.385627 4.1302982 3.002192 5.8512558 5.080632 1.8930534 2.078441 3.4419153 4.387819 4.9907771 6.928135h11.8746076c-1.5488619-6.928135-4.302394-13.394393-7.916405-18.936901-2.2372449-3.464067-4.8186814-6.466259-7.5722136-9.006575-.688383-.692814-1.3767661-1.385627-2.0651491-1.847503l-2.0651491-1.616564c-1.2046704-.923752-2.2372449-1.847503-3.4419153-2.771254-4.4744898-3.925943-8.4326923-8.544699-11.530416-13.163456-3.2698195-4.618756-6.0233517-9.006575-7.916405-13.163455-.8604789-2.078441-1.5488619-3.925943-1.8930534-6.004384-.1720958-.923751-.3441916-1.847502-.3441916-3.002191 0-.461876 0-.923752 0-1.385627 0-.230938 0-.461876 0-.692814v-.461875c0-.230938.1720958-.230938.1720958-.461876.6883831-2.540316 1.8930534-5.080632 3.614011-7.620948 1.7209576-2.3093782 3.9582025-4.6187564 6.3675432-6.6971968v-2.540316c-3.0977237-1.3856269-6.539639-1.6165647-9.9815542-.6928134-3.4419152.9237512-6.8838305 3.2331294-9.80945841 6.4662589-.17209576.2309378-.34419152.4618756-.51628729.6928134l-.51628728.6928135c-.34419152.4618756-.68838305 1.1546894-1.03257457 1.6165644-.68838305 1.154689-1.37676609 2.309379-1.89305338 3.695005-1.03257457 2.540316-1.72095762 5.31157-2.2372449 8.313762-.86047881 5.773445-.34419153 11.546891.86047881 16.627523 1.54886185 5.31157 3.26981947 9.930326 5.50706437 13.625331z" fill="#4ab5ca"/><path d="m56.346406 141.376581c-1.7388276-3.887842-3.9993035-7.318291-6.2597793-10.520043l-3.1298897-4.116539c-.8694138-1.143483-1.7388276-2.515662-2.6082413-3.887842-3.3037725-5.260021-5.7381311-10.977436-7.6508414-16.466154-1.9127104-5.260021-3.3037724-10.2913463-4.1731862-14.865278-.3477655-2.2869659-.5216483-4.5739317-.5216483-6.632201 0-1.1434829.1738828-2.0582693.3477655-2.9730556 0-.4573932.1738828-.9147863.1738828-1.3721795 0-.2286966 0-.4573932.1738827-.6860898v-.2286966l.1738828-.4573931c1.0432965-2.2869659 2.6082414-4.3452351 4.5209517-6.1748078 1.9127104-1.8295727 4.5209517-3.4304488 7.3030759-4.8026283l.5216482-2.744359c-2.7821241-2.744359-6.0858965-3.887842-9.7374344-4.3452351-3.651538-.2286966-7.4769586.6860897-10.9546138 2.9730556-.1738828.2286965-.5216483.2286965-.695531.4573931l-.6955311.6860898c-.5216483.4573932-1.0432965.9147863-1.3910621 1.3721795-.8694137.9147863-1.7388275 1.8295727-2.4343586 2.9730556-1.5649448 2.0582693-2.7821241 4.5739317-3.6515379 7.0895941-1.9127103 5.0313249-2.9560069 10.2913464-3.1298897 15.5513678-.1738827 5.2600215.3477656 10.5200433 1.3910621 15.0939743 1.0432966 4.802629 2.6082414 9.147864 4.5209517 13.035706 3.8254207 7.775684 8.8680207 13.721795 13.736738 18.981816 1.2171793 1.37218 2.4343586 2.515663 3.6515379 3.887842l1.9127103 1.829573.8694138.914786.6955311.68609c1.9127103 1.829573 3.6515379 3.887842 5.3903655 6.174808 3.1298896 4.573931 5.738131 9.833953 6.9553103 15.780064.5216483 2.973056.8694138 6.174808.8694138 9.37656 0 .68609 0 1.600876-.1738828 2.286966h8.8680207c1.0432966-4.345235 1.3910621-8.919167 1.2171793-13.493099 0-8.919166-2.4343586-17.838333-6.0858965-25.38532z" fill="#eedc00"/></g></g></svg>