<?xml version="1.0" encoding="UTF-8"?>
<svg width="57px" height="78px" viewBox="0 0 57 78" version="1.1" xmlns="http://www.w3.org/2000/svg" xmlns:xlink="http://www.w3.org/1999/xlink">
    <!-- Generator: Sketch 52.2 (67145) - http://www.bohemiancoding.com/sketch -->
    <title>gc-meisje</title>
    <desc>Created with Sketch.</desc>
    <defs>
        <radialGradient cx="49.8810345%" cy="51.7479858%" fx="49.8810345%" fy="51.7479858%" r="49.5293103%" gradientTransform="translate(0.498810,0.517480),scale(1.000000,0.983051),translate(-0.498810,-0.517480)" id="radialGradient-1">
            <stop stop-color="#EFB698" offset="0%"></stop>
            <stop stop-color="#F4D9A6" offset="100%"></stop>
        </radialGradient>
        <radialGradient cx="50.8931034%" cy="51.7479858%" fx="50.8931034%" fy="51.7479858%" r="49.5293103%" gradientTransform="translate(0.508931,0.517480),scale(1.000000,0.983051),translate(-0.508931,-0.517480)" id="radialGradient-2">
            <stop stop-color="#EFB698" offset="0%"></stop>
            <stop stop-color="#F4D9A6" offset="100%"></stop>
        </radialGradient>
    </defs>
    <g id="Page-1" stroke="none" stroke-width="1" fill="none" fill-rule="evenodd">
        <g id="alle-poppetjes-od-copy" transform="translate(-6.000000, -7.000000)">
            <g id="gc-meisje" transform="translate(6.000000, 7.000000)">
                <path d="M41.1,6.6 C41.1,6.6 36.9,-1.8 23.5,1.1 C10.1,4 6.2,17.4 6.6,25.2 C7,33 8.7,37.6 12.2,43 C15.7,48.3 14.1,51.8 11.5,52.7 C11.5,52.7 26.5,63.6 42.1,52.8 C42.1,52.8 38.3,51.6 38.8,48.5 C39.2,45.4 44.8,41.5 48.1,34.9 C51.5,28.3 52.9,9.8 41.1,6.6 Z" id="Path" fill="#4C3715"></path>
                <path d="M7.8,77.1 L14.6,67.7 C14.6,67.7 16.1,70.4 17.3,77.1 L37.4,77.1 C38.1,69.8 38.9,65.7 38.9,65.7 L49.4,77.1 L56.9,77.1 C52.2,70.9 43.1,58.6 42.8,58 C42.3,57.2 41.8,55.5 40.7,55.5 C38.4,55.6 31.9,51.4 32,49.2 C32.1,46.6 32,42.4 32,42.4 L23.6,42.4 C23.6,42.4 23.6,46.6 23.6,49.2 C23.6,51.8 20.2,54 16.7,55.2 C13.2,56.4 11.3,57.8 11.3,57.8 L0.6,77.1 L7.8,77.1 Z" id="Path" fill="#F4D9A6"></path>
                <path d="M44.7,22.7 C44.7,35.3 38.9,45.7 27.7,45.7 C16.5,45.7 10.3,35.3 10.3,22.6 C10.3,10 16.7,8.7 27.9,8.7 C39.1,8.7 44.7,10.1 44.7,22.7 Z" id="Path" fill="#F4D89B"></path>
                <path d="M23.7,30.1 C23.7,31.8 22.3,33.2 20.6,33.2 C18.9,33.2 17.5,31.8 17.5,30.1 C17.5,28.4 18.9,27 20.6,27 C22.3,27 23.7,28.4 23.7,30.1 Z" id="Path" fill="#1BACE3"></path>
                <path d="M22.9,30.1 C22.9,31.3 21.9,32.3 20.8,32.3 C19.6,32.3 18.7,31.3 18.7,30.1 C18.7,28.9 19.7,27.9 20.8,27.9 C22,27.9 22.9,28.9 22.9,30.1 Z" id="Path" fill="#234572"></path>
                <path d="M19.9,29 C19.9,29.3 19.6,29.6 19.3,29.6 C19,29.6 18.7,29.3 18.7,29 C18.7,28.7 19,28.4 19.3,28.4 C19.6,28.3 19.9,28.6 19.9,29 Z" id="Path" fill="#FFFFFF"></path>
                <path d="M21,37.8 C23.1,39.1 25.4,39.9 27.7,39.9 C30,39.9 32.2,39 34.4,37.8 C33.6,38.8 32.6,39.6 31.4,40.2 C30.3,40.8 29,41.1 27.7,41.1 C26.4,41.1 25.1,40.8 23.9,40.2 C22.8,39.6 21.8,38.8 21,37.8 Z" id="Path" fill="#C42D77"></path>
                <path d="M38.1,12.6 C38.1,12.6 37.6,16.5 39.7,22.4 C42,28.8 44.5,31.2 46.8,29.5 C46.8,29.5 44.3,30.4 45,27.6 C45.9,23.9 47.9,17.6 45,13.2 C42.5,9.5 39.8,10.1 39.8,10.1 C39.8,10.1 37.6,2.5 27.7,2.4 C13.5,2.3 3.8,20.6 11.1,33.2 C11.1,33.2 8.7,23.5 13.7,22.9 C18.7,22.3 36.7,15.8 38.1,12.3" id="Path" fill="#5F4118"></path>
                <path d="M38.8,13.6 C38.8,13.6 36.9,17.3 30.7,20.5 C25.7,23 20,23.4 14.4,23.3 C14.4,23.3 12.5,26.6 12.7,32 C12.9,37.4 15.5,43 15.5,43 C15.5,43 5.2,27 13.2,14.1 C22.6,-1 37.4,6.4 39.6,10.9 C39.6,10.9 39.7,12.3 38.8,13.6 Z" id="Path" fill="#764D1E"></path>
                <path d="M25,20.1 C25,20.1 32.4,18.4 35.7,12.6 C35.7,12.6 33.6,15.1 30.4,16.4 C30.4,16.4 32.7,14.4 33.1,13.4 C33.1,13.4 26.9,13.3 22.1,16.8 C22.1,16.8 27.1,10.7 37.4,11 C37.4,10.9 36.2,18.1 25,20.1 Z" id="Path" fill="#A26628"></path>
                <path d="M37.9,10.4 C36.2,9.8 34.5,9.4 32.7,9 C31,8.7 29.2,8.5 27.5,8.6 C24,8.7 20.6,9.7 17.5,11.5 C18.8,10.2 20.4,9.1 22.1,8.4 C23.8,7.7 25.7,7.3 27.5,7.3 C31.1,7.4 34.9,8.4 37.9,10.4 Z" id="Path" fill="#A26628"></path>
                <path d="M43.3,21.9 C42.7,21.1 42.2,20.3 41.8,19.4 C41.4,18.5 41,17.6 40.7,16.7 C40.2,14.8 39.6,10.9 39.6,10.9 C39.6,10.9 42.5,11.7 43.7,14 C44.9,16.3 44.8,18.8 44.8,18.8 C44.8,18.8 44.2,16.5 43.2,15 C42.2,13.5 41.3,13.2 40.9,12.8 C40.9,12.8 41.3,15.2 41.6,17 C42,18.7 42.6,20.1 43.3,21.9 Z" id="Path" fill="#A26628"></path>
                <path d="M20.9,35.7 C20.9,37.3 19.6,38.6 18,38.6 C16.4,38.6 15.1,37.3 15.1,35.7 C15.1,34.1 16.4,32.7 18,32.7 C19.6,32.8 20.9,34.1 20.9,35.7 Z" id="Path" fill="url(#radialGradient-1)"></path>
                <path d="M39.2,35.7 C39.2,37.3 37.9,38.6 36.3,38.6 C34.7,38.6 33.4,37.3 33.4,35.7 C33.4,34.1 34.7,32.7 36.3,32.7 C37.9,32.7 39.2,34.1 39.2,35.7 Z" id="Path" fill="url(#radialGradient-2)"></path>
                <polygon id="Path" fill="#C42D77" points="21.8 61.8 33.3 61.8 28.5 71.2"></polygon>
                <path d="M14.2,68.4 C14.3,66.3 14.3,64.2 14,62.2 C13.9,61.2 13.6,60.2 13.4,59.2 C13.2,58.2 12.9,57.3 12.3,56.4 L12.4,56.4 C13.3,57 13.8,58.1 14.1,59.1 C14.4,60.1 14.5,61.2 14.6,62.2 C14.7,64.2 14.6,66.3 14.2,68.4 Z" id="Path" fill="#074D6D"></path>
                <path d="M40,67.4 C39.8,65.4 39.9,63.4 40.2,61.5 C40.4,60.5 40.5,59.5 41,58.6 C41.4,57.7 42.1,56.8 43,56.3 L43,56.4 C42.4,57.2 42,58 41.6,58.9 C41.3,59.8 40.9,60.7 40.7,61.6 C40.5,62.5 40.3,63.5 40.2,64.5 C40.2,65.4 40.1,66.4 40,67.4 Z" id="Path" fill="#074D6D"></path>
                <path d="M32,30.1 C32,31.8 33.4,33.2 35.1,33.2 C36.8,33.2 38.2,31.8 38.2,30.1 C38.2,28.4 36.8,27 35.1,27 C33.4,27 32,28.4 32,30.1 Z" id="Path" fill="#1BACE3"></path>
                <path d="M32.8,30.1 C32.8,31.3 33.8,32.3 34.9,32.3 C36.1,32.3 37,31.3 37,30.1 C37,28.9 36,27.9 34.9,27.9 C33.8,27.9 32.8,28.9 32.8,30.1 Z" id="Path" fill="#234572"></path>
                <path d="M32.9,29 C32.9,29.3 33.2,29.6 33.5,29.6 C33.8,29.6 34.1,29.3 34.1,29 C34.1,28.7 33.8,28.4 33.5,28.4 C33.2,28.3 32.9,28.6 32.9,29 Z" id="Path" fill="#FFFFFF"></path>
                <ellipse id="Oval" fill="#1BACE3" cx="27.8" cy="53.4" rx="1.1" ry="1.2"></ellipse>
                <circle id="Oval" fill="#FFFEF1" opacity="0.2" cx="28.2" cy="53.1" r="1"></circle>
                <circle id="Oval" fill="#1BACE3" cx="25.7" cy="53.2" r="1"></circle>
                <ellipse id="Oval" fill="#FFFEF1" opacity="0.2" cx="26.1" cy="53" rx="1" ry="1"></ellipse>
                <circle id="Oval" fill="#1BACE3" cx="24" cy="52.6" r="1"></circle>
                <circle id="Oval" fill="#FFFEF1" opacity="0.2" cx="24.3" cy="52.4" r="1"></circle>
                <circle id="Oval" fill="#1BACE3" cx="22.7" cy="51.5" r="1"></circle>
                <circle id="Oval" fill="#FFFEF1" opacity="0.2" cx="23" cy="51.3" r="1"></circle>
                <circle id="Oval" fill="#1BACE3" cx="29.9" cy="53" r="1"></circle>
                <ellipse id="Oval" fill="#FFFEF1" opacity="0.2" cx="30" cy="52.6" rx="1" ry="1"></ellipse>
                <circle id="Oval" fill="#1BACE3" cx="31.7" cy="52.4" r="1"></circle>
                <circle id="Oval" fill="#FFFEF1" opacity="0.2" cx="31.6" cy="51.9" r="1"></circle>
                <circle id="Oval" fill="#1BACE3" cx="32.9" cy="51.3" r="1"></circle>
                <circle id="Oval" fill="#FFFEF1" opacity="0.2" cx="32.8" cy="50.9" r="1"></circle>
                <path d="M14.2,68.4 C14.2,68.4 16,72.2 17.1,77.2 L38.4,77.2 C38.8,71.8 40,67.4 40,67.4 L46,73.6 L51.2,68.4 C48.3,64 43.6,57.2 43.2,56.5 C42.6,55.3 39.8,54.9 38.8,54.6 C36.8,53.8 36,53.7 34.2,52.4 C32.9,57.5 28,67.6 28,67.6 C28,67.6 22.4,56.6 21.9,52.3 C20.6,53.5 19.6,54 17.6,54.6 C16.6,54.9 14.2,55.5 12.4,56.3 C10.6,57.1 5,69.4 5,69.4 L10,74.2 L14.2,68.4 Z" id="Path" fill="#F99E1E"></path>
            </g>
        </g>
    </g>
</svg>