<?xml version="1.0" encoding="utf-8"?>
<!-- Generator: Adobe Illustrator 19.0.0, SVG Export Plug-In . SVG Version: 6.00 Build 0)  -->
<!DOCTYPE svg PUBLIC "-//W3C//DTD SVG 1.1//EN" "http://www.w3.org/Graphics/SVG/1.1/DTD/svg11.dtd">
<svg version="1.1" id="Layer_1" xmlns="http://www.w3.org/2000/svg" xmlns:xlink="http://www.w3.org/1999/xlink" x="0px" y="0px"
	 width="64px" height="64px" viewBox="0 0 64 64" style="enable-background:new 0 0 64 64;" xml:space="preserve">
<style type="text/css">
	.st0{fill:#010101;}
</style>
<g id="XMLID_4_">
	<path id="XMLID_8_" class="st0" d="M37.3,42.9c0-0.2-0.1-0.4-0.2-0.6c-1.2-1.4-2.2-2.7-2.9-3.7c0.4-0.9,0.8-1.7,1-2.4l5-0.8
		c0.2,0,0.4-0.1,0.5-0.3c0.1-0.2,0.2-0.4,0.2-0.6v-5.9c0-0.2-0.1-0.4-0.2-0.6c-0.1-0.2-0.3-0.3-0.5-0.3l-4.9-0.7
		c-0.2-0.7-0.6-1.6-1.1-2.6c0.3-0.5,0.8-1.1,1.4-1.9c0.6-0.8,1.1-1.4,1.3-1.7c0.1-0.2,0.2-0.4,0.2-0.6c0-0.6-1.5-2.3-4.6-5.1
		c-0.2-0.2-0.4-0.3-0.7-0.3c-0.3,0-0.5,0.1-0.6,0.2l-3.8,2.8c-0.9-0.4-1.7-0.8-2.4-1l-0.7-4.9c0-0.2-0.1-0.4-0.3-0.6
		c-0.2-0.2-0.4-0.2-0.6-0.2h-5.9c-0.5,0-0.8,0.3-1,0.8c-0.3,1-0.5,2.6-0.7,4.9c-0.9,0.3-1.7,0.6-2.5,1l-3.7-2.9
		c-0.2-0.1-0.4-0.2-0.7-0.2c-0.4,0-1.2,0.6-2.5,1.9c-1.3,1.3-2.2,2.2-2.6,2.8c-0.1,0.2-0.2,0.4-0.2,0.6c0,0.2,0.1,0.4,0.2,0.6
		C5,22.1,6,23.3,6.7,24.3c-0.4,0.9-0.8,1.7-1,2.4l-5,0.8c-0.2,0-0.4,0.1-0.5,0.3C0.1,28,0,28.2,0,28.5v5.9c0,0.2,0.1,0.4,0.2,0.6
		c0.1,0.2,0.3,0.3,0.5,0.3l4.9,0.8c0.3,0.8,0.6,1.7,1.1,2.6c-0.3,0.5-0.8,1.1-1.5,1.9c-0.7,0.8-1.1,1.4-1.3,1.7
		c-0.1,0.2-0.2,0.4-0.2,0.6c0,0.6,1.5,2.3,4.6,5.1c0.2,0.2,0.4,0.3,0.7,0.3c0.3,0,0.5-0.1,0.6-0.2l3.8-2.8c0.9,0.4,1.7,0.8,2.4,1
		l0.7,4.9c0,0.2,0.1,0.4,0.3,0.6c0.2,0.2,0.4,0.2,0.6,0.2h5.9c0.5,0,0.8-0.3,1-0.8c0.3-1,0.5-2.7,0.7-5c0.9-0.3,1.7-0.6,2.5-1
		l3.7,2.9c0.2,0.1,0.4,0.2,0.7,0.2c0.4,0,1.2-0.6,2.5-1.9c1.3-1.3,2.1-2.2,2.6-2.9C37.2,43.4,37.3,43.2,37.3,42.9z M28.6,39.6
		c-2.2,2.2-4.9,3.4-8.1,3.4c-3.2,0-5.9-1.1-8.1-3.4C10.1,37.3,9,34.6,9,31.5c0-3.2,1.1-5.9,3.4-8.1c2.2-2.2,4.9-3.4,8.1-3.4
		c3.2,0,5.9,1.1,8.1,3.4c2.2,2.2,3.4,4.9,3.4,8.1C31.9,34.6,30.8,37.3,28.6,39.6z"/>
	<path id="XMLID_5_" class="st0" d="M59.3,19.7c-0.3-0.6-0.6-1.2-1-1.7c1.1-2.4,1.6-3.9,1.6-4.4c0-0.1,0-0.2-0.1-0.2
		c-2.6-1.5-3.9-2.2-4-2.2l-0.2,0.1c-0.9,0.9-1.9,2.1-2.9,3.6c-0.4,0-0.7-0.1-1-0.1c-0.2,0-0.5,0-1,0.1c-0.3-0.4-0.9-1.2-1.7-2.2
		c-0.8-1-1.3-1.5-1.5-1.5c0,0-0.4,0.2-1,0.5s-1.2,0.7-1.9,1.1c-0.7,0.4-1,0.6-1.1,0.6c-0.1,0.1-0.1,0.1-0.1,0.2c0,0.5,0.5,2,1.6,4.4
		c-0.4,0.5-0.7,1-1,1.7c-3.2,0.3-4.8,0.6-4.8,1v4.5c0,0.3,1.6,0.7,4.8,1c0.3,0.6,0.6,1.1,1,1.7c-1.1,2.4-1.6,3.9-1.6,4.4
		c0,0.1,0,0.2,0.1,0.2c2.6,1.5,3.9,2.3,4,2.3c0.2,0,0.7-0.5,1.5-1.5c0.8-1,1.4-1.7,1.7-2.2c0.4,0,0.7,0.1,1,0.1c0.2,0,0.5,0,1-0.1
		c0.3,0.4,0.9,1.2,1.7,2.2c0.8,1,1.3,1.5,1.5,1.5c0,0,1.4-0.8,4-2.3c0.1-0.1,0.1-0.1,0.1-0.2c0-0.5-0.5-2-1.6-4.4
		c0.4-0.5,0.7-1.1,1-1.7c3.2-0.3,4.8-0.6,4.8-1v-4.5C64.1,20.4,62.5,20,59.3,19.7z M54.7,25.8C53.9,26.6,53,27,51.8,27
		c-1.1,0-2.1-0.4-2.9-1.2c-0.8-0.8-1.2-1.8-1.2-2.9c0-1.1,0.4-2.1,1.2-2.9c0.8-0.8,1.8-1.2,2.9-1.2c1.1,0,2.1,0.4,2.9,1.2
		c0.8,0.8,1.2,1.8,1.2,2.9C55.9,24.1,55.5,25,54.7,25.8z"/>
</g>
<g id="XMLID_2_">
	<path id="XMLID_3_" class="st0" d="M27.1,28.1l-1-1c-0.2-0.2-0.3-0.2-0.5-0.2c-0.2,0-0.4,0.1-0.5,0.2l-6.1,6.1l-2.5-2.5
		c-0.2-0.2-0.3-0.2-0.5-0.2c-0.2,0-0.4,0.1-0.5,0.2l-1,1C14.1,31.8,14,32,14,32.2c0,0.2,0.1,0.4,0.2,0.5l4.1,4.1
		c0.2,0.2,0.3,0.2,0.5,0.2s0.4-0.1,0.5-0.2l7.7-7.7c0.2-0.2,0.2-0.3,0.2-0.5S27.2,28.2,27.1,28.1z"/>
</g>
</svg>
