<svg enable-background="new 0 0 64 64" height="64" viewBox="0 0 64 64" width="64" xmlns="http://www.w3.org/2000/svg"><g fill="#010101"><path d="m37.3 42.9c0-.2-.1-.4-.2-.6-1.2-1.4-2.2-2.7-2.9-3.7.4-.9.8-1.7 1-2.4l5-.8c.2 0 .4-.1.5-.3s.2-.4.2-.6v-5.9c0-.2-.1-.4-.2-.6s-.3-.3-.5-.3l-4.9-.7c-.2-.7-.6-1.6-1.1-2.6.3-.5.8-1.1 1.4-1.9s1.1-1.4 1.3-1.7c.1-.2.2-.4.2-.6 0-.6-1.5-2.3-4.6-5.1-.2-.2-.4-.3-.7-.3s-.5.1-.6.2l-3.8 2.8c-.9-.4-1.7-.8-2.4-1l-.7-4.9c0-.2-.1-.4-.3-.6s-.4-.2-.6-.2h-5.9c-.5 0-.8.3-1 .8-.3 1-.5 2.6-.7 4.9-.9.3-1.7.6-2.5 1l-3.7-2.9c-.2-.1-.4-.2-.7-.2-.4 0-1.2.6-2.5 1.9s-2.2 2.2-2.6 2.8c-.1.2-.2.4-.2.6s.1.4.2.6c1.2 1.5 2.2 2.7 2.9 3.7-.4.9-.8 1.7-1 2.4l-5 .8c-.2 0-.4.1-.5.3-.1.2-.2.4-.2.7v5.9c0 .2.1.4.2.6s.3.3.5.3l4.9.8c.3.8.6 1.7 1.1 2.6-.3.5-.8 1.1-1.5 1.9s-1.1 1.4-1.3 1.7c-.1.2-.2.4-.2.6 0 .6 1.5 2.3 4.6 5.1.2.2.4.3.7.3s.5-.1.6-.2l3.8-2.8c.9.4 1.7.8 2.4 1l.7 4.9c0 .2.1.4.3.6s.4.2.6.2h5.9c.5 0 .8-.3 1-.8.3-1 .5-2.7.7-5 .9-.3 1.7-.6 2.5-1l3.7 2.9c.2.1.4.2.7.2.4 0 1.2-.6 2.5-1.9s2.1-2.2 2.6-2.9c.2-.1.3-.3.3-.6zm-8.7-3.3c-2.2 2.2-4.9 3.4-8.1 3.4s-5.9-1.1-8.1-3.4c-2.3-2.3-3.4-5-3.4-8.1 0-3.2 1.1-5.9 3.4-8.1 2.2-2.2 4.9-3.4 8.1-3.4s5.9 1.1 8.1 3.4c2.2 2.2 3.4 4.9 3.4 8.1-.1 3.1-1.2 5.8-3.4 8.1z"/><path d="m59.3 19.7c-.3-.6-.6-1.2-1-1.7 1.1-2.4 1.6-3.9 1.6-4.4 0-.1 0-.2-.1-.2-2.6-1.5-3.9-2.2-4-2.2l-.2.1c-.9.9-1.9 2.1-2.9 3.6-.4 0-.7-.1-1-.1-.2 0-.5 0-1 .1-.3-.4-.9-1.2-1.7-2.2s-1.3-1.5-1.5-1.5c0 0-.4.2-1 .5s-1.2.7-1.9 1.1-1 .6-1.1.6c-.1.1-.1.1-.1.2 0 .5.5 2 1.6 4.4-.4.5-.7 1-1 1.7-3.2.3-4.8.6-4.8 1v4.5c0 .3 1.6.7 4.8 1 .3.6.6 1.1 1 1.7-1.1 2.4-1.6 3.9-1.6 4.4 0 .1 0 .2.1.2 2.6 1.5 3.9 2.3 4 2.3.2 0 .7-.5 1.5-1.5s1.4-1.7 1.7-2.2c.4 0 .7.1 1 .1.2 0 .5 0 1-.1.3.4.9 1.2 1.7 2.2s1.3 1.5 1.5 1.5c0 0 1.4-.8 4-2.3.1-.1.1-.1.1-.2 0-.5-.5-2-1.6-4.4.4-.5.7-1.1 1-1.7 3.2-.3 4.8-.6 4.8-1v-4.5c-.1-.3-1.7-.7-4.9-1zm-4.6 6.1c-.8.8-1.7 1.2-2.9 1.2-1.1 0-2.1-.4-2.9-1.2s-1.2-1.8-1.2-2.9.4-2.1 1.2-2.9 1.8-1.2 2.9-1.2 2.1.4 2.9 1.2 1.2 1.8 1.2 2.9c0 1.2-.4 2.1-1.2 2.9z"/><path d="m27.1 28.1-1-1c-.2-.2-.3-.2-.5-.2s-.4.1-.5.2l-6.1 6.1-2.5-2.5c-.2-.2-.3-.2-.5-.2s-.4.1-.5.2l-1 1c-.4.1-.5.3-.5.5s.1.4.2.5l4.1 4.1c.2.2.3.2.5.2s.4-.1.5-.2l7.7-7.7c.2-.2.2-.3.2-.5s0-.4-.1-.5z"/></g></svg>