<svg enable-background="new 0 0 64 64" height="64" viewBox="0 0 64 64" width="64" xmlns="http://www.w3.org/2000/svg" xmlns:xlink="http://www.w3.org/1999/xlink"><defs><path id="a" d="m46.9 33.2c-2.2-2-7.3-6.6-9.1-8.4-.8-.8-1.8-1.7-3.3-1.7-1.3 0-2.3.7-3 1.3-1.5 1.2-5.4 3.7-6.9 2.5 3.1-2 5.9-5.2 8.5-8.2.6-.7 1.6-.6 2.9.1 5.8 3 8 4.5 14.8 3.7l2.1 8c-1.4.5-4.9 2.1-6 2.7zm-1.5 6.8c-.8.6-1.9.4-2.6-.3l-5.2-4.5c-.4-.4-1 .3-.6.6l5.1 4.4c.7.8.6 1.9-.2 2.4-.7.6-1.9.5-2.6-.3l-4-3.5c-.4-.4-1 .3-.6.6l3.9 3.4c.7.8.6 1.8-.2 2.4-.7.6-1.9.5-2.6-.3l-1-.9c0-.2 0-.4 0-.6-.2-2.1-1.9-3.6-3.9-3.8-.6-1.5-2-2.5-3.6-2.7-.6-1.4-1.9-2.5-3.6-2.7-1.1-2.6-4.4-3.6-6.8-1.8-1.1-.4-5-1.2-6.5-1.5l2.2-8.6c2.1-.1 4.5-.4 7.8-1.9 2.3-1.1 3.4-1.6 5.5 0-1.4 1.4-2.7 2.6-4.2 3.4-1.3.7-1.8 2.2-1.4 3.8.5 1.8 2.3 3.6 5.2 3.6 3 0 7.8-2.7 8.8-4 3.9 3.7 7.8 7.2 11.1 10.2 1 1 .8 2 0 2.6zm-10.3 8.1c-.3.2-.7.4-1.1.4s-.8-.2-1.2-.5l1-1.2c.4-.5.7-1.1.9-1.7l.6.6c.6.7.6 1.8-.2 2.4zm-3.4-3-1.6 2c-.7.8-1.8 1-2.6.4s-.9-1.7-.2-2.5l1.6-2c.7-.8 1.9-1 2.6-.4s.8 1.7.2 2.5zm-7.9-.3c-.8-.6-.9-1.7-.2-2.5l1.6-2c.7-.8 1.8-1 2.6-.4s.9 1.7.2 2.5l-1.6 2c-.6.8-1.8 1-2.6.4zm-3.5-2.7c-.8-.6-.9-1.7-.2-2.5l1.6-2c.7-.8 1.8-1 2.6-.4s.9 1.7.2 2.5l-1.7 2c-.6.9-1.7 1-2.5.4zm-3.6-2.6c-.8-.6-.9-1.7-.2-2.5l1.6-2c.7-.8 1.8-1 2.6-.4s.9 1.7.2 2.5l-1.6 2c-.6.8-1.8 1-2.6.4zm-10.1-6.7-3.1-.8 3.6-14 3.2.8zm49.7-14.8 3.6 14-3.1.8-3.7-14zm-1.8 18.7 9.3-2.4-5.2-20.2-9.4 2.4.5 2c-4.8.6-6.8-.6-11.9-3.3-1.3-.7-2.6-1.1-3.8-1.1-1.6 0-3 .7-4 1.9-.5.6-.8.9-1.3 1.5-5.2-4.1-8.5-1.1-12 .2-1 .4-2.1.5-2.9.5l.5-1.8-9.4-2.4-5.2 20.2 9.3 2.4.5-1.9c.8.2 4 .8 4.6.9-1.7 2.8 0 6.3 3.2 6.7.6 1.5 2 2.5 3.6 2.7.6 1.5 2 2.5 3.6 2.7.9 2.2 3.5 3.4 6 2.3.9.9 2.2 1.4 3.6 1.4 1.9 0 3.6-.9 4.5-2.7 1.5-.3 2.8-1.3 3.5-2.7 1.5-.3 2.8-1.3 3.4-2.7 2-.4 3.7-2.1 3.9-4.3.1-.8-.1-1.7-.4-2.4.8-.4 3.9-1.7 5-2.2z"/><clipPath id="b"><use xlink:href="#a"/></clipPath><clipPath id="c"><use xlink:href="#d"/></clipPath><path id="d" d="m-.4 14h64.2v39.2h-64.2z"/></defs><g enable-background="new"><use clip-rule="evenodd" fill-rule="evenodd" xlink:href="#a"/><g clip-path="url(#b)"><use xlink:href="#d"/><path clip-path="url(#c)" d="m-9.3 5.2h82v55.3h-82z"/></g></g></svg>