<?xml version="1.0" encoding="utf-8"?>
<!-- Generator: Adobe Illustrator 19.0.0, SVG Export Plug-In . SVG Version: 6.00 Build 0)  -->
<!DOCTYPE svg PUBLIC "-//W3C//DTD SVG 1.1//EN" "http://www.w3.org/Graphics/SVG/1.1/DTD/svg11.dtd">
<svg version="1.1" id="Layer_1" xmlns="http://www.w3.org/2000/svg" xmlns:xlink="http://www.w3.org/1999/xlink" x="0px" y="0px"
	 width="64px" height="64px" viewBox="0 0 64 64" style="enable-background:new 0 0 64 64;" xml:space="preserve">
<style type="text/css">
	.st0{enable-background:new    ;}
	.st1{clip-path:url(#XMLID_6_);}
	.st2{clip-path:url(#XMLID_22_);}
</style>
<g id="XMLID_2_">
	<g id="XMLID_3_">
		<g id="XMLID_4_" class="st0">
			<g id="XMLID_5_">
				<g id="XMLID_7_">
					<defs>
						<path id="XMLID_8_" d="M46.9,33.2c-2.2-2-7.3-6.6-9.1-8.4c-0.8-0.8-1.8-1.7-3.3-1.7c-1.3,0-2.3,0.7-3,1.3
							c-1.5,1.2-5.4,3.7-6.9,2.5c3.1-2,5.9-5.2,8.5-8.2c0.6-0.7,1.6-0.6,2.9,0.1c5.8,3,8,4.5,14.8,3.7l2.1,8
							C51.5,31,48,32.6,46.9,33.2z M45.4,40c-0.8,0.6-1.9,0.4-2.6-0.3l-5.2-4.5c-0.4-0.4-1,0.3-0.6,0.6l5.1,4.4
							c0.7,0.8,0.6,1.9-0.2,2.4c-0.7,0.6-1.9,0.5-2.6-0.3l-4-3.5c-0.4-0.4-1,0.3-0.6,0.6l3.9,3.4c0.7,0.8,0.6,1.8-0.2,2.4
							c-0.7,0.6-1.9,0.5-2.6-0.3L34.8,44c0-0.2,0-0.4,0-0.6c-0.2-2.1-1.9-3.6-3.9-3.8c-0.6-1.5-2-2.5-3.6-2.7
							c-0.6-1.4-1.9-2.5-3.6-2.7c-1.1-2.6-4.4-3.6-6.8-1.8c-1.1-0.4-5-1.2-6.5-1.5l2.2-8.6c2.1-0.1,4.5-0.4,7.8-1.9
							c2.3-1.1,3.4-1.6,5.5,0c-1.4,1.4-2.7,2.6-4.2,3.4c-1.3,0.7-1.8,2.2-1.4,3.8c0.5,1.8,2.3,3.6,5.2,3.6c3,0,7.8-2.7,8.8-4
							c3.9,3.7,7.8,7.2,11.1,10.2C46.4,38.4,46.2,39.4,45.4,40z M35.1,48.1c-0.3,0.2-0.7,0.4-1.1,0.4c-0.4,0-0.8-0.2-1.2-0.5l1-1.2
							c0.4-0.5,0.7-1.1,0.9-1.7l0.6,0.6C35.9,46.4,35.9,47.5,35.1,48.1z M31.7,45.1l-1.6,2c-0.7,0.8-1.8,1-2.6,0.4
							c-0.8-0.6-0.9-1.7-0.2-2.5l1.6-2c0.7-0.8,1.9-1,2.6-0.4C32.2,43.2,32.3,44.3,31.7,45.1z M23.8,44.8c-0.8-0.6-0.9-1.7-0.2-2.5
							l1.6-2c0.7-0.8,1.8-1,2.6-0.4c0.8,0.6,0.9,1.7,0.2,2.5l-1.6,2C25.8,45.2,24.6,45.4,23.8,44.8z M20.3,42.1
							c-0.8-0.6-0.9-1.7-0.2-2.5l1.6-2c0.7-0.8,1.8-1,2.6-0.4c0.8,0.6,0.9,1.7,0.2,2.5l-1.7,2C22.2,42.6,21.1,42.7,20.3,42.1z
							 M16.7,39.5c-0.8-0.6-0.9-1.7-0.2-2.5l1.6-2c0.7-0.8,1.8-1,2.6-0.4c0.8,0.6,0.9,1.7,0.2,2.5l-1.6,2
							C18.7,39.9,17.5,40.1,16.7,39.5z M6.6,32.8L3.5,32l3.6-14l3.2,0.8L6.6,32.8z M56.3,18l3.6,14l-3.1,0.8l-3.7-14L56.3,18z
							 M54.5,36.7l9.3-2.4l-5.2-20.2l-9.4,2.4l0.5,2c-4.8,0.6-6.8-0.6-11.9-3.3c-1.3-0.7-2.6-1.1-3.8-1.1c-1.6,0-3,0.7-4,1.9
							c-0.5,0.6-0.8,0.9-1.3,1.5c-5.2-4.1-8.5-1.1-12,0.2c-1,0.4-2.1,0.5-2.9,0.5l0.5-1.8l-9.4-2.4l-5.2,20.2l9.3,2.4l0.5-1.9
							c0.8,0.2,4,0.8,4.6,0.9c-1.7,2.8,0,6.3,3.2,6.7c0.6,1.5,2,2.5,3.6,2.7c0.6,1.5,2,2.5,3.6,2.7c0.9,2.2,3.5,3.4,6,2.3
							c0.9,0.9,2.2,1.4,3.6,1.4c1.9,0,3.6-0.9,4.5-2.7c1.5-0.3,2.8-1.3,3.5-2.7c1.5-0.3,2.8-1.3,3.4-2.7c2-0.4,3.7-2.1,3.9-4.3
							c0.1-0.8-0.1-1.7-0.4-2.4c0.8-0.4,3.9-1.7,5-2.2L54.5,36.7z"/>
					</defs>
					<use xlink:href="#XMLID_8_"  style="overflow:visible;fill-rule:evenodd;clip-rule:evenodd;"/>
					<clipPath id="XMLID_6_">
						<use xlink:href="#XMLID_8_"  style="overflow:visible;"/>
					</clipPath>
					<g id="XMLID_19_" class="st1">
						<defs>
							<rect id="XMLID_20_" x="-0.4" y="14" width="64.2" height="39.2"/>
						</defs>
						<use xlink:href="#XMLID_20_"  style="overflow:visible;"/>
						<clipPath id="XMLID_22_">
							<use xlink:href="#XMLID_20_"  style="overflow:visible;"/>
						</clipPath>
						<rect id="XMLID_21_" x="-9.3" y="5.2" class="st2" width="82" height="55.3"/>
					</g>
				</g>
			</g>
		</g>
	</g>
</g>
</svg>
