<svg height="40" viewBox="0 0 76 40" width="76" xmlns="http://www.w3.org/2000/svg"><path d="m2.89 5.6c-.26369658-.71763715-1.03636992-1.11030411-1.77150448-.90026567-.73513455.21003845-1.18373126.95163971-1.02849552 1.70026567l7.6 28.5c.0804666.3871228.32542587.7200608.6710652.9120826.34563933.1920219.75773497.2241144 1.1289348.0879174.37532286-.0998169.6939038-.3479972.8825126-.687493s.2310209-.7411032.1174874-1.112507zm26.7 4.3c-.4-1.6-.8-3-1.2-4.6s-.9-3.3-1.4-5.3c-1.2040383 1.29993951-2.7724524 2.20613435-4.5 2.6-1.44193.33106534-2.9220079.46561787-4.4.4-1.4 0-2.9-.1-4.3-.1-1.4778861-.06117876-2.9573738.07332013-4.4.4-1.72754759.39386565-3.29596175 1.30006049-4.5 2.6.5 2 1 3.7 1.4 5.3s.8 3 1.2 4.6.9 3.3 1.4 5.3c1.2040383-1.2999395 2.7724524-2.2061344 4.5-2.6 1.44193-.3310653 2.9220079-.4656179 4.4-.4 1.4 0 2.9.1 4.3.1 1.4778861.0611788 2.9573738-.0733201 4.4-.4 1.7275476-.3938656 3.2959617-1.3000605 4.5-2.6-.5-2.1-1-3.7-1.4-5.3z" fill="#fff" fill-rule="evenodd" transform="translate(23 2)"/></svg>