<svg height="40" viewBox="0 0 76 40" width="76" xmlns="http://www.w3.org/2000/svg"><g fill="#fff" fill-rule="evenodd" transform="translate(22.042553 1)"><path d="m26.7943925 15.967097c0-5.8132635-4.9214191-10.54138442-10.858369-10.2313437-5.3120078.23253054-9.68660251 4.5731006-9.9209558 9.7662826-.07811776 2.6353462.78117762 5.1931821 2.49976839 7.1309366 1.64047301 1.8602443 2.49976841 4.4180802 2.49976841 7.1309365v.4650611c0 .4650611.312471.7751018.7811776.7751018h9.1397782c.4687066 0 .7811776-.3100407.7811776-.7751018v-.5425713c0-2.5578359.9374132-5.0381616 2.7341217-7.2859569 1.4842375-1.7827341 2.3435329-4.0305293 2.3435329-6.4333449zm-7.421745 11.9879059h-6.4770805c-.0667741-2.6101073-.9348364-5.0828405-2.470639-6.9373905-1.26870647-1.5111147-1.8696727-3.4343517-1.80289867-5.3575887.20032208-3.983848 3.33870127-7.2121386 7.14482077-7.4181997 4.3403116-.2060611 7.879335 3.3656647 7.879335 7.7616349 0 1.7858629-.6009662 3.4343517-1.6693506 4.8767795-1.6693507 2.129298-2.604187 4.6020313-2.604187 7.0747645z"/><path d="m20.9355603 32.786806h-8.8273071c-.4687066 0-.7811777.3100407-.7811777.7751018s.3124711.7751018.7811777.7751018h8.8273071c.4687066 0 .7811776-.3100407.7811776-.7751018s-.312471-.7751018-.7811776-.7751018z"/><path d="m19.3732051 35.6546827h-5.7025967c-.4687066 0-.7811776.3100407-.7811776.7751018 0 .465061.312471.7751018.7811776.7751018h5.7025967c.4687065 0 .7811776-.3100408.7811776-.7751018 0-.4650611-.3124711-.7751018-.7811776-.7751018z"/><path d="m16.4047301 4.49559042c.4687066 0 .7811776-.31004071.7811776-.77510179v-2.94538683c0-.46506108-.312471-.7751018-.7811776-.7751018s-.7811776.31004072-.7811776.7751018v2.94538683c0 .46506108.312471.77510179.7811776.77510179z"/><path d="m24.9976839 8.13856887c.2343533 0 .3905889-.07751018.5468244-.23253054l2.0310618-2.09277485c.312471-.31004072.312471-.7751018 0-1.08514252-.3124711-.31004072-.7811776-.31004072-1.0936487 0l-2.0310618 2.09277486c-.312471.31004071-.312471.77510179 0 1.08514251.1562355.15502036.3905888.23253054.5468243.23253054z"/><path d="m7.2649519 24.4157066-2.03106182 2.0927749c-.31247105.3100407-.31247105.7751018 0 1.0851425.15623552.1550203.31247104.2325305.54682433.2325305s.39058881-.0775102.54682434-.2325305l2.03106182-2.0927749c.31247105-.3100407.31247105-.7751018 0-1.0851425-.31247105-.3875509-.78117762-.3100407-1.09364867 0z"/><path d="m31.4814582 15.3470156h-2.8903572c-.4687066 0-.7811776.3100407-.7811776.7751018s.312471.7751018.7811776.7751018h2.8903572c.4687066 0 .7811776-.3100407.7811776-.7751018s-.3905888-.7751018-.7811776-.7751018z"/><path d="m4.21835917 15.3470156h-2.89035721c-.46870657 0-.78117762.3100407-.78117762.7751018s.31247105.7751018.78117762.7751018h2.89035721c.46870657 0 .78117762-.3100407.78117762-.7751018s-.31247105-.7751018-.78117762-.7751018z"/><path d="m25.5445083 24.4157066c-.3124711-.3100407-.7811776-.3100407-1.0936487 0-.312471.3100407-.312471.7751018 0 1.0851425l2.0310618 2.0927749c.1562356.1550203.3905888.2325305.5468244.2325305.2343532 0 .3905888-.0775102.5468243-.2325305.312471-.3100407.312471-.7751018 0-1.0851425z"/><path d="m7.2649519 7.90603833c.15623552.15502036.39058881.23253054.54682433.23253054.23435329 0 .39058881-.07751018.54682434-.23253054.31247105-.31004072.31247105-.7751018 0-1.08514251l-2.03106182-2.09277486c-.31247105-.31004072-.78117763-.31004072-1.09364867 0-.31247105.31004072-.31247105.7751018 0 1.08514252z"/></g></svg>