<svg height="100" viewBox="0 0 220 100" width="220" xmlns="http://www.w3.org/2000/svg"><path d="m123 29.0058954 4.295994 14.9941046 6.704006-2.0025063-4.214725-14.9974937zm-10.336791 21.4750025-.454536-.4808979c-.102248.5675051-.29201 1.1048116-.574644 1.5543714l-.634029 1.0643569c.251825.2398791.541157.3925813.836739.3806158.274597-.0108259.541157-.1299108.756816-.3555453.510348-.5458533.547408-1.5110678.069654-2.1629009zm-2.194096-2.2524457c-.606714-.4048342-1.490448-.2555887-1.979135.320855l-1.184653 1.4522914c-.482347.5787258-.382854 1.3733328.225323 1.7722337.608665.3989009 1.490936.2578707 1.976697-.326332l1.180751-1.4504658c.490638-.5746181.391145-1.3701378-.218983-1.7685823zm-3.957289 1.2197937 1.179096-1.4462905c.487177-.5789732.387494-1.3731763-.221844-1.7762184-.611781-.4012143-1.493293-.252701-1.980471.3271861l-1.18105 1.4421778c-.487177.581258-.383585 1.3791169.225753 1.7785032.605429.3993864 1.491339.2577276 1.978516-.3253582zm-2.010791-1.9907298 1.194482-1.4597342c.480426-.5744936.382878-1.3730353-.225825-1.7723061-.606264-.3988145-1.488103-.2555333-1.97292.3267176l-1.192043 1.4579089c-.48628.5804257-.377513 1.3538703.233141 1.7586169.612605.4006397 1.478836.2705915 1.963165-.3112031zm-2.989375-1.0069965 1.180314-1.4464769c.48492-.5813329.387253-1.3756385-.222194-1.7769044-.610911-.4030941-1.496269-.2541047-1.979235.3235721l-1.1822678 1.4501331c-.4868734.5772197-.385299 1.3738104.2217057 1.7732482.6070051.3994379 1.4967571.2554758 1.9816771-.3235721zm21.645156-2.4675753c.264335.5453763.406045 1.1411813.362148 1.7449241-.103539 1.6034438-1.284457 2.8352098-2.770266 3.1784047-.467118 1.0431256-1.38895 1.7551966-2.469192 2.0110752-.448987 1.0020357-1.367001 1.7603329-2.490662 2.026484-.598332 1.3083429-1.847958 2.0110752-3.234999 2.0540329-1.016783.0317514-1.989668-.2908985-2.705376-.9539416-1.803583.8358079-3.750785.0238135-4.452179-1.5273339-1.178532-.0947871-2.209628-.8035896-2.686767-1.8406451-1.184734-.1003903-2.223942-.8152629-2.703466-1.8523184-2.3494302-.1928428-3.7317004-2.663379-2.5169058-4.73749-.4623472-.0975887-.9795653-.1704301-1.4891492-.2470069l.6627454-2.8464162c1.0392076.1606246 2.0039816.3604714 2.8857335.6014082 1.7577781-1.3190823 4.2198131-.7008646 5.0648251 1.1528546 1.202389.095721 2.228237.8264692 2.691538 1.8467152 1.182349.0943202 2.217263.8012549 2.69297 1.8425128 1.459089.1129975 2.720643 1.1757343 2.944898 2.6759861l.018132.4342466.911811.7475578c.514833.5453763 1.359845.5827309 1.898057.1452158.549664-.4473207.599286-1.2228944.091134-1.7575313l-2.951102-2.3766828c-.318251-.2586802.078728-.7358845.404614-.4776712l3.019809 2.4308469c.524375.5509795 1.384179.5976727 1.916188.1601576.547755-.4417175.583541-1.2359685.07682-1.7701384l-3.838102-3.0233834c-.327317-.2502754.071093-.7354175.39507-.479072l3.934961 3.0990263c.506244.5285668 1.356982.6042097 1.912371.1606245.543938-.4417174.649386-1.1902091-.066322-1.9186227-2.513088-2.0685078-5.413613-4.4736735-8.400977-7.0656118-.668948.9623464-4.19357 3.0294534-6.366936 3.0971585s-3.547525-1.1925438-3.946413-2.4696022c-.345448-1.1126985.029106-2.1992488.957617-2.7689055 1.034437-.6359611 2.031179-1.533871 2.998339-2.5424436-1.591257-1.081881-2.395236-.6938607-4.0719.1517528-.976226.4898114-2.1347178 1.0720754-3.6128928 1.3611062l.7586502-3.2470437c2.5841816-1.0221137 4.9216836-3.2568492 8.8714356-.4361143l.932806-1.0944881c.750539-.8862366 1.750621-1.4344145 2.916748-1.4708352.859326-.0266151 1.803106.2544779 2.800325.7176742 3.040804 1.4362822 4.596752 2.2814287 6.865546 2.2842303l.870301 2.8837708-.015269.0004669c-3.538936.1736986-5.304826-.8157298-8.99072-2.5578524-1.027279-.4758034-1.71245-.5603181-2.170026-.0172764-1.868952 2.2197937-3.857188 4.5768654-6.09783 6.1018646 1.158015.8479481 3.949752-1.0071719 5.049557-1.9330976.480001-.4029621 1.228154-.9413345 2.193405-.9716851 1.089785-.033619 1.902351.5799293 2.490186 1.1173678 1.38227 1.2695876 5.213215 4.449393 6.90992 5.8497215.839763-.49308 1.682867-.8918397 2.545056-1.2467079l.846921 2.8053262c-.62028.2778244-1.229586.5902018-1.843186.9474046zm-36.156814-.5612638 3.547175-15.4216805 7.452825 1.5753804-3.6350166 15.4246196z" fill="#fff" fill-rule="evenodd"/></svg>