<svg height="100" viewBox="0 0 220 100" width="220" xmlns="http://www.w3.org/2000/svg"><g fill="#fff" fill-rule="nonzero" transform="translate(93 23)"><path d="m18.5154812.06190476-4.6288703 7.56785714-6.71882847-3.79166666 2.83305437 10.39999996v1.4392858s3.4368201-1.6095239 8.4991632-1.6095239 8.4991632 1.6095239 8.4991632 1.6095239v-1.4392858l2.8330544-10.38452377-6.7188285 3.77619047zm6.7962343 13.23214284s-3.3903766-1.2071428-6.7962343-1.2071428c-3.4213389 0-6.7962343 1.2071428-6.7962343 1.2071428l-1.5171548-5.58690474 4.3502092 2.46071424 3.9631799-6.46904758 3.9631799 6.46904758 4.3656904-2.46071424z"/><path d="m28.2221757 30.0238095c-1.6100418-.3714285-3.0962343-.6964285-2.3686192-2.0583333 2.1983263-4.1630952.5882845-6.3761905-1.7493724-6.3761905-1.5790795 0-2.802092 1.0214286-2.802092 2.8940476 0 4.6738096 2.6163179 2.3833334 2.7866108 7.6607143 0 .1392857-.2322175 4.4726191-.2941422 5.9583334 2.0435146-.6654762 4.334728-2.104762 5.9138075-3.652381v-2.2285714c0-1.1916667-.092887-1.8726191-1.4861925-2.1976191zm-3.885774-2.847619c-.0309624.0464285-.0464435.0928571-.0774059.1547619-.1548117-.1702381-.3096234-.3404762-.4644351-.4952381-.5263599-.5107143-.7740586-.7738095-.7740586-2.352381 0-.8047619.3405858-1.1916666 1.083682-1.1916666.3096234 0 .7121339.0773809.9133891.4023809.2941423.4952381.2786611 1.6714286-.6811715 3.4821429zm3.6690376 6.5154762c-.7121339.6190476-1.5171548 1.2071428-2.353138 1.6869047.0154811-.2011904.0154811-.3869047.0309623-.5880952.1393305-2.5690476.1393305-2.5845238.1238494-2.7083333-.0154812-.3559524-.0309624-.6964286-.0619247-1.0059524.6192468.2785714 1.3313807.4488095 2.0435146.6035714l.0619247.0154762c.0619247.0154762.1083682.0309524.1393306.0309524.0154811.1083333.0154811.2785714.0154811.4797619z"/><path d="m20.2648536 29.1107143c-2.1364017-.4952381-4.1334728-.9285714-3.1736402-2.7547619 2.9414226-5.5404762.7740586-8.5119048-2.3221757-8.5119048-3.158159 0-5.26359837 3.0797619-2.3221758 8.5119048.990795 1.8261905-1.0682008 2.2595238-3.17364014 2.7547619-1.85774059.4333333-1.98158996 1.3309524-1.98158996 2.8940476l.27866109 2.6928571c3.76192471 3.4666667 7.98828451 4.302381 11.00711301 4.302381 1.3778242 0 2.5079497-.1702381 3.2355648-.3559524.0774059-1.222619.4179916-6.6392857.4179916-6.6392857.0154812-1.5630952-.1083682-2.4607143-1.9661087-2.8940476zm-.0619247 8.0940476c-.448954.0464286-.990795.0928571-1.6100419.0928571-2.4615062 0-6.053138-.6035714-9.38158993-3.4357142l-.20125523-1.9345238c0-.5107143.03096234-.8202381.07740586-.9440477.04644351-.0309523.20125523-.1238095.57280335-.2011904l.13933054-.0309524c1.81129711-.4178572 3.66903761-.8511905 4.38117151-2.4142857.26318-.5880953.448954-1.5476191-.2322175-2.7857143-1.1765691-2.1821429-1.5171548-4.1166667-.897908-5.1535715.4025105-.6809523 1.1610879-.8357142 1.7184101-.8357142.5573221 0 1.3004184.1392857 1.7029288.8047619.6192469 1.0369047.2941423 2.9714285-.8824268 5.1845238-.6502092 1.2380952-.4644351 2.197619-.2012552 2.7857143.7121339 1.5630952 2.5853557 1.9964285 4.4121339 2.4142857l.0774059.0154762c.3715481.0928571.5263598.1702381.5728033.2011904.0464435.1238096.0774059.4642858.0774059.975-.0154812.4488096-.2012553 3.3892858-.3251046 5.2619048z"/><path d="m2.68213828 12.8671738 1.70250981.0002508.00103259 7.012154-1.70250982-.0002508z" transform="matrix(.54641114 -.83751708 .83751708 .54641114 -12.11004 10.38649)"/><path d="m1.75807793 20.4128298 1.70241752.0000396.00010457 4.5051025-1.70241751-.0000396z" transform="matrix(.07233685 -.99738026 .99738026 .07233685 -20.185436 23.628361)"/><path d="m29.9811051 15.5017815 7.012154.0010326.0002507 1.7025098-7.012154-.0010325z" transform="matrix(.83751708 -.54641114 .54641114 .83751708 -3.494648 20.955011)"/><path d="m32.1700297 21.8058479 4.5050748.0001045.0000395 1.702407-4.5050748-.0001044z" transform="matrix(.9973864 -.07225216 .07225216 .9973864 -1.547058 2.546323)"/></g></svg>