<svg enable-background="new 0 0 86 86" viewBox="0 0 86 86" xmlns="http://www.w3.org/2000/svg"><path d="m43 0c23.7 0 43 19.3 43 43s-19.3 43-43 43-43-19.3-43-43c0-23.7 19.3-43 43-43z" fill="#ef6c00"/><path d="m43.5 21c-6.5.2-11.6 5.6-11.5 12.1 0 2.1.5 4.2 1.5 6 2.8 5.3 3.6 8.3 4.1 11.2.4 2.4.9 3 2.7 3h3.3 3.3c1.8 0 2.3-.6 2.7-3 .5-2.9 1.2-5.9 4-11.2 1-1.8 1.5-3.9 1.5-6 .2-6.5-4.9-11.9-11.4-12.1-.1 0-.2 0-.2 0zm-4 34.9h8.2c.3 0 .6-.3.6-.6v-.4c0-.3-.3-.6-.6-.6h-8.2c-.3 0-.6.3-.6.6v.4c0 .3.3.6.6.6zm0 2.5h8.2c.3 0 .6-.3.6-.6v-.4c0-.3-.3-.6-.6-.6h-8.2c-.3 0-.6.3-.6.6v.4c0 .4.2.6.6.6zm8.2.9h-8.2c-.3 0-.6.3-.6.6v.4c0 .3.3.6.6.6h8.2c.3 0 .6-.3.6-.6v-.4c.1-.3-.2-.6-.6-.6 0-.1 0-.1 0 0zm-4.1 4.7c1.4 0 3.1-.9 3.1-2.2h-6.2c0 1.4 1.7 2.2 3.1 2.2z" fill="#fff"/></svg>