<svg height="100" viewBox="0 0 220 100" width="220" xmlns="http://www.w3.org/2000/svg"><path d="m110.14795 27c-4.106205 3.7162861-6.746006 3.9679256-11.14795 4.1077254l.458977 14.4184672c.1833859 5.7539524 4.241098 7.1277405 11.64415 11.4738074 7.111753-4.806724 11.073844-6.4352204 10.8908-12.1888319l-.459319-14.4188082c-4.401602.1397997-7.052331.0562609-11.386658-3.3923599zm.561296 3c3.217537 2.1685425 5.822178 2.6985088 8.903135 2.7567846l.382632 12.0325658c.121824 3.8228875-1.967722 4.8766497-8.521877 9.2106496-6.809814-3.9072159-8.96868-4.8286579-9.090504-8.6515454l-.382632-12.0325659c3.073407-.2536708 5.636525-.9474947 8.709246-3.3158887zm4.586606 7-5.654658 5.8551923-3.04476-2.6044615-1.596434 1.6220769 4.746361 4.1271923 7.253639-7.479z" fill="#fff" fill-rule="evenodd"/></svg>