<?xml version="1.0" encoding="UTF-8" standalone="no"?>
<svg width="220px" height="100px" viewBox="0 0 220 100" version="1.1" xmlns="http://www.w3.org/2000/svg" xmlns:xlink="http://www.w3.org/1999/xlink">
    <!-- Generator: Sketch 3.6.1 (26313) - http://www.bohemiancoding.com/sketch -->
    <title>icon-goedproces-card-bg</title>
    <desc>Created with Sketch.</desc>
    <defs></defs>
    <g id="Page-1" stroke="none" stroke-width="1" fill="none" fill-rule="evenodd">
        <g id="icon-goedproces-card-bg">
            <g id="icon-goedproces" transform="translate(95.000000, 21.000000)" fill="#FFFFFF">
                <path d="M2.89,5.6 C2.62630342,4.88236285 1.85363008,4.48969589 1.11849552,4.69973433 C0.383360971,4.90977278 -0.0652357369,5.65137404 0.09,6.4 L7.69,34.9 C7.7704666,35.2871228 8.01542587,35.6200608 8.3610652,35.8120826 C8.70670453,36.0041045 9.11880017,36.036197 9.49,35.9 C9.86532286,35.8001831 10.1839038,35.5520028 10.3725126,35.212507 C10.5611214,34.8730112 10.6035335,34.4714038 10.49,34.1 L2.89,5.6 Z M29.59,9.9 C29.19,8.3 28.79,6.9 28.39,5.3 C27.99,3.7 27.49,2 26.99,0 C25.7859617,1.29993951 24.2175476,2.20613435 22.49,2.6 C21.04807,2.93106534 19.5679921,3.06561787 18.09,3 C16.69,3 15.19,2.9 13.79,2.9 C12.3121139,2.83882124 10.8326262,2.97332013 9.39,3.3 C7.66245241,3.69386565 6.09403825,4.60006049 4.89,5.9 C5.39,7.9 5.89,9.6 6.29,11.2 C6.69,12.8 7.09,14.2 7.49,15.8 C7.89,17.4 8.39,19.1 8.89,21.1 C10.0940383,19.8000605 11.6624524,18.8938656 13.39,18.5 C14.83193,18.1689347 16.3120079,18.0343821 17.79,18.1 C19.19,18.1 20.69,18.2 22.09,18.2 C23.5678861,18.2611788 25.0473738,18.1266799 26.49,17.8 C28.2175476,17.4061344 29.7859617,16.4999395 30.99,15.2 C30.49,13.1 29.99,11.5 29.59,9.9 L29.59,9.9 Z" id="Shape"></path>
            </g>
            <g id="Group"></g>
        </g>
    </g>
</svg>