<?xml version="1.0" encoding="utf-8"?>
<!-- Generator: Adobe Illustrator 19.2.0, SVG Export Plug-In . SVG Version: 6.00 Build 0)  -->
<svg version="1.1" id="Layer_1" xmlns="http://www.w3.org/2000/svg" xmlns:xlink="http://www.w3.org/1999/xlink" x="0px" y="0px"
	 viewBox="0 0 668 668" style="enable-background:new 0 0 668 668;" xml:space="preserve">
<style type="text/css">
	.st0{fill:blue;}
	.st1{fill:#FFFFFF;}
</style>
<title>icon-brains</title>
<circle class="st0" cx="334" cy="334" r="334"/>
<path class="st1" d="M575.4,281.7c0.7-4.6,1-9.2,1-13.8c0-40.3-23.8-76.7-60.7-92.9c-8.3-14-19.9-25.9-33.7-34.6
	c-18.8-11.9-41.2-17-63.3-14.6c-29.3-20.6-67.4-24.1-99.9-9.1c-10.9-4-22.3-6-33.9-6c-27.6-0.2-54,10.9-73.2,30.7
	c-1.7-0.1-3.4-0.2-5.1-0.2c-21.8,0-45.1,10.3-62.4,27.5c-11,10.9-19,24.4-23.2,39.3c-14.5,6.9-27.2,18.2-36.9,33.4
	c-11.2,17.4-18.2,39.3-20.3,63.3v0.1c-2.5,30,3.9,57.5,18.6,79.6c15,22.5,37.6,37.9,65.3,44.6c8.9,2.1,18,3.1,27.1,3
	c12.4-0.1,24.8-2.2,36.6-6.2c9.2,8.1,22,17,44.5,18.9h0.2h0.2c2,0.1,4,0.2,5.9,0.2c15.1,0,26.1-3.7,34.9-8.5
	c6.3,4.9,14.8,9.6,27,13.8l0.3,0.1l0.1,0.1c7.3,2.3,14.8,3.6,22.4,3.9v74c0,14.4,12.5,27.1,26.9,27.1h81.9
	c12.9,0,23.5-9.4,25.7-22.2l0.5-1.9l0.2-0.8l0.1-0.8l0.3-2c5-32.6,8-47.5,26.7-56.9l6.7-3c31.6-14,48.8-38.1,52.4-73.5
	C593.3,361.8,596.1,317.2,575.4,281.7z M206.4,158.3L206.4,158.3z M241.5,424.7c1.5,0.5,3.1,1,4.7,1.4
	C244.6,425.7,243,425.2,241.5,424.7L241.5,424.7z M262.1,428.1L262.1,428.1z M428.7,142.3h0.7h1.1H428.7z M464.6,529.7
	c0,0.4-0.1,0.8-0.2,1.2C464.5,530.5,464.6,530.1,464.6,529.7l0.6-2.6L464.6,529.7z M478,477.6c0.8-1.4,1.6-2.7,2.5-4
	C479.6,474.9,478.8,476.2,478,477.6L478,477.6z M488.4,464.5c1.2-1.1,2.5-2.2,3.9-3.2C490.9,462.3,489.6,463.3,488.4,464.5z
	 M508.8,452.2l-7,3.2L508.8,452.2c1.3-0.6,2.6-1.2,3.8-1.8C511.4,451.1,510.1,451.7,508.8,452.2z M558.3,280.9
	c0.2-1.4,0.4-2.9,0.6-4.3C558.7,278,558.5,279.4,558.3,280.9L558.3,280.9z"/>
<path class="st1" d="M455.7,538h-81.9c-5.2-0.1-9.5-4.4-9.6-9.6v-80c0-10.9,0-10.9-12.2-10.9c-7.6,0.1-15.1-1-22.4-3.2
	c-16.6-5.8-24.3-12.2-30.7-19.2c-9.6,7-20.5,14.1-41.6,12.8c-21.8-1.9-31.4-11.5-40.3-19.8l-1.9-1.9c-12.7,5.8-26.4,8.9-40.3,9
	c-7.7,0.1-15.5-0.8-23-2.6c-48-11.5-75.5-53.1-71-106.2c3.8-43.5,25-76.2,55-85.8c1.9-14.1,9-28.2,20.5-39.7
	c17.3-17.3,42.2-26.2,62.1-21.1c16-20.5,40.3-32,66.6-32c11.9,0,23.7,2.6,34.5,7.7c12.7-7.1,27-10.8,41.6-10.9
	c19.4,0.1,38.1,6.9,53.1,19.2c37.1-7,73,12.2,89.6,44.8c33.4,12.1,55.7,43.8,55.7,79.4c0,5.8-0.6,11.6-1.9,17.3
	c21.6,31.5,19.2,73.6-5.8,102.4c-1.9,32-15.4,52.5-42.9,64.6l-7,3.2c-28.2,14.1-31.4,38.4-36.5,71.7l-0.6,2.6
	C464,534.8,460.2,538,455.7,538z"/>
<path class="st0" d="M451.6,539.7h-81.9c-5.2-0.1-9.5-4.4-9.6-9.6v-80c0-10.9,0-10.9-12.2-10.9c-7.6,0.1-15.1-1-22.4-3.2
	c-16.6-5.8-24.3-12.2-30.7-19.2c-9.6,7-20.5,14.1-41.6,12.8c-21.8-1.9-31.4-11.5-40.3-19.8l-1.9-1.9c-12.7,5.8-26.4,8.9-40.3,9
	c-7.7,0.1-15.5-0.8-23-2.6c-48-11.5-75.5-53.1-71-106.2c3.8-43.5,25-76.2,55-85.8c1.9-14.1,9-28.2,20.5-39.7
	c17.3-17.3,42.2-26.2,62.1-21.1c16-20.5,40.3-32,66.6-32c11.9,0,23.8,2.6,34.6,7.7c12.7-7.1,27-10.8,41.6-10.9
	c19.4,0.1,38.1,6.9,53.1,19.2c37.1-7,73,12.2,89.6,44.8c33.4,12.1,55.7,43.8,55.7,79.4c0,5.8-0.6,11.6-1.9,17.3
	c21.6,31.5,19.2,73.6-5.8,102.4c-1.9,32-15.4,52.5-42.9,64.6l-7,3.2c-28.2,14.1-31.4,38.4-36.5,71.7l-0.6,2.6
	C459.9,536.5,456.1,539.7,451.6,539.7z M379.3,520.5h64c5.1-33.3,10.9-64.6,46.7-83.2c0.3,0,0.6-0.3,0.6-0.6c0,0,0,0,0,0l7-3.2
	c21.8-9.6,30.7-24.3,31.4-51.2c0-2.6,1.3-4.5,2.6-6.4c22.1-23.2,24-59.1,4.5-84.5c-1.9-2.3-2.6-5.4-1.9-8.3
	c1.3-5.7,1.9-11.5,1.9-17.3c0.1-28.6-18.6-53.9-46.1-62.1c-2.6-0.6-5.1-2.6-5.8-5.1c-10.2-23.7-33.9-38.4-58.9-38.4
	c-5.2,0-10.3,0.7-15.4,1.9c-3.2,0.8-6.7-0.2-9-2.6c-10.9-10.2-26.9-16-42.9-16c-12.7,0.1-25.2,3.9-35.8,11c-2.9,1.8-6.5,2-9.6,0.6
	c-9.4-5.1-20-7.7-30.7-7.7c-21.4,0.1-41.5,10.6-53.8,28.2c-1.9,2.6-5.1,4.5-8.3,3.8h-2.6c-1.7,0.1-3.5-0.1-5.1-0.6
	c-2.7-0.8-5.5-1.2-8.3-1.3c-12.2,0-26.2,6.4-36.5,16.6c-9.6,9.6-15.4,21.8-15.4,33.9c-0.1,4.6-3.3,8.5-7.7,9.6
	c-25,5.1-43.5,32.6-46.7,71c-3.2,33.9,10.2,74.9,56.3,85.8c6.1,1.3,12.3,1.9,18.6,1.9c16.6,0,30.1-5.1,36.5-9.6
	c3.6-2.4,8.3-2.1,11.5,0.6c2.9,2.4,5.7,5,8.3,7.7c7.7,7.7,12.8,12.8,28.2,14.1c14.7,1.3,21.1-3.2,30.1-10.2c1.9-1.3,3.8-3.2,5.8-4.5
	c4.1-2.5,9.3-2,12.8,1.3l2.6,3.2c6.4,7.7,10.9,12.8,25.6,17.9c5.8,1.9,10.9,1.9,16.6,2.6c12.2,0.6,30.7,1.3,30.7,30.1v71
	L379.3,520.5L379.3,520.5z"/>
<path class="st0" d="M412.6,539.7c-5.2-0.1-9.5-4.4-9.6-9.6v-60.8c0-29.4,10.2-52.5,30.1-64.6c5.8-3.8,11.5-5.8,17.3-8.3
	c12.2-5.1,21.8-9.6,26.9-21.8c1.9-5.1,7.7-7,12.8-4.5c5.1,1.9,7,7.7,4.5,12.8c-8.3,19.2-23.7,25.6-37.1,31.4
	c-5.1,2.6-10.2,4.5-14.7,7c-17.9,10.9-21.1,32-21.1,48v60.8C422.2,535.2,417.7,539.7,412.6,539.7z"/>
<path class="st0" d="M347.9,391.9c-1.9,0-3.2-0.6-5.1-1.3c-4.5-2.5-6.1-8.3-3.6-12.8c0.1-0.2,0.3-0.4,0.4-0.7
	c6.4-10.9,6.4-26.2,3.8-48c-0.2-3-0.7-6-1.3-9c-5.1-25-7-42.2,3.2-48c5.8-3.2,12.8-1.3,20.5,5.8c5.8,5.1,18.6,9,26.2,9h0.6
	c30.7,0.6,52.5,28.8,52.5,68.5c0.1,3-1.4,5.9-3.8,7.7c-2.6,1.9-5.8,2.6-8.3,1.3c-4.1-1.3-8.5-1.9-12.8-1.9
	c-6.7,0.3-13.1,2.5-18.6,6.4c-4.5,3.2-10.2,2.6-13.4-1.9s-2.6-10.2,1.9-13.4c8.3-6.4,19.8-10.2,29.4-10.2h5.1
	c-3.2-19.8-13.4-37.8-32.6-37.8h-0.6c-10.2,0-25-3.8-34.6-10.9c0.6,7,2.6,16.6,3.2,21.1c0.4,3.5,1,6.9,1.9,10.2
	c2.6,20.5,3.8,42.2-6.4,59.5C354.3,390,351.1,391.9,347.9,391.9z"/>
<path class="st0" d="M279.5,374L279.5,374c-5.2,0.1-9.5-4-9.6-9.3c0-0.1,0-0.2,0-0.3c0.6-20.5,13.4-35.8,23-46.1
	c-2-3.1-3.7-6.3-5.1-9.6c-9,3.2-19.2,4.5-28.8,2.6c-1.3,0-2.6-0.6-3.8-0.6c-11.5,26.9-39.7,44.2-67.8,39.7h-0.6
	c-8.3-1.3-16.6,0-26.2,3.8c-5.1,1.9-10.2-0.6-12.2-5.8s0.6-10.2,5.8-12.2c8.3-3.2,20.5-7,35.8-4.5h0.6c21.8,3.2,43.5-12.2,49.9-35.2
	c0.6-2.6,2.6-5.1,5.1-5.8c2.4-1.2,5.1-1.4,7.7-0.6c3.1,1.2,6.3,2,9.6,2.6c9.3,1.2,18.7-0.6,26.9-5.1c2.6-1.3,5.8-1.9,8.3-0.6
	s5.1,3.8,5.8,6.4c1.8,7.3,5.3,14.1,10.2,19.8c3.2,3.8,3.2,9.6-0.6,12.8l-1.9,1.9c-7.7,7.7-21.1,20.5-21.8,37.1
	C289,370.1,284.6,373.9,279.5,374z"/>
<path class="st0" d="M206.5,292c-2.4,0.1-4.7-0.8-6.4-2.6c-12.2-10.9-34.6-4.5-41-1.9c-5.1,1.9-10.2-0.6-12.2-5.8s0.6-10.2,5.8-12.2
	c9.6-3.2,30.7-9,48.6-1.3c3.2-12.2,1.3-24.3-4.5-35.2c-2.6-4.5-0.6-10.2,3.8-12.8s10.2-0.6,12.8,3.8c10.9,19.2,10.9,42.9,1.3,62.7
	c-1.4,2.7-4,4.6-7,5.1L206.5,292L206.5,292z"/>
<path class="st0" d="M410.7,262.6h-1.3c-30.7-3.8-61.4-30.1-60.2-80c0-5.3,4.3-9.6,9.6-9.6c5.3,0,9.6,4.3,9.6,9.6l0,0
	c-0.6,29.4,12.2,51.2,33.9,58.2c2.6-14.1,7.7-26.2,18.6-37.8c3.5-3.9,9.5-4.2,13.4-0.7s4.2,9.5,0.7,13.4c-0.2,0.2-0.4,0.4-0.6,0.6
	c-9,9-12.8,19.2-15.4,37.1C419.6,258.8,415.8,262.6,410.7,262.6z"/>
<path class="st0" d="M515,351.6c-1.9,0-3.2-0.6-5.1-1.3c-3.8-2.6-17.3-5.1-26.9-3.8c-2.8,0.6-5.7-0.4-7.7-2.6
	c-1.9-1.9-3.2-5.1-2.6-7.7c1.3-11.5-1.3-23-7-35.2c0-0.6-0.6-0.6-0.6-1.3c-2.6-5.1-5.8-9.8-9.6-14.1c-1.8-1.9-2.7-4.4-2.6-7
	c0.1-2.8,1.5-5.4,3.8-7c14.1-10.9,21.8-21.8,24.3-32.6c0.6-4.9,5.1-8.4,10-7.8c0.3,0,0.6,0.1,0.8,0.1c5.1,1.3,9,5.8,7.7,10.9
	c-2.6,13.4-10.2,25.6-23.7,37.8c2.6,3.7,4.9,7.5,7,11.5c0,0.6,0.6,0.6,0.6,1.3c5.8,10.9,9,22.4,9,33.9c10.2,0.6,21.1,3.2,27.5,6.4
	c4.5,2.6,6.4,8.3,3.2,12.8C521.4,349.6,518.2,351.6,515,351.6z"/>
<path class="st0" d="M282,270.9c-4.6-0.1-8.5-3.3-9.6-7.7c-1.9-7.7-2.6-15.7-1.9-23.7v-1.3c0.6-11.8,3.6-23.4,9-33.9
	c-9-5.8-16.6-12.8-20.5-19.2c-2.9-4.6-1.5-10.6,3-13.5c4.6-2.9,10.6-1.5,13.5,3c0,0.1,0.1,0.1,0.1,0.2c2.6,3.8,12.2,12.8,21.1,16.6
	c2.7,1.3,4.7,3.6,5.8,6.4c0.5,2.8,0.1,5.8-1.3,8.3c-7,9.6-10.9,20.5-11.5,33.9v1.3c0,5.8,0.6,11.6,1.9,17.3c1.2,5.1-1.9,10.3-7,11.5
	C283.8,270.7,282.9,271,282,270.9z"/>
</svg>
