<svg height="100" viewBox="0 0 220 100" width="220" xmlns="http://www.w3.org/2000/svg"><g fill="#fff" fill-rule="evenodd" transform="translate(96 20)"><path d="m26.8627123 31.2192495-22.97789426.7510861-.85337378-27.60303412 22.97829684-.75108606zm-11.485123 5.4795331c-.8839665.0293975-1.6234229-.6844241-1.6516003-1.5936771-.0281775-.9096671.6657925-1.6702763 1.5497589-1.6992598.884369-.0289835 1.6238255.6852522 1.6516004 1.5945052.0281774.909253-.6653901 1.6698622-1.549759 1.6984317zm10.5206496-36.69722064-22.97829678.75150012c-1.66488396.05465455-2.97151193 1.48685229-2.91837734 3.19936165l.98983309 32.04413067c.05313459 1.7120953 1.44550248 3.0561004 3.11038643 3.0018599l22.9782968-.751086c1.6644814-.0546546 2.9711094-1.4868523 2.9183773-3.1993617l-.9902356-32.04454467c-.0531346-1.71168126-1.4455025-3.05568643-3.1099839-3.00185997z"/><path d="m21 15.8577933-1.7721418-1.8577933-5.0475383 6.1601634-2.5178658-2.5015957-1.6624541 1.9807668 4.2892459 4.3606655z"/><path d="m29 21-.5463677-18.00336521c-.0520726-1.70821283-1.416611-3.04917023-3.0478242-2.99505272l-22.4058081.74607796 3.15907022 3.48169715 19.35601138-.62173163.4453784 14.67080105z"/></g></svg>