<?xml version="1.0" encoding="UTF-8"?>
<svg width="220px" height="100px" viewBox="0 0 220 100" version="1.1" xmlns="http://www.w3.org/2000/svg" xmlns:xlink="http://www.w3.org/1999/xlink">
    <!-- Generator: Sketch 45.2 (43514) - http://www.bohemiancoding.com/sketch -->
    <title>icon-gloeilamp-card-bg</title>
    <desc>Created with Sketch.</desc>
    <defs></defs>
    <g id="Page-1" stroke="none" stroke-width="1" fill="none" fill-rule="evenodd">
        <g id="icon-gloeilamp-card-bg">
            <g id="icon-gloeilamp" transform="translate(74.527865, 19.039062)" fill="#000000">
                <g id="shape2" transform="translate(17.085106, 0.000000)">
                    <path d="M32.5998442,19.7487779 C32.5998442,12.5586889 26.6121177,6.71074977 19.3888286,7.09422119 C12.9258857,7.38182475 7.6034622,12.7504246 7.31833237,19.1735708 C7.22328909,22.4330778 8.26876514,25.596717 10.3597172,27.9934133 C12.3556261,30.2942418 13.4011021,33.457881 13.4011021,36.8132559 L13.4011021,37.388463 C13.4011021,37.9636701 13.7812752,38.3471415 14.3515349,38.3471415 L25.4715984,38.3471415 C26.041858,38.3471415 26.4220311,37.9636701 26.4220311,37.388463 L26.4220311,36.717388 C26.4220311,33.5537489 27.5625505,30.4859775 29.7485459,27.7058098 C31.5543681,25.5008491 32.5998442,22.7206814 32.5998442,19.7487779 Z M24.6162089,36.4297845 L15.397011,36.4297845 C15.3019677,32.786806 14.0664051,29.3355633 11.8804097,26.7471312 C10.0745874,24.6380384 9.21919792,21.9537385 9.31424119,19.2694386 C9.59937103,13.7091031 14.0664051,9.20331397 19.4838719,8.91571041 C25.6616849,8.62810685 30.6989786,13.6132352 30.6989786,19.7487779 C30.6989786,22.2413421 29.8435891,24.5421706 28.3228967,26.5553955 C25.9468148,29.527299 24.6162089,32.9785417 24.6162089,36.4297845 Z" id="Shape" fill-rule="nonzero"></path>
                    <path d="M25.4715984,40.5521022 L14.731708,40.5521022 C14.1614483,40.5521022 13.7812752,40.9355736 13.7812752,41.5107807 C13.7812752,42.0859878 14.1614483,42.4694593 14.731708,42.4694593 L25.4715984,42.4694593 C26.041858,42.4694593 26.4220311,42.0859878 26.4220311,41.5107807 C26.4220311,40.9355736 26.041858,40.5521022 25.4715984,40.5521022 Z" id="Shape" fill-rule="nonzero"></path>
                    <path d="M23.5707328,44.0992128 L16.6325736,44.0992128 C16.0623139,44.0992128 15.6821408,44.4826842 15.6821408,45.0578913 C15.6821408,45.6330984 16.0623139,46.0165699 16.6325736,46.0165699 L23.5707328,46.0165699 C24.1409925,46.0165699 24.5211656,45.6330984 24.5211656,45.0578913 C24.5211656,44.4826842 24.1409925,44.0992128 23.5707328,44.0992128 Z" id="Shape" fill-rule="nonzero"></path>
                    <path d="M19.9590883,5.56033552 C20.5293479,5.56033552 20.909521,5.17686411 20.909521,4.60165699 L20.909521,0.958678539 C20.909521,0.383471415 20.5293479,0 19.9590883,0 C19.3888286,0 19.0086555,0.383471415 19.0086555,0.958678539 L19.0086555,4.60165699 C19.0086555,5.17686411 19.3888286,5.56033552 19.9590883,5.56033552 Z" id="Shape" fill-rule="nonzero"></path>
                    <path d="M30.4138488,10.0661247 C30.6989786,10.0661247 30.8890652,9.9702568 31.0791517,9.77852109 L33.550277,7.19008904 C33.9304501,6.80661762 33.9304501,6.2314105 33.550277,5.84793909 C33.1701038,5.46446767 32.5998442,5.46446767 32.2196711,5.84793909 L29.7485459,8.43637114 C29.3683727,8.81984256 29.3683727,9.39504968 29.7485459,9.77852109 C29.9386324,9.9702568 30.2237622,10.0661247 30.4138488,10.0661247 Z" id="Shape" fill-rule="nonzero"></path>
                    <path d="M8.83902481,30.198374 L6.36789959,32.786806 C5.98772648,33.1702774 5.98772648,33.7454846 6.36789959,34.128956 C6.55798615,34.3206917 6.7480727,34.4165595 7.03320253,34.4165595 C7.31833237,34.4165595 7.50841892,34.3206917 7.69850548,34.128956 L10.1696307,31.5405239 C10.5498038,31.1570525 10.5498038,30.5818454 10.1696307,30.198374 C9.78945758,29.7190347 9.21919792,29.8149026 8.83902481,30.198374 Z" id="Shape" fill-rule="nonzero"></path>
                    <path d="M38.3024408,18.9818351 L34.7858396,18.9818351 C34.2155799,18.9818351 33.8354068,19.3653065 33.8354068,19.9405136 C33.8354068,20.5157207 34.2155799,20.8991921 34.7858396,20.8991921 L38.3024408,20.8991921 C38.8727005,20.8991921 39.2528736,20.5157207 39.2528736,19.9405136 C39.2528736,19.3653065 38.7776572,18.9818351 38.3024408,18.9818351 Z" id="Shape" fill-rule="nonzero"></path>
                    <path d="M5.13233698,18.9818351 L1.61573572,18.9818351 C1.04547605,18.9818351 0.665302942,19.3653065 0.665302942,19.9405136 C0.665302942,20.5157207 1.04547605,20.8991921 1.61573572,20.8991921 L5.13233698,20.8991921 C5.70259665,20.8991921 6.08276976,20.5157207 6.08276976,19.9405136 C6.08276976,19.3653065 5.70259665,18.9818351 5.13233698,18.9818351 Z" id="Shape" fill-rule="nonzero"></path>
                    <path d="M31.0791517,30.198374 C30.6989786,29.8149026 30.128719,29.8149026 29.7485459,30.198374 C29.3683727,30.5818454 29.3683727,31.1570525 29.7485459,31.5405239 L32.2196711,34.128956 C32.4097576,34.3206917 32.6948875,34.4165595 32.884974,34.4165595 C33.1701038,34.4165595 33.3601904,34.3206917 33.550277,34.128956 C33.9304501,33.7454846 33.9304501,33.1702774 33.550277,32.786806 L31.0791517,30.198374 Z" id="Shape" fill-rule="nonzero"></path>
                    <path d="M8.83902481,9.77852109 C9.02911136,9.9702568 9.31424119,10.0661247 9.50432775,10.0661247 C9.78945758,10.0661247 9.97954414,9.9702568 10.1696307,9.77852109 C10.5498038,9.39504968 10.5498038,8.81984256 10.1696307,8.43637114 L7.69850548,5.84793909 C7.31833237,5.46446767 6.7480727,5.46446767 6.36789959,5.84793909 C5.98772648,6.2314105 5.98772648,6.80661762 6.36789959,7.19008904 L8.83902481,9.77852109 Z" id="Shape" fill-rule="nonzero"></path>
                </g>
            </g>
            <g id="Group"></g>
        </g>
    </g>
</svg>