<svg viewBox="0 0 12 20" xmlns="http://www.w3.org/2000/svg"><path d="m297 428.8.42 2.7h.09l.42-2.7.2-4.45h-1.31zm6-7.15a.61.61 0 0 0 -.07-.19v-.06a.44.44 0 0 0 -.13-.11h-.09-.09-.11-.12-.13-.14l-.12-.29h-.17-.21l-.33-.07h-.09l-.2-.06-.19-.08-.17-.11-.16-.13-.13-.15-.11-.17a1.18 1.18 0 0 1 -.08-.18 1.36 1.36 0 0 1 0-.19c0-.07 0-.13 0-.2a.42.42 0 0 1 0 0 .22.22 0 0 0 0 0 .28.28 0 0 0 0 0s0 0 0 0 0 0 0-.06 0 0 0-.07v-.4s0-.08 0-.12 0-.08 0-.13 0-.09 0-.13 0-.09 0-.13v-1.12c0-.05 0-.1 0-.15v-.45s0-.1 0-.15v-.69s0-.08 0-.12 0-.08 0-.11 0-.07 0-.11 0-.06 0-.1 0-.06 0-.09v-.09s0-.05 0-.08 0-.09 0-.14a.26.26 0 0 1 0-.14v-.06l.05-.11a1.21 1.21 0 0 1 .14-.2l.17-.18a1.17 1.17 0 0 1 .2-.15l.13-.07.19-.07h.14.06.08.08.09l.13-.08a.53.53 0 0 0 .16-.3l.45-1.77a.43.43 0 0 0 -.45-.41h-8a.43.43 0 0 0 -.45.41l.45 1.77a.52.52 0 0 0 .16.3h.05l.13.08h.09.08.08.06.14l.19.07.13.07a1.2 1.2 0 0 1 .2.15l.17.18a1.17 1.17 0 0 1 .14.2l.05.11v.06a.24.24 0 0 1 0 .14v.4s0 .06 0 .1 0 .07 0 .11v.36s0 .09 0 .13 0 .09 0 .14 0 .09 0 .14 0 .1 0 .15v.45.15.45s0 .1 0 .14v.14s0 .09 0 .14 0 .09 0 .14v.13s0 .09 0 .13 0 .08 0 .13v.25s0 .07 0 .1 0 .06 0 .09 0 .06 0 .08v.07s0 0 0 .06v.09a.41.41 0 0 1 0 0v.2a1.48 1.48 0 0 1 0 .19 1.12 1.12 0 0 1 -.08.18l-.11.17-.13.15-.16.13-.17.11-.19.08-.21.06h-.09l-.33.07h-.21l-.77.17h-.16-.14-.13-.12-.11-.09-.09a.44.44 0 0 0 -.13.11v.06a.6.6 0 0 0 -.08.19l-.45 1.77a.43.43 0 0 0 .45.41h11.11a.43.43 0 0 0 .45-.41z" fill="#fff" transform="translate(-291.5 -411.5)"/></svg>