<?xml version="1.0" encoding="UTF-8" standalone="no"?>
<svg width="220px" height="100px" viewBox="0 0 220 100" version="1.1" xmlns="http://www.w3.org/2000/svg" xmlns:xlink="http://www.w3.org/1999/xlink">
    <!-- Generator: Sketch 44.1 (41455) - http://www.bohemiancoding.com/sketch -->
    <title>icon-default-card-bg</title>
    <desc>Created with Sketch.</desc>
    <defs></defs>
    <g id="Page-1" stroke="none" stroke-width="1" fill="none" fill-rule="evenodd">
        <g id="icon-default-card-bg" fill="#FFFFFF">
            <path d="M109,57 C99.0588745,57 91,48.9411255 91,39 C91,29.0588745 99.0588745,21 109,21 C118.941125,21 127,29.0588745 127,39 C127,48.9411255 118.941125,57 109,57 Z M106.784,42.792 L109.824,42.792 L109.824,41.48 C109.824,37.64 115.488,37.096 115.488,31.816 C115.488,28.264 112.416,25.96 108.8,25.96 C105.312,25.96 103.2,28.008 103.2,28.008 L104.928,30.216 C104.928,30.216 106.56,28.872 108.576,28.872 C110.688,28.872 112.224,30.248 112.224,32.04 C112.224,35.72 106.784,36.424 106.784,41.288 L106.784,42.792 Z M106.72,49 L109.888,49 L109.888,45.896 L106.72,45.896 L106.72,49 Z" id="Combined-Shape"></path>
        </g>
    </g>
</svg>