<svg height="40" viewBox="0 0 76 40" width="76" xmlns="http://www.w3.org/2000/svg"><g fill="none" fill-rule="evenodd" transform="translate(15 5)"><path d="m6.3 3v22h13.1v1c.0193544.3886234.2007139.7513424.5 1 .2485795.1250496.5218183.1933593.8.2h6.2c.2781817-.0066407.5514205-.0749504.8-.2.3172852-.2339495.5032115-.6058021.5-1v-1h13.1v-22zm21.2 23c-.0369986.4095039-.3892087.7176877-.8.7h-6.2c-.4107913.0176877-.7630014-.2904961-.8-.7v-1h7.7v1zm11.9-2.3h-31.5v-19.4h31.5z"/><g fill="#fff"><path d="m19.9 26c.0369986.4095039.3892087.7176877.8.7h6.2c.4107913.0176877.7630014-.2904961.8-.7v-1h-7.7v1z"/><path d="m45.2 25h-2.1v-22c.0291104-.55671931-.1864605-1.09837064-.5901528-1.48283952-.4036924-.38446887-.955209-.57337715-1.5098472-.51716048h-34.8c-.54753721-.02741158-1.08232288.17113771-1.47931191.5492225-.39698903.37808478-.62137382.90255499-.62068809 1.4507775v22h-2.1c-.27030296-.0178819-.53517976.0817185-.72673061.2732694-.19155084.1915508-.29115133.4564276-.27326939.7267306-.00045195.8132826.32930858 1.5918994.91373525 2.1574736.58442668.5655742 1.37343402.8696359 2.18626475.8425264h38.9c1.6737786.0008711 3.0460074-1.3270922 3.1-3 .0431077-.2583193-.0338406-.5222045-.2090368-.7168669-.1751961-.1946624-.429546-.2988863-.6909632-.2831331zm-17.1 0v1c.0032115.3941979-.1827148.7660505-.5 1-.2485795.1250496-.5218183.1933593-.8.2h-6.1c-.2781817-.0066407-.5514205-.0749504-.8-.2-.3172852-.2339495-.5032115-.6058021-.5-1v-1h-13.1v-22h34.8v22z"/><path d="m7.9 4.3v19.4h31.5v-19.4zm15.6 15.7-6.3-5.9 1.6-1.2 3.6 2.7c2.7433651-2.9530745 5.9114932-5.4808364 9.4-7.5l.4.8c-3.6259764 3.0686071-6.5865542 6.8458959-8.7 11.1z"/></g></g></svg>