<?xml version="1.0" encoding="UTF-8" standalone="no"?>
<svg width="220px" height="100px" viewBox="0 0 220 100" version="1.1" xmlns="http://www.w3.org/2000/svg" xmlns:xlink="http://www.w3.org/1999/xlink">
    <!-- Generator: Sketch 44.1 (41455) - http://www.bohemiancoding.com/sketch -->
    <title>icon-informatieveiligheid-card-bg</title>
    <desc>Created with Sketch.</desc>
    <defs></defs>
    <g id="Page-1" stroke="none" stroke-width="1" fill="none" fill-rule="evenodd">
        <g id="icon-informatieveiligheid-card-bg">
            <g id="icon-informatieveiligheid" transform="translate(87.000000, 27.000000)" fill="#FFFFFF">
                <path d="M28.3290241,23.9656081 L28.3290241,24.6568588 C28.3290241,25.5281703 27.6168882,26.2345079 26.7430105,26.2345079 L20.8395805,26.2345079 C19.9636493,26.2345079 19.2535669,25.5270791 19.2535669,24.6568588 L19.2535669,23.9656081 L9.58782958,23.9656081 C8.71089552,23.9656081 8,23.2594446 8,22.3870888 L8,2.57851925 C8,1.70672714 8.71143891,1 9.58782958,1 L37.9947614,1 C38.8716954,1 39.5825909,1.70616347 39.5825909,2.57851925 L39.5825909,22.3870888 C39.5825909,23.258881 38.871152,23.9656081 37.9947614,23.9656081 L28.3290241,23.9656081 Z M14.7763414,27.7374927 C14.7763414,27.0402292 15.3444929,26.4749855 16.0454642,26.4749855 L31.6581328,26.4749855 C32.35905,26.4749855 32.9272557,27.041648 32.9272557,27.7374927 C32.9272557,28.4347563 32.3591041,29 31.6581328,29 L16.0454642,29 C15.344547,29 14.7763414,28.4333375 14.7763414,27.7374927 Z M11.9932012,6.06387995 L11.9932012,18.6612506 C11.9932012,19.530806 12.7032497,20.2382057 13.5791391,20.2382057 L34.3664702,20.2382057 C35.2418569,20.2382057 35.9524081,19.5321789 35.9524081,18.6612506 L35.9524081,6.06387995 C35.9524081,5.19432457 35.2423595,4.48692479 34.3664702,4.48692479 L13.5791391,4.48692479 C12.7037523,4.48692479 11.9932012,5.19295166 11.9932012,6.06387995 Z" id="beeldscherm"></path>
                <path d="M26.5539551,11.8639517 C27.374996,12.0041873 28,12.7200847 28,13.5799427 L28,16.1169633 C28,17.0784257 27.2183603,17.857845 26.2591877,17.857845 L21.7408123,17.857845 C20.7793882,17.857845 20,17.0771644 20,16.1169633 L20,13.5799427 C20,12.7522472 20.5792728,12.0594639 21.3524034,11.8827133 L21.3524034,10.6016178 C21.3524034,9.16478399 22.5164946,8 23.9531793,8 C25.3895481,8 26.5539551,9.16549583 26.5539551,10.6016178 L26.5539551,11.8639517 Z M22.3964316,10.5997923 L22.3964316,11.7035761 L25.4133316,11.7035761 L25.4133316,10.5997923 C25.4133316,9.76562829 24.7379755,9.0892871 23.9048816,9.0892871 C23.0734829,9.0892871 22.3964316,9.7655633 22.3964316,10.5997923 Z M23.5370552,14.9515488 L23.5370552,14.9515488 L23.5370552,15.7694233 C23.5370552,16.0881388 23.7932247,16.3424202 24.1092258,16.3424202 C24.424584,16.3424202 24.6813965,16.0858808 24.6813965,15.7694233 L24.6813965,14.882573 C24.9340768,14.6923228 25.0975207,14.3894216 25.0975207,14.0482547 C25.0975207,13.4723307 24.6317579,13.0054521 24.0572103,13.0054521 C23.4826628,13.0054521 23.0169,13.4723307 23.0169,14.0482547 C23.0169,14.4342388 23.2261057,14.7712433 23.5370552,14.9515488 Z" id="slotje"></path>
            </g>
            <g id="Group"></g>
        </g>
    </g>
</svg>