<?xml version="1.0" encoding="UTF-8" standalone="no"?>
<svg width="220px" height="100px" viewBox="0 0 220 100" version="1.1" xmlns="http://www.w3.org/2000/svg" xmlns:xlink="http://www.w3.org/1999/xlink">
    <!-- Generator: Sketch 3.6.1 (26313) - http://www.bohemiancoding.com/sketch -->
    <title>icon-interndraagvlak-card-bg</title>
    <desc>Created with Sketch.</desc>
    <defs></defs>
    <g id="Page-1" stroke="none" stroke-width="1" fill="none" fill-rule="evenodd">
        <g id="icon-interndraagvlak-card-bg" fill="#FFFFFF">
            <g id="icon-interndraagvlak" transform="translate(71.000000, 21.000000)">
                <path d="M75.8,26.2 C74.3,21.2 71.7,21 71.1,20.9 C70,20.6 68.6,20.7 67.8,20.5 C67.7,21.6 65.6,22.4 63.1,22.4 C60.6,22.4 58.5,21.5 58.4,20.5 C57.7,20.7 56.3,20.6 55.1,20.9 C54.0512181,21.0657993 53.0948464,21.5971169 52.4,22.4 C54.1135814,24.0264082 55.3277392,26.1078215 55.9,28.4 C56.0826948,29.1188877 56.1167228,29.8675024 56,30.6 C58.3480697,30.9689034 60.7234033,31.1361804 63.1,31.1 C68.2,31.1 74.4,30.4 75.6,28.2 C75.9118986,27.5810629 75.9831606,26.868443 75.8,26.2 L75.8,26.2 Z M57.2,15.2 C57.7444695,16.6409114 58.5590546,17.9646122 59.6,19.1 C60.1770245,19.6577144 60.856056,20.0990849 61.6,20.4 C62.56,20.8 63.64,20.8 64.6,20.4 C65.3478099,20.0615611 66.026042,19.5867986 66.6,19 C67.6600043,17.9175291 68.478048,16.6222934 69,15.2 C69.5764245,14.7715057 69.9407102,14.1157914 70,13.4 C70.2,12.4 70,11.4 69.6,11.3 L69.6,10.5 C69.6,6.7 67.4,4.2 63.8,4 C60.7,3.8 58.4,5 57.4,7 C56.9802936,7.87237775 56.774608,8.83224402 56.8,9.8 C56.6843709,10.2922437 56.6173825,10.7946568 56.6,11.3 L56.6,11.3 C56.2,11.4 55.9,12.3 56.1,13.4 C56.1883953,14.1310904 56.5897358,14.7878294 57.2,15.2 L57.2,15.2 Z M57.3,12.3 C57.3295581,12.1796997 57.4003221,12.0735537 57.5,12 L57.6,12 C57.7099251,11.9867685 57.8199988,12.0234597 57.9,12.1 L57.9,12.1 C57.9,11.8 58.3,9.3 60.7,9.5 C61.9887655,9.957895 63.389964,9.99292496 64.7,9.6 L65.3,9.6 C65.982887,9.66651836 66.6371838,9.90757509 67.2,10.3 C67.1467323,10.0630448 67.0799566,9.82932984 67,9.6 C67.1,9.6 67.2,9.7 67.3,9.7 C67.8613976,10.3955485 68.2395786,11.2206707 68.4,12.1 L68.4,12.1 C68.4519047,12.0429464 68.5232143,12.0072916 68.6,12 L68.7,12 C69.0618306,12.369649 69.1785942,12.9145457 69,13.4 C68.9335543,13.8347524 68.7619127,14.2466922 68.5,14.6 C68.4199988,14.6765403 68.3099251,14.7132315 68.2,14.7 C68.1447715,14.7 68.1,14.6552285 68.1,14.6 C67.6328517,16.1260408 66.7289807,17.4818474 65.5,18.5 C64.8427611,19.0270258 64.0403799,19.3410011 63.2,19.4 C62.3688214,19.3788555 61.5648891,19.0992268 60.9,18.6 C59.6466889,17.562127 58.739682,16.1667319 58.3,14.6 L58.2,14.7 C58.0900749,14.7132315 57.9800012,14.6765403 57.9,14.6 C57.6365868,14.2855089 57.4637422,13.9052507 57.4,13.5 L57.4,13.4 C57.3172033,13.0395223 57.2835648,12.6694987 57.3,12.3 L57.3,12.3 Z M24.5,22.3 C23.7917499,21.5137844 22.8417115,20.9859852 21.8,20.8 C20.7,20.5 19.3,20.6 18.5,20.4 C18.4,21.5 16.3,22.3 13.8,22.3 C11.3,22.3 9.2,21.4 9.1,20.4 C8.4,20.6 7,20.5 5.8,20.8 C5.2,20.9 2.5,21.1 1.1,26.1 C0.911917299,26.7680205 0.983360427,27.4824518 1.3,28.1 C2.5,30.3 8.8,31 13.8,31 C16.1765967,31.0361804 18.5519303,30.8689034 20.9,30.5 C20.7832772,29.7675024 20.8173052,29.0188877 21,28.3 C21.5323836,25.9918075 22.7528503,23.8995789 24.5,22.3 L24.5,22.3 Z M7.9,15.2 C8.44446951,16.6409114 9.25905461,17.9646122 10.3,19.1 C10.8770245,19.6577144 11.556056,20.0990849 12.3,20.4 C13.26,20.8 14.34,20.8 15.3,20.4 C16.0478099,20.0615611 16.726042,19.5867986 17.3,19 C18.3600043,17.9175291 19.178048,16.6222934 19.7,15.2 C20.2764245,14.7715057 20.6407102,14.1157914 20.7,13.4 C20.9,12.4 20.7,11.4 20.3,11.3 L20.3,10.5 C20.3,6.7 18.1,4.2 14.5,4 C11.4,3.8 9.1,5 8.1,7 C7.68029361,7.87237775 7.47460798,8.83224402 7.5,9.8 C7.38437095,10.2922437 7.31738253,10.7946568 7.3,11.3 L7.3,11.3 C6.9,11.4 6.6,12.3 6.8,13.4 C6.88839533,14.1310904 7.28973582,14.7878294 7.9,15.2 L7.9,15.2 Z M8,12.3 C8.0295581,12.1796997 8.10032209,12.0735537 8.2,12 L8.3,12 C8.40992511,11.9867685 8.51999883,12.0234597 8.6,12.1 L8.6,12.1 C8.6,11.8 9,9.3 11.4,9.5 C12.6887655,9.957895 14.089964,9.99292496 15.4,9.6 L16,9.6 C16.682887,9.66651836 17.3371838,9.90757509 17.9,10.3 C17.8467323,10.0630448 17.7799566,9.82932984 17.7,9.6 C17.8,9.6 17.9,9.7 18,9.7 C18.5613976,10.3955485 18.9395786,11.2206707 19.1,12.1 L19.1,12.1 C19.1519047,12.0429464 19.2232143,12.0072916 19.3,12 L19.4,12 C19.7668075,12.3721438 19.8479349,12.9400359 19.6,13.4 C19.5335543,13.8347524 19.3619127,14.2466922 19.1,14.6 C19.0199988,14.6765403 18.9099251,14.7132315 18.8,14.7 C18.7447715,14.7 18.7,14.6552285 18.7,14.6 C18.2328517,16.1260408 17.3289807,17.4818474 16.1,18.5 C15.4427611,19.0270258 14.6403799,19.3410011 13.8,19.4 C12.9688214,19.3788555 12.1648891,19.0992268 11.5,18.6 C10.2466889,17.562127 9.33968205,16.1667319 8.9,14.6 L8.8,14.7 C8.69007489,14.7132315 8.58000117,14.6765403 8.5,14.6 C8.23658684,14.2855089 8.0637422,13.9052507 8,13.5 L8,13.4 C7.94997404,13.0350396 7.94997404,12.6649604 8,12.3 L8,12.3 Z M48.4,22.2 C48.2900749,22.2132315 48.1800012,22.1765403 48.1,22.1 C45.9,20.1 47.4,11.6 47.4,11.6 C47.4,0.8 41.3,0 39.3,0 L37.5,0 C35.5,0 29.4,0.9 29.4,11.6 C29.4,11.6 30.9,20.1 28.7,22.1 C28.5900749,22.0867685 28.4800012,22.1234597 28.4,22.2 C27.7,22.4 24.3,22.6 22.5,28.8 C22.2621241,29.6300968 22.3331786,30.518279 22.7,31.3 C24.2,34.1 32,35 38.4,35 L38.4,35 C44.7,35 52.6,34.1 54.1,31.3 C54.5122106,30.5309702 54.5847056,29.6247831 54.3,28.8 C52.5,22.6 49.1,22.3 48.4,22.2 L48.4,22.2 Z M44.3,21.7 C44.2883159,21.9620204 44.1816809,22.2108353 44,22.4 C42.5735508,23.9915739 40.5372564,24.9009961 38.4,24.9009961 C36.2627436,24.9009961 34.2264492,23.9915739 32.8,22.4 C32.6024755,22.2217438 32.4928582,21.9659703 32.5,21.7 L32.5,21.7 C32.6333333,21.6333334 32.7666667,21.5666667 32.9,21.5 C33.600664,21.2200912 34.0708857,20.5539439 34.1,19.8 L34.1,19.8 C34.8429419,20.4893635 35.6857905,21.0625006 36.6,21.5 C37.2066301,21.7382397 37.8488068,21.8734348 38.5,21.9 C39.1554474,21.9122156 39.8051126,21.775444 40.4,21.5 C41.3346404,21.098897 42.1833953,20.5217437 42.9,19.8 L42.9,19.8 C42.9034313,20.6705258 43.4695628,21.438847 44.3,21.7 L44.3,21.7 L44.3,21.7 Z M45.7,12.9 C45.6341974,13.4623099 45.3887001,13.9883756 45,14.4 C44.9199988,14.4765403 44.8099251,14.5132315 44.7,14.5 L44.6,14.5 C44.5191857,14.5105286 44.4400657,14.4709686 44.4,14.4 C43.8185664,16.3283954 42.6683639,18.0362719 41.1,19.3 C40.2915582,19.9942548 39.2655017,20.3834487 38.2,20.4 C37.1377862,20.3666257 36.117138,19.9794833 35.3,19.3 C33.7611574,18.0094395 32.6173957,16.3111268 32,14.4 C31.9,14.4 31.9,14.5 31.8,14.5 L31.7,14.5 C31.5796997,14.4704419 31.4735537,14.3996779 31.4,14.3 C31.0641979,13.9040202 30.8551564,13.4162566 30.8,12.9 C30.6534496,12.2840848 30.7616149,11.6350926 31.1,11.1 C31.1265216,11.1 31.151957,11.0894643 31.1707107,11.0707107 C31.1894643,11.051957 31.2,11.0265216 31.2,11 L31.2,11 C31.3099251,10.9867685 31.4199988,11.0234597 31.5,11.1 L31.5,11.1 L31.5,11 C31.6,10.3 32.1,7 34.7,7 L35,7 L44.2,11.7 L44.9,11 L45,11 C45.6939303,11.3531518 45.9989461,12.1810516 45.7,12.9 L45.7,12.9 Z" id="Shape"></path>
            </g>
        </g>
    </g>
</svg>