<svg height="100" viewBox="0 0 220 100" width="220" xmlns="http://www.w3.org/2000/svg"><path d="m4.53384226 18.0622922h-4.53384226v-2.5069141h4.52819964c-.03197483.4128469-.06206878.8295432-.06206878 1.2625994 0 .4253574.03197483.8372419.0677114 1.2443147zm2.10375547 6.7191073-4.20845138 1.9372047-1.00438572-2.2865367 4.1802383-1.9227694c.30940346.7910493.66300742 1.5455294 1.0325988 2.2721014zm23.41309617-2.1113895 4.2046897 1.7447353-.9178656 2.3231058-4.332589-1.7957396c.3761745-.7246474.7297784-1.4839392 1.0457649-2.2721015zm-24.48237198-11.37398-3.66958151-2.69072247 1.42758194-2.03728875 3.4683282 2.54540801c-.4720989.66883122-.8840099 1.39444091-1.22632863 2.18260321zm17.98301838-6.54877188 1.8535995-3.53470081 2.1573603 1.18464925-1.8592421 3.54721132c-.6827566-.46385129-1.4031306-.86418768-2.1517177-1.19715976zm5.3755325 4.36616867 3.4692687-2.54733271 1.4275819 2.03728876-3.6695815 2.69264716c-.3404379-.7862376-.7561106-1.5118473-1.2272691-2.18260321zm-18.9084074-3.17093361-1.85736125-3.54528662 2.15736035-1.18464925 1.852659 3.53277611c-.7467062.33104739-1.4680207.73330847-2.1526581 1.19715976zm6.6855599-2.36544911v-3.57704407h2.4488955v3.59051693c-.4316601-.04041857-.8642607-.06447725-1.2968613-.06447725-.3836979 0-.7673958.01828459-1.1520342.05100439zm19.019379 11.97833403v2.5069141h-4.5329019c.0357366-.4070728.0677114-.8189573.0677114-1.2443147 0-.4330562-.0300939-.8478278-.0620687-1.2616371h4.5272592zm-7.1444928 1.2625994c0 6.5227884-5.7404217 10.9351498-5.7404217 16.0827443h-3.5529675c-.0047022-3.3961229 1.5536004-6.1946282 3.0742855-8.8959364 1.3589301-2.4222276 2.6473275-4.7106889 2.6473275-7.1868079 0-4.7376347-3.7071989-6.89425447-7.1510758-6.89425447-3.4372938 0-7.1388501 2.15661977-7.1388501 6.89425447 0 2.476119 1.2874569 4.7645803 2.6473275 7.1868079 1.5197447 2.7013082 3.0808685 5.4998135 3.0714642 8.8959364h-3.5501462c0-5.1475945-5.74136214-9.5599559-5.74136214-16.0827443 0-6.8047562 5.35578334-10.55021101 10.71156674-10.55021101 5.3604856 0 10.722852 3.74930421 10.722852 10.55021101zm-6.6987261 25.2211921h-8.037907l2.1225642 1.4290854c.2746073.2530973.6789948.3984117 1.0984293.3984117h1.5987413c.4184941 0 .8228816-.1453144 1.0984293-.3984117zm-.4457667-3.6549942h-7.1444927c-.4927885 0-.8934143.4089975-.8934143.9132674 0 .5052322.4006258.915192.8934143.915192h7.1444927c.4927885 0 .8934143-.4099598.8934143-.915192 0-.5042699-.4006258-.9132674-.8934143-.9132674zm0-3.6559565h-7.1444927c-.4927885 0-.8934143.4099598-.8934143.9142297 0 .5042698.4006258.9142297.8934143.9142297h7.1444927c.4927885 0 .8934143-.4099599.8934143-.9142297 0-.5042699-.4006258-.9142297-.8934143-.9142297z" fill="#fff" fill-rule="evenodd" transform="translate(93.166163 20.605729)"/></svg>