<svg id="Layer_1" data-name="Layer 1" xmlns="http://www.w3.org/2000/svg" viewBox="0 0 12 20"><defs><style>.cls-1{fill:#fff;}</style></defs><title>icon-pinnen</title><path class="cls-1" d="M297,428.8l0.42,2.7h0.09l0.42-2.7,0.2-4.45h-1.31Zm6-7.15a0.61,0.61,0,0,0-.07-0.19l0-.06a0.44,0.44,0,0,0-.13-0.11l-0.09,0-0.09,0-0.11,0-0.12,0-0.13,0-0.14,0L302,421l-0.17,0-0.21,0-0.33-.07-0.09,0-0.2-.06-0.19-.08-0.17-.11-0.16-.13-0.13-.15-0.11-.17a1.18,1.18,0,0,1-.08-0.18,1.36,1.36,0,0,1,0-.19c0-.07,0-0.13,0-0.2a0.42,0.42,0,0,1,0,0v0a0.22,0.22,0,0,0,0,0,0.28,0.28,0,0,0,0,0s0,0,0,0,0,0,0-.06,0,0,0-.07v-0.4s0-.08,0-0.12,0-.08,0-0.13,0-.09,0-0.13,0-.09,0-0.13V417.5c0-.05,0-0.1,0-0.15v-0.45s0-.1,0-0.15v-0.69s0-.08,0-0.12,0-.08,0-0.11,0-.07,0-0.11,0-.06,0-0.1,0-.06,0-0.09v-0.09s0-.05,0-0.08,0-.09,0-0.14a0.26,0.26,0,0,1,0-.14l0-.06,0.05-.11a1.21,1.21,0,0,1,.14-0.2l0.17-.18a1.17,1.17,0,0,1,.2-0.15l0.13-.07,0.19-.07,0.14,0,0.06,0,0.08,0,0.08,0,0.09,0,0.13-.08,0,0a0.53,0.53,0,0,0,.16-0.3l0.45-1.77a0.43,0.43,0,0,0-.45-0.41h-8a0.43,0.43,0,0,0-.45.41l0.45,1.77a0.52,0.52,0,0,0,.16.3l0.05,0,0.13,0.08,0.09,0,0.08,0,0.08,0,0.06,0,0.14,0,0.19,0.07,0.13,0.07a1.2,1.2,0,0,1,.2.15l0.17,0.18a1.17,1.17,0,0,1,.14.2l0.05,0.11,0,0.06a0.24,0.24,0,0,1,0,.14v0.4s0,0.06,0,.1,0,0.07,0,.11v0.36s0,0.09,0,.13,0,0.09,0,.14,0,0.09,0,.14,0,0.1,0,.15v0.45c0,0.05,0,.1,0,0.15v0.45s0,0.1,0,.14v0.14s0,0.09,0,.14,0,0.09,0,.14v0.13s0,0.09,0,.13,0,0.08,0,.13V419s0,0.07,0,.1,0,0.06,0,.09,0,0.06,0,.08v0.07s0,0,0,.06v0.09a0.41,0.41,0,0,1,0,0c0,0.07,0,.13,0,0.2a1.48,1.48,0,0,1,0,.19,1.12,1.12,0,0,1-.08.18l-0.11.17-0.13.15-0.16.13-0.17.11-0.19.08-0.21.06-0.09,0-0.33.07-0.21,0L293,421l-0.16,0-0.14,0-0.13,0-0.12,0-0.11,0-0.09,0-0.09,0a0.44,0.44,0,0,0-.13.11l0,0.06a0.6,0.6,0,0,0-.08.19l-0.45,1.77a0.43,0.43,0,0,0,.45.41h11.11a0.43,0.43,0,0,0,.45-0.41Z" transform="translate(-291.5 -411.5)"/></svg>