<svg height="40" viewBox="0 0 76 40" width="76" xmlns="http://www.w3.org/2000/svg"><path d="m36.0707443 19.1542479-6.1643829 7.0718447c-.8228532.9416769-2.0122798 1.4821338-3.2628167 1.4825731h-9.2855894l-1.6126233 1.6126234-5.745332-5.6008317 4.1182586-4.0922485c1.7059193-1.6948405 4.2301687-2.2661357 6.4996235-1.4710131l.9074619.3179007h5.5603716c.4741574-.0002331.9281465.1918013 1.2582122.5322157.3300658.3404143.5079978.8001137.4931314 1.274038-.0540811.9625341-.8567307 1.7116737-1.8207038 1.6993236h-3.3437369c-.2537387-.0165433-.4956121.1094385-.6274995.3268384s-.1318874.4901161 0 .707516.3737608.3433817.6274995.3268384h3.3437369c1.6954707.0021206 3.0942344-1.3267048 3.1790067-3.0200563 0 0 0-.0289 0-.0433501l3.0894164-3.4680072c.6518919-.7563738 1.7830541-.8670724 2.5692153-.2514305.3778266.3122085.6138205.7635623.6546135 1.2519915.0407931.4884291-.1170603.9726766-.437863 1.3432339zm-2.407375-15.08583142v.36703077c0 .40171083 0 .81498169.01734 1.25715261.0375701 1.94497405.0780302 4.2251888-.5780012 6.35801324-.9100595 2.8874466-3.5877568 4.8510418-6.6152238 4.8510418-3.0274669 0-5.7051643-1.9635952-6.6152237-4.8510418-.6618114-2.12993443-.6213513-4.40725917-.5780012-6.35801324 0-.43928091.01734-.8670018.01734-1.25715261v-.36703077c0-.30166408.244547-.54621114.5462111-.54621114h.3670308c2.3813649 0 4.1182586-.65314136 5.6355117-2.11837441l.2572106-.24854051c.2121775-.20705389.550784-.20705389.7629615 0l.2572106.24854051c1.4941331 1.46523305 3.2310267 2.11837441 5.6181717 2.11837441h.3670307c.2994045.00316848.5404479.24678995.5404312.54621114zm-3.9072882 3.36685701-.7167215-.7225015c-.1870967-.18589202-.4891647-.18589202-.6762614 0l-2.6934856 2.69348561-1.0519622-1.04618218c-.188968-.18129659-.4872933-.18129659-.6762614 0l-.7225015.73117152c-.185892.18709671-.185892.4891647 0 .67626141l2.1068144 2.10681435c.1870967.1858921.4891647.1858921.6762614 0l3.7570078-3.75700779c.0906899-.09049594.1414147-.21350712.1408719-.34162375-.0005429-.12811662-.0523084-.25069352-.1437619-.34041767z" fill="#fff" transform="translate(15 5)"/></svg>