<?xml version="1.0" encoding="UTF-8" standalone="no"?>
<svg width="220px" height="100px" viewBox="0 0 220 100" version="1.1" xmlns="http://www.w3.org/2000/svg" xmlns:xlink="http://www.w3.org/1999/xlink">
    <!-- Generator: Sketch 3.6.1 (26313) - http://www.bohemiancoding.com/sketch -->
    <title>icon-kanaalsturing-card-bg</title>
    <desc>Created with Sketch.</desc>
    <defs></defs>
    <g id="Page-1" stroke="none" stroke-width="1" fill="none" fill-rule="evenodd">
        <g id="icon-kanaalsturing-card-bg">
            <g id="icon-kanaalsturing" transform="translate(95.000000, 21.000000)" fill="#FFFFFF">
                <path d="M4.4,8.2 L4.4,20.2 L9.1,20.2 L9.1,8.2 L13.6,8.2 L6.8,0.1 L-5.68434189e-14,8.2 L4.4,8.2 L4.4,8.2 Z M20.7,11.3 C20.6620333,11.7130013 20.5608535,12.1177204 20.4,12.5 C20.2563278,12.8640481 20.0536084,13.2019136 19.8,13.5 L6.7,26.3 C5.97844854,27.0167643 5.40132209,27.8654797 5,28.8 C4.55736997,29.7393257 4.31879731,30.76178 4.3,31.8 L4.3,36.7 L9,36.7 L9,31.8 C9.03796674,31.3869987 9.13914652,30.9822796 9.3,30.6 C9.44367223,30.2359519 9.64639157,29.8980864 9.9,29.6 L23,16.8 C23.7215515,16.0832357 24.2986779,15.2345203 24.7,14.3 C25.14263,13.3606743 25.3812027,12.33822 25.4,11.3 L25.4,8.1 L29.9,8.1 L23.1,2.27373675e-13 L16.3,8.1 L20.8,8.1 L20.8,11.3 L20.7,11.3 L20.7,11.3 Z" id="Shape"></path>
            </g>
            <g id="Group"></g>
        </g>
    </g>
</svg>