<svg height="40" viewBox="0 0 76 40" width="76" xmlns="http://www.w3.org/2000/svg"><path d="m19.6.5c-1.2.9-7 5.2-7.9 6.1s2.1 3.5 5.1 2c2.7-1.3 4.5-3.4 5.7-3.5.2523582-.06713491.5212011.00967733.7.2l12.7 14.9c.5536558-.3187671 1.1658151-.5228202 1.8-.6v-14.9s-6.8-1.4-9.2-3.2c-1.2-1-3.5-1.5-5.7-1.5-1.08645-.00431584-2.1666516.16446566-3.2.5zm-17.9.9c-.20324396.00122264-.39621891.08948944-.53005842.24244888s-.19570904.35594348-.16994158.55755112v22.1c-.00559515.1873108.0663564.368628.19886422.5011358s.31382498.2044593.50113578.1988642h4.5c.1873108.0055951.36862796-.0663564.50113578-.1988642s.20445937-.313825.19886422-.5011358v-22.1c.0176877-.41079127-.29049613-.76300136-.7-.8zm38 0c-.203244.00122264-.3962189.08948944-.5300584.24244888s-.1957091.35594348-.1699416.55755112v22.1c-.0055951.1873108.0663564.368628.1988642.5011358s.313825.2044593.5011358.1988642h4.5c.1873108.0055951.368628-.0663564.5011358-.1988642s.2044593-.313825.1988642-.5011358v-22.1c.0176877-.41079127-.2904961-.76300136-.7-.8zm-28.9 3.1c-1.06969901.87733546.1.2-2.5.2 0 0 .1114714 15.773189.26754558 15.8999992 1.60000002 1.3 10.83245442 6.5000008 12.13245442 6.4000008.7.1 2.4-.6 2-2.1 1.9 1.5 3.2 1 3.4.9.6561085-.3879429.9810108-1.1595858.8-1.9.6.4 2.3 1.6 3.4.7.5012981-.5371358.656146-1.3113753.4-2-.2-.4 4.1 1.9 4-1.7v-.3l-11.7-13.8c-.3-.4-1 0-1.5.4-.8.5-1.6 1.2-2.4 1.8-1.9843754 1.6098046-4.736146 1.8849817-7 .7-1.2-.5-2.5-2.6-1.6-3.4 1.3204002-1.42675442 2.7962415-2.70134463 4.4-3.8-.1885747-.09700688-.3909361-.16446068-.6-.2-1.2543848.5835172-2.430301 1.32266454-3.5 2.2z" fill="#fff" fill-rule="evenodd" transform="translate(16 6)"/></svg>