<svg height="40" viewBox="0 0 76 40" width="76" xmlns="http://www.w3.org/2000/svg"><g fill="#fff" fill-rule="evenodd" transform="translate(6 1)"><path d="m50.6290103 6.00400514c-3.2685248.10617354-5.7441687 2.25462643-5.6248751 6.06625666.2976316 9.5075286 5.5869181 4.6797551 6.2737601 15.3932902.0168698.2710548-.0488019 4.5298631-.0927839 7.536448 4.1909416-1.4776859 8.1493209-3.3781923 11.8148886-5.6521798l-.0656717-2.1259691c-.0747092-2.3926521-.309079-3.7697854-3.2179154-4.3293824-3.3570912-.645785-6.4786077-1.2060066-5.063954-4.0314719 4.3066202-8.6019308.8061357-13.01312923-4.0234486-12.85699166m3.8746328 19.03316916c1.336932.559597 2.8859417.8575075 4.4090441 1.149797l.1289335.024982c.1566482.0299784.2795568.0599568.3741482.0861879.0277147.2348309.0488019.5808318.0626593 1.0336307l.0048199.1561376c-1.5429847.8843632-3.1353738 1.6994012-4.7675275 2.4407424.0277147-2.0934925.0253047-2.4825873.0126524-2.6849416-.0512119-.7981752-.127126-1.5307726-.2247299-2.206536m-3.768594-15.65185406c.6537049-.02061016 1.5297298.09992804 1.9900345.79692616.6663573 1.0111468.7079293 3.4319036-1.1772714 7.1966926-.0735041.1461448-.1403809.2910404-.2006302.4334379-.3518559-.3766038-.7169667-.7244783-1.0868974-1.06236-1.0953324-.9992804-1.6990304-1.5488847-1.8002492-4.7915496-.0530194-1.7031486.6699722-2.52130939 2.2750137-2.57314706"/><path d="m31.0790095.00525561c-6.7697635.20943099-11.0778513 6.52315937-4.4156036 17.21214749 2.2497516 3.6096047-2.1465862 4.6117936-6.6025858 5.7205459-3.9383082.9812458-4.1452605 2.8026795-4.0427165 5.9441443l.8719341 8.8065731c4.9569111.9886375 10.1387975 1.4432259 15.4648668 1.278145 5.3254478-.1650809 10.4675595-.9381276 15.3498933-2.23044.0814137-2.4460308.2952022-8.833676.2952022-8.833676-.1031654-3.1451607-.4263341-4.9536589-4.4261687-5.6885152-4.6138551-.8488115-8.9095133-1.5855158-6.9630432-5.301684 5.9264174-11.31050537 1.1074744-17.11235976-5.5317786-16.90724059m.1093801 3.33488053c1.2050465-.03695841 2.8382916.20265528 3.7723735 1.55594906 1.4157277 2.05180773.8358884 5.997734-1.5518314 10.55409-1.3038615 2.4891489-.8576401 4.3721799-.2541846 5.5129628 1.604657 3.0324375 5.6411588 3.7740696 9.5452857 4.4916787l.1777428.0332626c.8992791.1650809 1.2336345.3467931 1.3150481.3991508.1187024.2383818.1988731.9196485.2386477 2.0253209l-.2081952 6.2250282c-3.915935.8672907-7.9337924 1.3693091-11.9777519 1.4943517s-8.0860546-.1275065-12.0510864-.7514877l-.614642-6.2096288c-.0329384-1.1013606.0024859-1.7832433.1056513-2.0290167.0776848-.0572856.3989891-.2587089 1.2839742-.4792274l.2802868-.068989c3.8171199-.9485992 7.7647502-1.929229 9.1556187-5.0706939.5232848-1.1826691.834024-3.0946509-.6600099-5.4914037-2.6953516-4.32475-3.5386977-8.19983928-2.2565879-10.3656021.8532898-1.44076202 2.482806-1.7875551 3.6996605-1.82574546"/><path d="m10.9863034 7.00400548c-4.83746055.15625199-8.06002034 4.78818602-3.21471461 13.10016692 1.5913652 2.7331599-1.49420563 3.4912945-4.80909719 4.3538055-2.87616479.7462595-3.02401632 2.1375272-2.94918534 4.5319328 0 0 .04586414 1.4325182.06819274 2.1294021 3.80672419 2.0337759 7.88380546 3.6762969 12.1666719 4.8806872-.2323381-3.0350387-.568474-7.3638438-.5660601-7.6650977.0669858-10.5620096 5.6032711-6.1619535 5.3063611-15.6364493-.1194882-3.81442357-2.7283133-5.80007387-6.0021685-5.69444752m-2.68184564 19.26024542c-.05129543.6356331-.08086574 1.3193918-.08569354 2.0581513-.00120695.2225028.02594945.6893837.18707744 2.8425362-1.68067959-.6350081-3.32575412-1.3462672-4.92556798-2.1312772l-.00543129-.155627c-.01387993-.4543808-.01508689-.8006352-.0024139-1.0375132.09474567-.0331254.21664775-.0700009.37294793-.1112514l.13397159-.0350004c1.50024038-.390005 3.02582674-.7862601 4.32510975-1.4300183m2.78745384-15.8764523c1.6082626-.0518757 2.3819183.7175091 2.4350241 2.4225309.1013839 3.2462913-.4670901 3.8350488-1.4990334 4.9038125-.3482054.3600046-.6903761.7306343-1.0180634 1.1281393-.0700031-.1375017-.1454376-.2781285-.2281137-.4200053-2.12061335-3.6375464-2.23165287-6.0582022-1.62878073-7.1100906.41639818-.7262593 1.28419613-.9037615 1.93896713-.9243868"/></g></svg>