<svg height="26" viewBox="0 0 26 26" width="26" xmlns="http://www.w3.org/2000/svg"><path d="m17.77 14.9c1.4198152-2.4425854 1.4309543-5.45654802.0292324-7.90956136-1.4017219-2.45301333-4.0040219-3.97358221-6.8292324-3.99043864h-.05c-4.37685664 0-7.925 3.54814336-7.925 7.925 0 4.3768566 3.54814336 7.925 7.925 7.925h.05c1.4058638.0037348 2.7870636-.3691891 4-1.08l4.93 4.94c.1745995.175876.4121747.2747901.66.2747901s.4854005-.0989141.66-.2747901l1.55-1.55c.175876-.1745995.2747901-.4121747.2747901-.66s-.0989141-.4854005-.2747901-.66zm-6.89 1.93c-3.26124145 0-5.905-2.6437586-5.905-5.905 0-3.26124145 2.64375855-5.905 5.905-5.905 3.2612414 0 5.905 2.64375855 5.905 5.905 0 3.2612414-2.6437586 5.905-5.905 5.905z" fill="#999" fill-rule="evenodd"/></svg>