<svg enable-background="new 0 0 668 668" viewBox="0 0 668 668" xmlns="http://www.w3.org/2000/svg"><circle cx="334" cy="334" fill="#00f" r="334"/><path d="m575.4 281.7c.7-4.6 1-9.2 1-13.8 0-40.3-23.8-76.7-60.7-92.9-8.3-14-19.9-25.9-33.7-34.6-18.8-11.9-41.2-17-63.3-14.6-29.3-20.6-67.4-24.1-99.9-9.1-10.9-4-22.3-6-33.9-6-27.6-.2-54 10.9-73.2 30.7-1.7-.1-3.4-.2-5.1-.2-21.8 0-45.1 10.3-62.4 27.5-11 10.9-19 24.4-23.2 39.3-14.5 6.9-27.2 18.2-36.9 33.4-11.2 17.4-18.2 39.3-20.3 63.3v.1c-2.5 30 3.9 57.5 18.6 79.6 15 22.5 37.6 37.9 65.3 44.6 8.9 2.1 18 3.1 27.1 3 12.4-.1 24.8-2.2 36.6-6.2 9.2 8.1 22 17 44.5 18.9h.2.2c2 .1 4 .2 5.9.2 15.1 0 26.1-3.7 34.9-8.5 6.3 4.9 14.8 9.6 27 13.8l.3.1.1.1c7.3 2.3 14.8 3.6 22.4 3.9v74c0 14.4 12.5 27.1 26.9 27.1h81.9c12.9 0 23.5-9.4 25.7-22.2l.5-1.9.2-.8.1-.8.3-2c5-32.6 8-47.5 26.7-56.9l6.7-3c31.6-14 48.8-38.1 52.4-73.5 25-32.5 27.8-77.1 7.1-112.6zm-333.9 143c1.5.5 3.1 1 4.7 1.4-1.6-.4-3.2-.9-4.7-1.4zm187.2-282.4h.7 1.1zm35.9 387.4c0 .4-.1.8-.2 1.2.1-.4.2-.8.2-1.2l.6-2.6zm13.4-52.1c.8-1.4 1.6-2.7 2.5-4-.9 1.3-1.7 2.6-2.5 4zm10.4-13.1c1.2-1.1 2.5-2.2 3.9-3.2-1.4 1-2.7 2-3.9 3.2zm20.4-12.3-7 3.2 7-3.2c1.3-.6 2.6-1.2 3.8-1.8-1.2.7-2.5 1.3-3.8 1.8zm49.5-171.3c.2-1.4.4-2.9.6-4.3-.2 1.4-.4 2.8-.6 4.3z" fill="#fff"/><path d="m455.7 538h-81.9c-5.2-.1-9.5-4.4-9.6-9.6v-80c0-10.9 0-10.9-12.2-10.9-7.6.1-15.1-1-22.4-3.2-16.6-5.8-24.3-12.2-30.7-19.2-9.6 7-20.5 14.1-41.6 12.8-21.8-1.9-31.4-11.5-40.3-19.8l-1.9-1.9c-12.7 5.8-26.4 8.9-40.3 9-7.7.1-15.5-.8-23-2.6-48-11.5-75.5-53.1-71-106.2 3.8-43.5 25-76.2 55-85.8 1.9-14.1 9-28.2 20.5-39.7 17.3-17.3 42.2-26.2 62.1-21.1 16-20.5 40.3-32 66.6-32 11.9 0 23.7 2.6 34.5 7.7 12.7-7.1 27-10.8 41.6-10.9 19.4.1 38.1 6.9 53.1 19.2 37.1-7 73 12.2 89.6 44.8 33.4 12.1 55.7 43.8 55.7 79.4 0 5.8-.6 11.6-1.9 17.3 21.6 31.5 19.2 73.6-5.8 102.4-1.9 32-15.4 52.5-42.9 64.6l-7 3.2c-28.2 14.1-31.4 38.4-36.5 71.7l-.6 2.6c-.8 5-4.6 8.2-9.1 8.2z" fill="#fff"/><g fill="#00f"><path d="m451.6 539.7h-81.9c-5.2-.1-9.5-4.4-9.6-9.6v-80c0-10.9 0-10.9-12.2-10.9-7.6.1-15.1-1-22.4-3.2-16.6-5.8-24.3-12.2-30.7-19.2-9.6 7-20.5 14.1-41.6 12.8-21.8-1.9-31.4-11.5-40.3-19.8l-1.9-1.9c-12.7 5.8-26.4 8.9-40.3 9-7.7.1-15.5-.8-23-2.6-48-11.5-75.5-53.1-71-106.2 3.8-43.5 25-76.2 55-85.8 1.9-14.1 9-28.2 20.5-39.7 17.3-17.3 42.2-26.2 62.1-21.1 16-20.5 40.3-32 66.6-32 11.9 0 23.8 2.6 34.6 7.7 12.7-7.1 27-10.8 41.6-10.9 19.4.1 38.1 6.9 53.1 19.2 37.1-7 73 12.2 89.6 44.8 33.4 12.1 55.7 43.8 55.7 79.4 0 5.8-.6 11.6-1.9 17.3 21.6 31.5 19.2 73.6-5.8 102.4-1.9 32-15.4 52.5-42.9 64.6l-7 3.2c-28.2 14.1-31.4 38.4-36.5 71.7l-.6 2.6c-.9 5-4.7 8.2-9.2 8.2zm-72.3-19.2h64c5.1-33.3 10.9-64.6 46.7-83.2.3 0 .6-.3.6-.6l7-3.2c21.8-9.6 30.7-24.3 31.4-51.2 0-2.6 1.3-4.5 2.6-6.4 22.1-23.2 24-59.1 4.5-84.5-1.9-2.3-2.6-5.4-1.9-8.3 1.3-5.7 1.9-11.5 1.9-17.3.1-28.6-18.6-53.9-46.1-62.1-2.6-.6-5.1-2.6-5.8-5.1-10.2-23.7-33.9-38.4-58.9-38.4-5.2 0-10.3.7-15.4 1.9-3.2.8-6.7-.2-9-2.6-10.9-10.2-26.9-16-42.9-16-12.7.1-25.2 3.9-35.8 11-2.9 1.8-6.5 2-9.6.6-9.4-5.1-20-7.7-30.7-7.7-21.4.1-41.5 10.6-53.8 28.2-1.9 2.6-5.1 4.5-8.3 3.8h-2.6c-1.7.1-3.5-.1-5.1-.6-2.7-.8-5.5-1.2-8.3-1.3-12.2 0-26.2 6.4-36.5 16.6-9.6 9.6-15.4 21.8-15.4 33.9-.1 4.6-3.3 8.5-7.7 9.6-25 5.1-43.5 32.6-46.7 71-3.2 33.9 10.2 74.9 56.3 85.8 6.1 1.3 12.3 1.9 18.6 1.9 16.6 0 30.1-5.1 36.5-9.6 3.6-2.4 8.3-2.1 11.5.6 2.9 2.4 5.7 5 8.3 7.7 7.7 7.7 12.8 12.8 28.2 14.1 14.7 1.3 21.1-3.2 30.1-10.2 1.9-1.3 3.8-3.2 5.8-4.5 4.1-2.5 9.3-2 12.8 1.3l2.6 3.2c6.4 7.7 10.9 12.8 25.6 17.9 5.8 1.9 10.9 1.9 16.6 2.6 12.2.6 30.7 1.3 30.7 30.1v71z"/><path d="m412.6 539.7c-5.2-.1-9.5-4.4-9.6-9.6v-60.8c0-29.4 10.2-52.5 30.1-64.6 5.8-3.8 11.5-5.8 17.3-8.3 12.2-5.1 21.8-9.6 26.9-21.8 1.9-5.1 7.7-7 12.8-4.5 5.1 1.9 7 7.7 4.5 12.8-8.3 19.2-23.7 25.6-37.1 31.4-5.1 2.6-10.2 4.5-14.7 7-17.9 10.9-21.1 32-21.1 48v60.8c.5 5.1-4 9.6-9.1 9.6z"/><path d="m347.9 391.9c-1.9 0-3.2-.6-5.1-1.3-4.5-2.5-6.1-8.3-3.6-12.8.1-.2.3-.4.4-.7 6.4-10.9 6.4-26.2 3.8-48-.2-3-.7-6-1.3-9-5.1-25-7-42.2 3.2-48 5.8-3.2 12.8-1.3 20.5 5.8 5.8 5.1 18.6 9 26.2 9h.6c30.7.6 52.5 28.8 52.5 68.5.1 3-1.4 5.9-3.8 7.7-2.6 1.9-5.8 2.6-8.3 1.3-4.1-1.3-8.5-1.9-12.8-1.9-6.7.3-13.1 2.5-18.6 6.4-4.5 3.2-10.2 2.6-13.4-1.9s-2.6-10.2 1.9-13.4c8.3-6.4 19.8-10.2 29.4-10.2h5.1c-3.2-19.8-13.4-37.8-32.6-37.8h-.6c-10.2 0-25-3.8-34.6-10.9.6 7 2.6 16.6 3.2 21.1.4 3.5 1 6.9 1.9 10.2 2.6 20.5 3.8 42.2-6.4 59.5-1.2 4.5-4.4 6.4-7.6 6.4z"/><path d="m279.5 374c-5.2.1-9.5-4-9.6-9.3 0-.1 0-.2 0-.3.6-20.5 13.4-35.8 23-46.1-2-3.1-3.7-6.3-5.1-9.6-9 3.2-19.2 4.5-28.8 2.6-1.3 0-2.6-.6-3.8-.6-11.5 26.9-39.7 44.2-67.8 39.7h-.6c-8.3-1.3-16.6 0-26.2 3.8-5.1 1.9-10.2-.6-12.2-5.8s.6-10.2 5.8-12.2c8.3-3.2 20.5-7 35.8-4.5h.6c21.8 3.2 43.5-12.2 49.9-35.2.6-2.6 2.6-5.1 5.1-5.8 2.4-1.2 5.1-1.4 7.7-.6 3.1 1.2 6.3 2 9.6 2.6 9.3 1.2 18.7-.6 26.9-5.1 2.6-1.3 5.8-1.9 8.3-.6s5.1 3.8 5.8 6.4c1.8 7.3 5.3 14.1 10.2 19.8 3.2 3.8 3.2 9.6-.6 12.8l-1.9 1.9c-7.7 7.7-21.1 20.5-21.8 37.1-.8 5.1-5.2 8.9-10.3 9z"/><path d="m206.5 292c-2.4.1-4.7-.8-6.4-2.6-12.2-10.9-34.6-4.5-41-1.9-5.1 1.9-10.2-.6-12.2-5.8s.6-10.2 5.8-12.2c9.6-3.2 30.7-9 48.6-1.3 3.2-12.2 1.3-24.3-4.5-35.2-2.6-4.5-.6-10.2 3.8-12.8s10.2-.6 12.8 3.8c10.9 19.2 10.9 42.9 1.3 62.7-1.4 2.7-4 4.6-7 5.1z"/><path d="m410.7 262.6h-1.3c-30.7-3.8-61.4-30.1-60.2-80 0-5.3 4.3-9.6 9.6-9.6s9.6 4.3 9.6 9.6c-.6 29.4 12.2 51.2 33.9 58.2 2.6-14.1 7.7-26.2 18.6-37.8 3.5-3.9 9.5-4.2 13.4-.7s4.2 9.5.7 13.4c-.2.2-.4.4-.6.6-9 9-12.8 19.2-15.4 37.1.6 5.4-3.2 9.2-8.3 9.2z"/><path d="m515 351.6c-1.9 0-3.2-.6-5.1-1.3-3.8-2.6-17.3-5.1-26.9-3.8-2.8.6-5.7-.4-7.7-2.6-1.9-1.9-3.2-5.1-2.6-7.7 1.3-11.5-1.3-23-7-35.2 0-.6-.6-.6-.6-1.3-2.6-5.1-5.8-9.8-9.6-14.1-1.8-1.9-2.7-4.4-2.6-7 .1-2.8 1.5-5.4 3.8-7 14.1-10.9 21.8-21.8 24.3-32.6.6-4.9 5.1-8.4 10-7.8.3 0 .6.1.8.1 5.1 1.3 9 5.8 7.7 10.9-2.6 13.4-10.2 25.6-23.7 37.8 2.6 3.7 4.9 7.5 7 11.5 0 .6.6.6.6 1.3 5.8 10.9 9 22.4 9 33.9 10.2.6 21.1 3.2 27.5 6.4 4.5 2.6 6.4 8.3 3.2 12.8-1.7 3.7-4.9 5.7-8.1 5.7z"/><path d="m282 270.9c-4.6-.1-8.5-3.3-9.6-7.7-1.9-7.7-2.6-15.7-1.9-23.7v-1.3c.6-11.8 3.6-23.4 9-33.9-9-5.8-16.6-12.8-20.5-19.2-2.9-4.6-1.5-10.6 3-13.5 4.6-2.9 10.6-1.5 13.5 3 0 .1.1.1.1.2 2.6 3.8 12.2 12.8 21.1 16.6 2.7 1.3 4.7 3.6 5.8 6.4.5 2.8.1 5.8-1.3 8.3-7 9.6-10.9 20.5-11.5 33.9v1.3c0 5.8.6 11.6 1.9 17.3 1.2 5.1-1.9 10.3-7 11.5-.8.6-1.7.9-2.6.8z"/></g></svg>