<svg height="20" viewBox="0 0 20 20" width="20" xmlns="http://www.w3.org/2000/svg"><path d="m9.7951088 16.004297.3618732 2.3446608h.0768836l.360717-2.3446608.1734217-3.8592099h-1.14284872zm5.6073002-4.6702452-.3873083-1.53593778c-.0114858-.05818763-.0330023-.11393485-.063588-.16475057-.0106295-.02111996-.0242591-.04059075-.040465-.05780722-.0319886-.03837952-.0712886-.07001602-.1156145-.09306962l-.0751494-.03988698c-.0260132-.01387373-.0526045-.02659132-.080352-.03988698s-.0578072-.02659132-.0913354-.03873084c-.0335282-.01213951-.0711029-.02312289-.1034749-.03295011-.0323721-.00982723-.0757275-.02543518-.1156145-.03641855-.0398869-.01098337-.0832424-.02601325-.1231293-.03815277-.039887-.01213951-.0901793-.02370096-.135847-.03352818-.0456677-.00982723-.0948038-.02254482-.14394-.03237204-.0618537-.01387374-.1231293-.02312289-.184405-.03410626-.0953819-.01907639-.1913419-.04219927-.2855677-.06358794l-.0774616-.01907639c-.0601448-.01424336-.1194026-.03200138-.1774682-.05318264-.0571277-.020119-.1125983-.04466523-.1659067-.07341517-.0529106-.02722897-.1033879-.05894652-.1508769-.09480383-.0476162-.03525224-.0926297-.07389048-.1346908-.11561444-.0420712-.0402889-.080741-.08398571-.1156144-.13064432-.0347046-.04561775-.0660051-.09372767-.0936477-.14393997-.0264986-.0506695-.0487347-.1034562-.0664783-.15781371-.0178886-.05445546-.0319887-.11008317-.0421993-.16648479-.0098272-.05780722-.0179202-.11561444-.024279-.17342166-.0024017-.0139588-.0039461-.02805161-.0046246-.04219927v.06185373c.0003291-.00616171.0003291-.0123366 0-.01849831v-.01965446-.02601324c.0008396-.01135326.0008396-.02275301 0-.03410626v-.0416212c0-.01445181 0-.0352624-.0028903-.05260457-.0028904-.01734217-.0040466-.0416212-.0046246-.06185372-.0005781-.02023253-.0028904-.04855807-.0046246-.07341517-.0017342-.02485711 0-.05376072-.0046246-.08150818-.0046246-.02774747-.0040465-.05780722-.0046246-.09075733-.000578-.03295012-.0052026-.06532216-.0063588-.09827228-.0011561-.03295011-.0057807-.06821251-.0057807-.10347492 0-.0352624-.0063588-.07110288-.0075149-.10867757-.0011562-.03757469-.0052027-.07572746-.0063588-.11561444-.0011562-.03988698-.0052027-.07746167-.0075149-.11561443-.0023123-.03815277-.0052027-.07861782-.0086711-.11561444-.0034685-.03699662-.0040465-.08093011-.0063588-.12081709s-.0057807-.08266432-.0092492-.12370745c-.0034684-.04104312-.0156079-.08382046-.0173421-.12601973-.0017343-.04219927-.0057808-.08497662-.0086711-.12717589-.0028904-.04219927-.0046246-.08555468-.0063588-.12833202s-.0063588-.08671083-.0109834-.13006624c-.0046246-.04335542-.0046246-.0872889-.008093-.13122239s-.0057807-.08671083-.008093-.12948817-.0057807-.08786697-.008093-.13064432c-.0023123-.04277734-.0057807-.08555468-.008093-.12891009-.0023123-.04335542-.0057808-.08497661-.0086711-.12717588-.0028904-.04219927-.0028904-.08093011-.0052027-.12255131s-.0046245-.08035203-.0075149-.12023901-.0040465-.07746168-.0040465-.11619251c0-.03873084-.0034684-.0728371-.0057807-.10983372s-.0046246-.06936866-.007515-.10520914c-.0028903-.03584047-.0034684-.06532215-.0069368-.09711612-.0034685-.03179397-.0034685-.0624318-.0046246-.09306963-.0011562-.03063782-.0028904-.05780722-.0052027-.08497661s0-.05318264-.0057807-.07977396 0-.04971421-.0040465-.07399324 0-.04508963-.0028904-.06936866c-.0034684-.04046506-.0057807-.08093011-.0104053-.12081709-.0055528-.04027621-.0005737-.08130403.0144519-.11908287.0064793-.01655426.0138114-.03276197.0219667-.04855806.0132957-.03179398.0289036-.06358795.0445116-.09422577.0343354-.06186443.0750199-.1199851.1213951-.17342166.0455646-.05439002.0950239-.10539486.1479865-.15261106.0530364-.04870746.1111811-.09154079.1734217-.12775395.0369966-.02196674.0751493-.03988698.1156144-.05780722.0528915-.02471891.1075794-.04539596.1635944-.06185372.0404651-.01156145.0826643-.02427903.1231294-.03352819l.0543388-.01618602c.0231229-.00635879.0462458-.0144518.0676344-.02196674.0213887-.00751494.0468239-.01792024.0693687-.02774747l.0820862-.03468433c.0392058-.01937237.0767191-.04199636.112146-.06763445.0156108-.0117679.0299479-.02513628.0427774-.03988698.0763326-.06903934.1268925-.16200437.1433619-.26360091l.3809496-1.53593781c-.0099868-.20398485-.1826782-.36170453-.3867303-.3532021h-6.9305075c-.20493582-.00981517-.37906681.14827404-.38904258.3532021l.38904258 1.53535973c.01600318.10136763.06593557.19430301.14162769.26360092.01320486.01459031.02771718.02794164.04335541.03988698.03638737.0258703.0750905.04831811.11561444.06705638.02659132.01329566.05318264.02370096.08150818.0352624s.04393349.01965445.06763445.02774746c.02370096.00809302.04508963.01560795.06879059.02138868.02370096.00578072.03468433.01098337.05376071.01618602.0416212.00867108.08266432.02196674.12370745.03410626.05584469.0164066.11034431.03708554.16301635.06185372.03953372.01721009.07812614.0365063.11561444.05780722.06201065.03634003.12012305.07895579.17342166.12717588.05268103.04752929.1019397.09871967.14740841.15318913.04628504.05337734.08678352.11150912.12081708.17342166.01618603.03063782.03179397.06243179.04508963.09422576.00832172.01571503.01565813.03193235.02196675.04855807.01567921.03741026.02048791.07848457.01387373.1185048-.00289036.04046505-.00635879.0809301-.00867108.12139515 0 .02427904-.00289036.04624578-.00404651.0687906-.00115614.02254481-.0040465.0497142-.00578072.07457131-.00173422.0248571 0 .05318264-.00462458.07977396-.00462457.02659132-.0040465.05780722-.00462457.08497661-.00057808.02716939-.00462458.0624318-.00520265.09249155-.00057808.03005975-.00462458.06474409-.00693687.09711613s-.00404651.06936866-.00578072.10520914c-.00173422.03584047-.00520265.07283709-.00751494.10983371s-.00404651.0768836-.00693687.11561444-.00578072.07977396-.00751494.12023902c-.00173421.04046505-.00578072.08208625-.00809301.1225513s-.00635879.08439854-.00809301.12717588c-.00173421.04277734-.00578072.08555468-.00867108.12833203-.00289036.04277734-.00520265.08671082-.00809301.13064431s-.00462458.08671083-.00751494.13006624c-.00289036.04335542-.00520265.08613276-.00809301.13006625-.00289036.04393348-.00635879.08671082-.00809301.13064431s-.00520265.08497661-.00867108.12833203c-.00346844.04335541-.00578073.08439854-.00867109.12717588s-.00462457.08266432-.00751493.12486359c-.00289037.04219927-.00520265.08208625-.00693687.12370745s-.01156144.08497661-.01156144.12370745c0 .03873083-.0063588.07861781-.00809302.11561443-.00173421.03699662-.00462457.07803975-.00809301.11561444-.00346843.03757469-.00462457.07514939-.00693686.11214601s-.00346844.07225902-.0063588.10925564-.00462457.06879059-.00635879.10347492-.00404651.06590023-.00578072.0976942c-.00173422.03179397-.00462458.06069758-.00520265.09075733-.00057807.03005976-.00462458.05433879-.00578072.08150818-.00115615.0271694-.00346844.04913614-.00346844.07341517s-.00173421.04451156-.00173421.0664783c0 .02196675 0 .03584048-.00289036.05260457-.00289037.01676409 0 .02774747 0 .0416212v.03352819.02659132.01965445.01849831-.06185372c0 .01387373-.00404651.02832553-.00462458.04219927-.0063588.05780722-.01271759.11561443-.02427903.17342165-.01009041.05637283-.02399611.11199563-.0416212.16648479-.0176695.05419168-.04031064.10663398-.06763445.15665757-.02665714.05059183-.05739691.0989248-.09191347.14451804-.03535017.0464496-.07398751.09030299-.11561444.13122239-.04171449.04209786-.08675756.08076145-.13469082.11561444-.0476139.03567581-.09807557.06738353-.15087684.09480384-.05300756.02895496-.10830284.05350916-.16532865.07341516-.05858413.02079706-.1182053.03854835-.17862431.05318265l-.07919589.01849831c-.09422576.02196674-.1890296.04508963-.28498958.06416601-.06185373.00982723-.12255131.01965445-.1849831.03295011-.04798.01098337-.09595999.02196675-.14336191.03352819s-.09191347.0208106-.13584696.03352819l-.12428552.03584047c-.03873084.01156145-.0768836.02312289-.11561444.03699662s-.06879059.02370096-.10289685.03757469c-.03410626.01387374-.05780722.02485711-.0913354.03873084-.03352819.01387373-.05376072.02601325-.07977397.03988698l-.07572745.03988698c-.0441653.02280208-.08344151.05402667-.11561444.09191348-.01528588.01769063-.02847633.03708835-.03930891.05780722-.03082341.05123552-.05271639.10733628-.06474408.16590672l-.38730837 1.53593784c.01060065.2040148.1831698.3616451.38730837.3537801h9.62721423c.0988535.0042254.1953227-.0310754.2681017-.0981059.0727791-.0670305.1158804-.1602759.1197847-.2591427z" fill="#fafafa" fill-rule="evenodd"/></svg>