<svg height="40" viewBox="0 0 76 40" width="76" xmlns="http://www.w3.org/2000/svg"><g fill="#fff" fill-rule="evenodd" transform="translate(23 2)"><path d="m8.26100122 17.5121739 4.73899878-.1331186-6.88067779-10.3790553-6.11932221 10.7440826 4.73899878-.1331186.26634881 7.389036 3.46965402-1.5577547z"/><path d="m26 10.3160847-6.0197204-10.3160847-5.3539972 10.6789106 4.1463893-.1323158.1952837 6.1521171c.0597209 1.8884388-.9709227 3.6711007-2.7075918 4.6632798l-6.99577244 4.6659337c-2.0843694 1.2090405-3.3344781 3.389029-3.2615673 5.6892013l.12347205 3.8807586c.02528062.7995819.73716843 1.428556 1.58645095 1.4012587.84964891-.0269181 1.52013511-.6998711 1.49485448-1.4994529l-.12310566-3.8807587c-.04030245-1.272355.65436522-2.4741922 1.83046392-3.146766l6.9950397-4.6655546c2.6456726-1.5294041 4.2317572-4.2905965 4.1390615-7.2060941l-.1952837-6.1521171z"/></g></svg>