<svg height="100" viewBox="0 0 220 100" width="220" xmlns="http://www.w3.org/2000/svg"><g fill="#fff" fill-rule="evenodd" transform="translate(93 12)"><path d="m10.1673861 23.0162319 5.8326139-.1774915-8.46852651-13.8387404-7.53147349 14.3254434 5.83261388-.1774915.32781393 9.8520481 4.27034339-2.0770062z"/><path d="m34 13.6618419-8.1266225-13.6618419-7.2278962 14.1423411 5.5976255-.175229.263633 8.1473983c.0806232 2.5009054-1.3107456 4.8617279-3.655249 6.1756948l-9.4442927 6.1792095c-2.81389872 1.6011618-4.50154547 4.4881736-4.40311589 7.5343476l.16668726 5.1393831c.03412885 1.0589057.99517739 1.8918714 2.14170879 1.855721 1.14702604-.0356483 2.05218244-.9268563 2.01805354-1.985762l-.1661926-5.1393831c-.0544083-1.6850107.883393-3.2766329 2.4711263-4.1673388l9.4433035-6.1787073c3.571658-2.0254271 5.7128722-5.6821414 5.5877331-9.5432058l-.263633-8.1473984z"/></g></svg>