<svg height="100" viewBox="0 0 220 100" width="220" xmlns="http://www.w3.org/2000/svg"><path d="m120 42.4824288c-2.093742 1.0364016-3.440604.3699975-5.138623-.7134204-1.674086-1.0662467-3.966309-2.5282475-7.75477-2.4088671-1.272586.040066-2.578183.3994337-3.809505.9059826l-.297102-9.2577032c2.135419-1.2081131 4.912083-1.592011 7.561653.3336109 2.596753 1.8855559 5.285937 3.076089 9.150323 2.1652004zm-2.929743-12.9094388c-4.906774.1598356-5.151325-4.1718782-10.847294-3.986537-1.368657.04506-2.666022.3919372-3.809609.8459382l-.075438-2.4323912-3.337916.1088242 1.061103 34.2328672c.029429.9454103.800387 1.6872004 1.721806 1.6574438.921833-.0306069 1.645539-.8208577 1.61611-1.7666932l-.457601-14.7626848c1.218197-.6958798 2.611724-1.222572 3.816656-1.2621058 5.379296-.175139 6.262996 3.9253234 11.057856 3.7688886 3.09751-.1011725 5.18407-2.2062409 5.18407-2.2062409l-.511899-16.5174753c-.001658 0-2.301683 2.2185686-5.417844 2.3201662z" fill="#fff" fill-rule="evenodd"/></svg>