<?xml version="1.0" encoding="UTF-8"?>
<svg width="54px" height="74px" viewBox="0 0 54 74" version="1.1" xmlns="http://www.w3.org/2000/svg" xmlns:xlink="http://www.w3.org/1999/xlink">
    <!-- Generator: Sketch 52.2 (67145) - http://www.bohemiancoding.com/sketch -->
    <title>interessant_haar</title>
    <desc>Created with Sketch.</desc>
    <defs>
        <linearGradient x1="50.5647536%" y1="98.6353983%" x2="49.3207986%" y2="0.421331814%" id="linearGradient-1">
            <stop stop-color="#CAAB70" offset="0%"></stop>
            <stop stop-color="#A68D5B" offset="100%"></stop>
        </linearGradient>
        <radialGradient cx="53.7393833%" cy="50.019873%" fx="53.7393833%" fy="50.019873%" r="49.6642908%" id="radialGradient-2">
            <stop stop-color="#C78C66" offset="0%"></stop>
            <stop stop-color="#CAAB70" offset="100%"></stop>
        </radialGradient>
        <radialGradient cx="52.9003731%" cy="49.9812586%" fx="52.9003731%" fy="49.9812586%" r="49.6642908%" id="radialGradient-3">
            <stop stop-color="#C78C66" offset="0%"></stop>
            <stop stop-color="#CAAB70" offset="100%"></stop>
        </radialGradient>
    </defs>
    <g id="Page-1" stroke="none" stroke-width="1" fill="none" fill-rule="evenodd">
        <g id="alle-poppetjes-od-copy" transform="translate(-104.000000, -148.000000)">
            <g id="interessant_haar" transform="translate(104.000000, 148.000000)">
                <path d="M29.3,1.6 C23.5,-0.5 16.8,0.9 11.4,6.1 C6,11.3 3.5,24.8 8.4,32.5 C13.3,40.2 6.2,41.6 6.2,41.6 C6.2,41.6 9,43 10.7,41.2 C10.7,41.2 11,44.7 9.2,48.3 C6.9,52.9 7.9,55.7 10.7,62 C12,65 15.2,68.3 13.2,69.8 L25.7,64.1 L39.2,56.3 L32.5,51 L28.9,19.7 L29.3,1.6 Z" id="Path" fill="#292011"></path>
                <path d="M22,2.8 C22,2.8 26.5,0.7 31,0.5 C35.5,0.3 42.5,3.7 45.8,10.6 C49.1,17.5 45.1,32 45.7,34.2 C46.3,36.5 48.2,37 49,36 C49,36 48.4,38.9 44.8,37.3 C44.8,37.3 44.4,39.1 45.7,42.7 C47,46.2 47.3,50.5 47.3,54.3 C47.2,62.2 39.2,66.7 40,68.4 C40.8,70.1 42.1,69.3 42.1,69.3 C42.1,69.3 41.6,70.9 39.4,70.1 C37.2,69.3 36.1,63.9 36.1,63.9 L20.5,63.9 L18.5,56.4 L22,2.8 Z" id="Path" fill="#292011"></path>
                <path d="M8,73.2 L15.8,61 C15.8,61 20.2,63 22.5,73 L33.2,72.8 C35.4,62.8 40,60.8 40,60.8 L46.5,72.5 L51.4,72.4 L40.4,51.9 C40.4,51.9 41.3,50.2 37.9,49.1 C34.5,48 31.3,46.1 31.2,43.7 C31.2,41.3 31.1,37.4 31.1,37.4 L27,37.5 L22.9,37.6 C22.9,37.6 23,41.5 23,43.9 C23,46.3 21,47.5 17.6,48.7 C14.2,49.9 13.9,52 13.9,52 L2.2,73.4 L8,73.2 Z" id="Path" fill="url(#linearGradient-1)"></path>
                <path d="M41.5,19.1 C41.7,30.8 37.7,40.4 27.1,40.6 C16.4,40.8 12.3,31.2 12.1,19.5 C11.9,7.8 16,6.5 26.6,6.4 C37.3,6.2 41.3,7.5 41.5,19.1 Z" id="Path" fill="#CAAB70"></path>
                <path d="M23,26.3 C23,27.9 21.7,29.2 20.1,29.3 C18.5,29.3 17.1,28 17.1,26.4 C17.1,24.8 18.4,23.5 20,23.4 C21.7,23.4 23,24.6 23,26.3 Z" id="Path" fill="#C78E2E"></path>
                <path d="M22.3,26.3 C22.3,27.4 21.4,28.3 20.3,28.4 C19.2,28.4 18.3,27.5 18.2,26.4 C18.2,25.3 19.1,24.4 20.2,24.3 C21.3,24.3 22.3,25.1 22.3,26.3 Z" id="Path" fill="#3D2E14"></path>
                <path d="M19.4,25.3 C19.4,25.6 19.1,25.9 18.8,25.9 C18.5,25.9 18.2,25.6 18.2,25.3 C18.2,25 18.5,24.7 18.8,24.7 C19.1,24.7 19.4,24.9 19.4,25.3 Z" id="Path" fill="#FFFFFF"></path>
                <path d="M20.6,33.4 C22.6,34.6 24.8,35.3 27,35.2 C29.2,35.2 31.3,34.3 33.4,33.1 C32.6,34 31.7,34.8 30.6,35.3 C29.5,35.9 28.3,36.2 27.1,36.2 C25.9,36.2 24.6,36 23.5,35.4 C22.3,35.1 21.3,34.4 20.6,33.4 Z" id="Path" fill="#3D2E14"></path>
                <path d="M20.4,31.5 C20.4,33 19.2,34.3 17.7,34.3 C16.2,34.3 14.9,33.1 14.9,31.6 C14.9,30.1 16.1,28.8 17.6,28.8 C19.2,28.8 20.4,30 20.4,31.5 Z" id="Path" fill="url(#radialGradient-2)"></path>
                <path d="M37.9,31.2 C37.9,32.7 36.7,34 35.2,34 C33.7,34 32.4,32.8 32.4,31.3 C32.4,29.8 33.6,28.5 35.1,28.5 C36.6,28.5 37.8,29.7 37.9,31.2 Z" id="Path" fill="url(#radialGradient-3)"></path>
                <path d="M30.9,26.1 C30.9,27.7 32.3,29 33.9,29 C35.5,29 36.8,27.6 36.8,26 C36.8,24.4 35.4,23.1 33.8,23.1 C32.2,23.2 30.9,24.5 30.9,26.1 Z" id="Path" fill="#C78E2E"></path>
                <path d="M31.7,26.1 C31.7,27.2 32.6,28.1 33.8,28.1 C34.9,28.1 35.8,27.2 35.8,26 C35.8,24.9 34.9,24 33.7,24 C32.5,24.1 31.7,25 31.7,26.1 Z" id="Path" fill="#3D2E14"></path>
                <path d="M31.8,25 C31.8,25.3 32.1,25.6 32.4,25.6 C32.7,25.6 33,25.3 33,25 C33,24.7 32.7,24.4 32.4,24.4 C32,24.5 31.8,24.7 31.8,25 Z" id="Path" fill="#FFFFFF"></path>
                <path d="M22.3,45.9 C22.3,45.9 22.7,50.9 27.4,50.7 C31.6,50.5 32.3,45.8 32.3,45.8" id="Path" stroke="#231D1E" stroke-linecap="round"></path>
                <path d="M3.7,71.9 L14.7,61 C16.2,63.1 18.3,68.6 18.9,73 L36.2,72.7 C36.9,69.1 39,63.7 39,63.7 L45.3,72.6 L52.7,72.5 L38.6,49 L34.1,46.9 C34.1,46.9 33.5,55 27.7,55.6 C20.7,56.3 20.5,47.2 20.5,47.2 C20.5,47.2 14.3,51 13.9,51.1 C13.4,51.3 1.8,73.3 1.8,73.3 C5.7,72.2 3.7,71.9 3.7,71.9 Z" id="Path" fill="#FEF3F8"></path>
                <path d="M9.8,73.2 L15.3,64 C15.3,64 17.2,70 17.8,73.1 L25.8,73 L25.7,57.1 C19.6,56.7 18.8,47.5 18.8,47.5 C18.8,47.5 14,49.6 13.9,49.9 C13.8,50.5 4.5,66.1 0.1,73.5 L9.8,73.2 Z" id="Path" fill="#697267"></path>
                <path d="M37.4,72.7 C37.8,69.6 38.9,63.6 38.9,63.6 L44.7,72.6 L53.4,72.4 C48.9,64.3 40.5,49.2 40.4,48.7 L35.6,47.1 C35.6,47.1 35.2,56.4 29.1,57 L29.6,72.9 L37.4,72.7 Z" id="Path" fill="#697267"></path>
                <path d="M31.5,72.8 L31,58.6 C31.8,58.4 37.1,56.4 37.6,48.3 C37.6,48.2 37.6,48.2 37.5,48.2 C37.4,48.2 37.4,48.2 37.4,48.3 C36.9,56.8 31,58.4 30.9,58.4 L30.8,58.4 L31.3,72.8 L31.5,72.8 Z" id="Path" fill="#FFFFFF"></path>
                <polygon id="Path" fill="#FEF3F8" points="34.1 72.8 33.3 57.3 33.1 57.6 33.9 72.8"></polygon>
                <path d="M23.7,58.8 L23.7,73 L23.9,73 L23.9,58.6 L23.8,58.6 C23.7,58.6 17.8,57.3 17,48.8 C17,48.7 16.9,48.7 16.9,48.7 C16.8,48.7 16.8,48.8 16.8,48.8 C17.5,56.8 22.9,58.6 23.7,58.8 Z" id="Path" fill="#FFFFFF"></path>
                <polygon id="Path" fill="#FEF3F8" points="21.3 73 21.6 57.8 21.4 57.5 21.1 73"></polygon>
                <path d="M25.7,47.6 C25.6,47.6 25.5,47.5 25.5,47.4" id="Path" fill="#FFFEF1" opacity="0.2"></path>
                <path d="M29.7,46.9 C29.7,46.8 29.6,46.7 29.5,46.7 C29.4,46.7 29.3,46.8 29.3,46.9" id="Path" fill="#CAAB70"></path>
                <path d="M27.4,55.3 C28.3,55.3 28.6,54.7 28.6,54 C28.6,53.3 27.9,52.3 27.6,51.6 C27.4,51.1 27.3,50.8 27.3,50.8 C27.3,50.8 27.3,51 27.1,51.5 C26.8,52.2 26.1,53.4 26.2,54.2 C26.2,54.8 26.6,55.3 27.4,55.3 Z" id="Path" fill="#553083"></path>
                <circle id="Oval" stroke="#231F20" fill="#553083" cx="27.3" cy="50.8" r="1"></circle>
                <path d="M27.5,52.1 C27.2,52.4 26.7,53.9 26.9,54.5 C27.1,55.1 27.8,55 28,54.9 C28.2,54.8 28.5,54.4 28.3,53.6 C28.1,52.8 27.7,52.3 27.6,52.2 C27.6,52.1 27.6,52.1 27.5,52.1 Z" id="Path" fill="#702D88"></path>
                <circle id="Oval" fill="#FFFFFF" cx="26.7" cy="54.6" r="1"></circle>
                <circle id="Oval" fill="#FFFFFF" cx="27.2" cy="54.8" r="1"></circle>
                <path d="M29.8,53.1 C30.4,53.1 30.6,52.7 30.6,52.2 C30.6,51.7 30.1,51 29.9,50.6 C29.8,50.2 29.7,50.1 29.7,50.1 C29.7,50.1 29.7,50.2 29.6,50.6 C29.4,51.1 28.9,51.9 29,52.4 C29,52.7 29.2,53.1 29.8,53.1 Z" id="Path" fill="#553083"></path>
                <circle id="Oval" stroke="#231F20" fill="#553083" cx="29.8" cy="50" r="1"></circle>
                <path d="M29.9,50.9 C29.7,51.1 29.3,52.1 29.5,52.5 C29.7,52.9 30.1,52.9 30.3,52.8 C30.4,52.7 30.6,52.5 30.5,51.9 C30.4,51.4 30.1,51 30.1,50.9 C29.9,50.9 29.9,50.9 29.9,50.9 Z" id="Path" fill="#702D88"></path>
                <circle id="Oval" fill="#FFFFFF" cx="29.4" cy="52.6" r="1"></circle>
                <circle id="Oval" fill="#FFFFFF" cx="29.7" cy="52.8" r="1"></circle>
                <path d="M25,53.3 C25.6,53.3 25.8,52.9 25.8,52.4 C25.8,51.9 25.3,51.2 25.1,50.8 C25,50.4 24.9,50.3 24.9,50.3 C24.9,50.3 24.9,50.4 24.8,50.8 C24.6,51.3 24.1,52.1 24.2,52.6 C24.2,52.9 24.4,53.3 25,53.3 Z" id="Path" fill="#553083"></path>
                <circle id="Oval" stroke="#231F20" fill="#553083" cx="24.9" cy="50.2" r="1"></circle>
                <path d="M25,51.2 C24.8,51.4 24.4,52.4 24.6,52.8 C24.8,53.2 25.2,53.2 25.4,53.1 C25.5,53 25.7,52.8 25.6,52.2 C25.5,51.7 25.2,51.3 25.2,51.2 C25.1,51.1 25.1,51.1 25,51.2 Z" id="Path" fill="#702D88"></path>
                <circle id="Oval" fill="#FFFFFF" cx="24.5" cy="52.8" r="1"></circle>
                <circle id="Oval" fill="#FFFFFF" cx="24.8" cy="53" r="1"></circle>
                <path d="M23.3,50.5 C23.7,50.5 23.8,50.3 23.8,50 C23.8,49.7 23.5,49.3 23.4,49.1 C23.3,48.9 23.3,48.8 23.3,48.8 C23.3,48.8 23.3,48.9 23.2,49.1 C23.1,49.4 22.8,49.8 22.8,50.1 C22.8,50.3 23,50.5 23.3,50.5 Z" id="Path" fill="#553083"></path>
                <path d="M23.3,49.3 C23.2,49.4 23,50 23.1,50.2 C23.2,50.4 23.5,50.4 23.5,50.4 C23.6,50.3 23.7,50.2 23.6,49.9 C23.6,49.6 23.4,49.3 23.3,49.3 C23.4,49.2 23.4,49.2 23.3,49.3 Z" id="Path" fill="#702D88"></path>
                <circle id="Oval" fill="#FFFFFF" cx="23" cy="50.2" r="1"></circle>
                <path d="M31.3,50.4 C31.7,50.4 31.8,50.2 31.8,49.9 C31.8,49.6 31.5,49.2 31.4,49 C31.3,48.8 31.3,48.7 31.3,48.7 C31.3,48.7 31.3,48.8 31.2,49 C31.1,49.3 30.8,49.7 30.8,50 C30.9,50.1 31,50.4 31.3,50.4 Z" id="Path" fill="#553083"></path>
                <path d="M31.4,49.1 C31.3,49.2 31.1,49.8 31.2,50 C31.3,50.2 31.6,50.2 31.6,50.2 C31.7,50.1 31.8,50 31.7,49.7 C31.6,49.4 31.5,49.2 31.4,49.1 C31.4,49.1 31.4,49.1 31.4,49.1 Z" id="Path" fill="#702D88"></path>
                <circle id="Oval" fill="#FFFFFF" cx="31.1" cy="50.1" r="1"></circle>
                <path d="M32.2,15 C32.2,15 34,14.5 35.5,15.7 C37,16.9 37.6,20.9 35,21.7 C35,21.7 39.1,22.3 39.5,17.5 C39.8,12.8 32.7,12.1 32.2,15 Z" id="Path" fill="#3B2D1D"></path>
                <path d="M30.9,6.5 L32.3,14.7 C32.3,14.7 34.8,14 36.9,14.7 C39,15.5 40.9,17.1 38.6,23.4 C37.1,27.2 34.9,36 37.6,41 C39.8,45.2 44.9,42.5 44.9,42.5 C44.9,42.5 39.7,44 40.1,39.8 C40.5,35.6 50.7,15 41.2,7.2 C36.2,3.1 30.9,6.5 30.9,6.5 Z" id="Path" fill="#3B2D1D"></path>
                <path d="M31.4,6.7 L32.2,14.8 C32.2,14.8 29.7,11.9 26.1,14.2 C22.5,16.5 24.2,21.7 16.2,23 C16.2,23 15.9,30.7 11.3,31.4 C6.7,32.2 5.2,30 5.2,30 C5.2,30 7.2,31.5 9.6,28.7 C12,25.9 8.8,14.6 13.9,7.8 C19.1,1 30.4,3.7 31.4,6.7 Z" id="Path" fill="#3B2D1D"></path>
                <path d="M32.2,14.8 C31.6,13.7 30.8,13.1 29.8,12.7 C28.8,12.4 27.8,12.3 26.8,12.4 C25.7,12.5 24.7,12.6 23.8,13 C22.9,13.3 22.2,13.8 21.6,14.5 C21,15.2 20.6,16 20.4,16.9 C20.2,17.7 20.1,19.3 19.4,20.5 C18.8,21.7 17.7,22.8 16.4,23.2 C15.1,23.6 13.7,23.3 12.7,22.6 C13.9,22.7 15,22.5 15.8,21.9 C16.6,21.3 17.1,20.5 17.3,19.6 C17.4,19.2 17.5,18.7 17.5,18.2 C17.5,17.8 17.5,17 17.6,16.4 C17.8,15.1 18.3,13.7 19.3,12.6 C20.2,11.5 21.6,10.7 22.9,10.3 C24.2,9.9 25.6,9.9 26.8,10.1 C28.1,10.3 29.4,10.7 30.4,11.5 C31.6,12.3 32.3,13.5 32.2,14.8 Z" id="Path" fill="#755C46"></path>
                <path d="M32.9,14.4 C33.6,13.1 35,12.4 36.5,12.1 C38,11.9 39.7,12.1 41.1,13.1 C41.8,13.6 42.4,14.3 42.7,15.2 C43.1,16 43.2,16.9 43.2,17.7 C43.3,19.4 42.7,20.9 42.3,22.1 C41.5,24.7 40.6,27.2 39.7,29.7 C39.2,31 38.8,32.2 38.3,33.5 C38.1,34.1 37.9,34.8 37.7,35.4 C37.5,36 37.3,36.7 37.4,37.4 C37,36.8 37,36 36.9,35.4 C36.9,34.7 36.9,34 36.9,33.3 C37,31.9 37.2,30.5 37.4,29.2 C37.9,26.5 38.6,23.9 39.4,21.3 C39.8,19.9 40.2,18.9 40.3,17.8 C40.4,16.7 40.1,15.8 39.4,15.1 C38.7,14.4 37.6,13.9 36.4,13.8 C35.4,13.5 34.1,13.7 32.9,14.4 Z" id="Path" fill="#755C46"></path>
                <path d="M32.6,12.4 C31.8,9.9 30.1,7.7 28,7.1 C27.5,7 26.9,6.9 26.4,6.9 C25.8,6.9 25.3,7 24.7,7.1 C23.6,7.3 22.7,7.8 21.9,8.5 C20.3,9.9 19.2,12.1 18.7,14.5 L18.5,15.4 C18.4,15.8 18.4,16.1 18.2,16.5 C18,17.2 17.6,18 17.1,18.6 C16.5,19.2 15.7,19.6 15,19.6 C14.2,19.6 13.5,19.4 12.9,19.1 C14.3,19.2 15.5,18.6 15.9,17.7 C16.1,17.2 16.2,16.7 16.3,16.1 C16.3,15.8 16.3,15.5 16.3,15.2 C16.3,14.9 16.3,14.5 16.3,14.2 C16.4,11.4 17.5,8.3 20,6.2 C21.2,5.2 22.8,4.5 24.3,4.4 C25.1,4.3 25.8,4.4 26.6,4.5 C27.4,4.6 28.1,4.8 28.8,5.2 C30.2,5.9 31.3,7.1 31.9,8.4 C32.5,9.7 32.7,11.1 32.6,12.4 Z" id="Path" fill="#755C46"></path>
            </g>
        </g>
    </g>
</svg>