<?xml version="1.0" encoding="UTF-8"?>
<svg width="432px" height="331px" viewBox="0 0 432 331" version="1.1" xmlns="http://www.w3.org/2000/svg" xmlns:xlink="http://www.w3.org/1999/xlink">
    <!-- Generator: Sketch 52.2 (67145) - http://www.bohemiancoding.com/sketch -->
    <title>optimaal-digitaal-logo</title>
    <desc>Created with Sketch.</desc>
    <defs>
        <polygon id="path-1" points="0.559655912 0.909563335 349.753 0.909563335 349.753 282.669633 0.559655912 282.669633"></polygon>
        <path d="M29.313,1.066 L29.295,1.067 L20.629,1.543 C20.629,1.543 21.076,9.913 21.348,15.036 C21.622,20.162 15.34,22.955 8.329,25.752 C1.313,28.545 0.647,33.056 0.647,33.056 C0.647,33.056 26.001,39.424 61.387,30.04 C61.387,30.04 60.126,25.591 52.855,23.582 C45.588,21.569 38.97,19.21 38.697,14.084 C38.425,8.961 37.979,0.591 37.979,0.591 L29.313,1.066 Z" id="path-3"></path>
        <polygon id="path-5" points="0 0.147131633 139.115115 0.147131633 139.115115 242 0 242"></polygon>
        <polygon id="path-7" points="0 332 431.753 332 431.753 0.909 0 0.909"></polygon>
    </defs>
    <g id="Page-1" stroke="none" stroke-width="1" fill="none" fill-rule="evenodd">
        <g id="optimaal-digitaal-logo" transform="translate(0.000000, -1.000000)">
            <g id="optimaal-digitaal">
                <polygon id="Fill-1" fill="#24B24A" points="402.8463 259.9689 109.5323 276.0609 96.4263 30.0709 389.7413 13.9789"></polygon>
                <polygon id="Fill-2" fill="#1D9C41" points="233.3375 30.0924 197.1595 39.4474 411.5115 202.8524 397.7765 164.8044 390.8535 34.8434 384.9115 21.7764"></polygon>
                <g id="Group-14" transform="translate(7.000000, 0.091000)">
                    <g id="Group-5" transform="translate(75.000000, 0.000000)">
                        <mask id="mask-2" fill="white">
                            <use xlink:href="#path-1"></use>
                        </mask>
                        <g id="Clip-4"></g>
                        <path d="M32.5319,43.8901 L300.5719,29.1841 L311.8039,240.0161 L43.7649,254.7221 L32.5319,43.8901 Z M314.0739,132.7551 C313.7599,126.8561 318.2409,121.8141 324.0829,121.4941 C329.9249,121.1731 334.9159,125.6951 335.2299,131.5941 C335.5439,137.4931 331.0629,142.5341 325.2209,142.8541 C319.3789,143.1751 314.3879,138.6531 314.0739,132.7551 Z M0.5999,45.6421 L11.8329,256.4741 C12.6469,271.7481 25.5699,283.4581 40.6979,282.6281 L323.7949,267.0961 C338.9229,266.2661 350.5269,253.2111 349.7129,237.9371 L338.4799,27.1051 C337.6669,11.8301 324.7429,0.1211 309.6149,0.9511 L26.5179,16.4821 C11.3899,17.3121 -0.2131,30.3681 0.5999,45.6421 Z" id="Fill-3" fill="#014152" mask="url(#mask-2)"></path>
                    </g>
                    <path d="M400.2213,142.8545 C394.3783,143.1755 389.3883,138.6535 389.0753,132.7545 C388.7603,126.8555 393.2413,121.8145 399.0823,121.4945 C404.9253,121.1735 409.9153,125.6955 410.2303,131.5945 C410.5443,137.4925 406.0633,142.5345 400.2213,142.8545 M384.6163,0.9505 L155.7103,13.5095 L190.1593,39.3565 L375.5723,29.1845 L383.8573,184.6885 L423.4583,214.4025 L413.4803,27.1045 C412.6663,11.8305 399.7433,0.1215 384.6163,0.9505" id="Fill-6" fill="#0B4C5F"></path>
                    <polygon id="Fill-8" fill="#24B24A" points="123.4225 317.5825 12.1245 323.6885 0.4285 104.1595 111.7265 98.0525"></polygon>
                    <polygon id="Fill-10" fill="#1D9C41" points="2.4518 130.7578 118.7228 217.9958 112.2548 96.5818 0.9568 102.6878"></polygon>
                    <path d="M56.4098,249.9067 C56.4098,249.9067 54.2898,241.2697 55.3778,240.3917 C56.4648,239.5137 70.5308,236.6147 76.8018,238.7247 L78.0618,248.7197 L59.6178,258.4037 L56.4098,249.9067 Z" id="Fill-12" fill="#896226"></path>
                </g>
                <g id="Group-17" transform="translate(43.000000, 224.091000)">
                    <mask id="mask-4" fill="white">
                        <use xlink:href="#path-3"></use>
                    </mask>
                    <g id="Clip-16"></g>
                    <path d="M29.313,1.066 L29.295,1.067 L20.629,1.543 C20.629,1.543 21.076,9.913 21.348,15.036 C21.622,20.162 15.34,22.955 8.329,25.752 C1.313,28.545 0.647,33.056 0.647,33.056 C0.647,33.056 26.001,39.424 61.387,30.04 C61.387,30.04 60.126,25.591 52.855,23.582 C45.588,21.569 38.97,19.21 38.697,14.084 C38.425,8.961 37.979,0.591 37.979,0.591 L29.313,1.066 Z" id="Fill-15" mask="url(#mask-4)"></path>
                </g>
                <g id="Group-208" transform="translate(0.000000, 0.091000)">
                    <g id="ouwe" transform="translate(23.000000, 161.000000)">
                        <path d="M14.4674,133.7754 L15.4924,133.7194 L25.5154,117.2044 C25.5154,117.2044 26.3804,124.7784 27.3704,133.0674 L76.9454,130.3474 C77.1544,121.1494 77.3784,112.4984 77.3784,112.4984 L87.6404,129.7604 L88.3914,129.7194 L93.8124,129.4224 L100.4604,129.0574 C92.4884,111.9344 81.9514,89.5324 80.6784,87.9984 C78.6004,85.4944 64.7304,83.0324 64.7304,83.0324 L60.5084,89.3384 L52.7264,110.9344 L42.0104,91.7334 L35.6644,84.9944 C35.6644,84.9944 23.3384,88.5254 22.0804,89.2494 C21.2744,89.7134 8.8924,115.8734 0.1214,134.5624" id="Fill-18" fill="#896226"></path>
                        <path d="M78.5133,26.9297 C79.8453,51.9297 71.9683,69.3987 49.3893,70.6377 C26.8113,71.8757 17.5413,55.1027 16.2103,30.1027 C14.8773,5.0977 35.7513,1.3567 46.0493,0.7917 C56.3473,0.2267 77.1813,1.9247 78.5133,26.9297" id="Fill-20" fill="#E8CBAD"></path>
                        <path d="M40.9323,45.0493 C41.1163,48.4833 38.4733,51.4213 35.0363,51.6103 C31.5963,51.7983 28.6623,49.1663 28.4803,45.7323 C28.2973,42.2993 30.9343,39.3623 34.3733,39.1733 C37.8113,38.9853 40.7493,41.6153 40.9323,45.0493" id="Fill-22" fill="#8C7163"></path>
                        <path d="M39.3307,45.1357 C39.4587,47.5317 37.6357,49.5837 35.2637,49.7147 C32.8897,49.8447 30.8617,48.0037 30.7337,45.6077 C30.6057,43.2157 32.4267,41.1627 34.8017,41.0327 C37.1737,40.9027 39.2037,42.7437 39.3307,45.1357" id="Fill-24" fill="#2A2011"></path>
                        <path d="M33.1012,43.2221 C33.1382,43.9141 32.6102,44.5111 31.9262,44.5491 C31.2392,44.5861 30.6512,44.0511 30.6142,43.3591 C30.5772,42.6661 31.1052,42.0751 31.7922,42.0371 C32.4762,42.0001 33.0642,42.5301 33.1012,43.2221" id="Fill-26" fill="#FEFEFE"></path>
                        <path d="M56.1666,44.2133 C56.3496,47.6473 59.2876,50.2793 62.7256,50.0903 C66.1646,49.9013 68.8016,46.9633 68.6186,43.5303 C68.4366,40.0963 65.5026,37.4653 62.0626,37.6543 C58.6256,37.8423 55.9826,40.7793 56.1666,44.2133" id="Fill-28" fill="#8C7163"></path>
                        <path d="M57.7682,44.124 C57.8952,46.52 59.9252,48.361 62.2972,48.231 C64.6722,48.101 66.4932,46.049 66.3652,43.653 C66.2372,41.26 64.2092,39.419 61.8352,39.55 C59.4632,39.68 57.6402,41.732 57.7682,44.124" id="Fill-30" fill="#2A2011"></path>
                        <path d="M57.8912,41.8623 C57.9282,42.5543 58.5162,43.0903 59.2012,43.0523 C59.8872,43.0143 60.4152,42.4183 60.3782,41.7253 C60.3412,41.0333 59.7532,40.5033 59.0672,40.5413 C58.3822,40.5783 57.8542,41.1703 57.8912,41.8623" id="Fill-32" fill="#FEFEFE"></path>
                        <path d="M59.776,59.2509 C59.344,58.6519 56.694,54.3109 53.894,53.0289 C51.356,51.8669 48.625,53.7269 48.625,53.7269 L48.585,53.7289 C48.585,53.7289 45.671,52.1789 43.271,53.6119 C40.623,55.1919 38.45,59.7979 38.085,60.4409 C37.448,61.5589 36.625,61.9529 36.625,61.9529 C36.625,61.9529 37.423,62.0769 38.607,61.8849 C40.133,61.6379 46.827,59.5319 48.908,59.4179 C50.988,59.3039 57.867,60.6649 59.41,60.7439 C60.607,60.8049 61.387,60.5939 61.387,60.5939 C61.387,60.5939 60.528,60.2929 59.776,59.2509" id="Fill-34" fill="#FEFEFE"></path>
                        <path d="M59.776,59.2509 C58.929,58.3799 58.149,57.4789 57.303,56.6579 C56.474,55.8309 55.607,55.0449 54.694,54.4389 C53.743,53.8109 52.908,53.4979 51.96,53.6629 C51.033,53.7829 49.99,54.2799 49.233,54.8729 L48.668,55.3149 L48.057,54.9329 C47.249,54.4259 46.163,54.0419 45.236,54.0309 C44.763,54.0139 44.312,54.0919 43.898,54.2769 C43.483,54.4649 43.028,54.7709 42.612,55.1179 C41.772,55.8199 40.997,56.6939 40.262,57.6039 C39.511,58.5089 38.833,59.4859 38.085,60.4409 C38.436,59.2849 38.891,58.1639 39.436,57.0699 C40.007,55.9919 40.644,54.9259 41.535,53.9849 C41.971,53.5059 42.462,53.0619 43.108,52.7109 C43.755,52.3539 44.495,52.1679 45.212,52.1369 C45.932,52.1069 46.624,52.2379 47.273,52.4309 C47.934,52.6359 48.509,52.8739 49.151,53.2589 L47.975,53.3189 C48.572,52.8729 49.119,52.5739 49.754,52.2999 C50.377,52.0399 51.047,51.8329 51.766,51.7809 C52.48,51.7289 53.236,51.8259 53.922,52.1039 C54.614,52.3769 55.146,52.7689 55.637,53.1969 C56.629,54.0349 57.38,55.0279 58.065,56.0399 C58.727,57.0699 59.3,58.1379 59.776,59.2509" id="Fill-36" fill="#E5E6E6"></path>
                        <path d="M13.8531,133.7778 L5.7641,122.5758 C5.0861,124.0108 4.4131,125.4398 3.7471,126.8558 L8.9441,134.0538" id="Fill-38" fill="#877A45"></path>
                        <path d="M17.3326,130.6899 L19.9386,126.3949 L10.2876,113.0279 C9.5416,114.5959 8.7846,116.1909 8.0226,117.7989 L17.3326,130.6899 Z" id="Fill-40" fill="#877A45"></path>
                        <path d="M3.4137,134.3818 L1.4937,131.6428 C1.0287,132.6328 0.5707,133.6078 0.1227,134.5628" id="Fill-42" fill="#877A45"></path>
                        <path d="M100.2858,129.0576 L67.4298,83.5576 C65.8188,83.2246 64.7318,83.0316 64.7318,83.0316 L63.5028,85.1926 L95.3748,129.3306" id="Fill-44" fill="#877A45"></path>
                        <path d="M60.986,89.6142 L59.397,92.4062 L58.697,94.3502 L77.192,119.9632 C77.3,115.5552 77.38,112.4982 77.38,112.4982" id="Fill-46" fill="#877A45"></path>
                        <path d="M56.943,131.4502 L25.575,88.0112 C23.837,88.5622 22.46,89.0322 22.083,89.2492 C22.023,89.2832 21.902,89.4562 21.724,89.7532 L52.032,131.7232" id="Fill-48" fill="#877A45"></path>
                        <path d="M14.7174,103.7666 C14.0244,105.2056 13.3024,106.7096 12.5584,108.2666 L22.5464,122.0986 L25.0164,118.0296 L14.7174,103.7666 Z" id="Fill-50" fill="#877A45"></path>
                        <path d="M76.9469,130.3476 C76.9679,129.4286 76.9879,128.5146 77.0089,127.6156 L56.7989,99.6266 L54.8989,104.9026 L73.3799,130.4946" id="Fill-52" fill="#877A45"></path>
                        <path d="M67.902,130.8149 L53,110.1779 L52.727,110.9339 L49.894,105.8779 L34.962,85.1979 C34.013,85.4719 32.216,85.9939 30.251,86.5799 L62.423,131.1319" id="Fill-54" fill="#877A45"></path>
                        <path d="M74.3365,85.2168 L90.2045,107.1908 C85.4225,97.1028 81.4325,88.9048 80.6805,87.9978 C79.8645,87.0158 77.2325,86.0408 74.3365,85.2168" id="Fill-56" fill="#877A45"></path>
                        <path d="M46.5338,132.0156 L19.3248,94.3356 C18.6468,95.6906 17.8668,97.2746 17.0088,99.0346 L41.0528,132.3306" id="Fill-58" fill="#877A45"></path>
                        <path d="M35.5338,132.5937 L25.7238,119.0097 C25.9438,120.9147 26.3198,124.1637 26.7638,127.9407 L30.3278,132.8747" id="Fill-60" fill="#877A45"></path>
                        <path d="M34.9283,85.2065 C34.9283,85.2065 44.1103,103.5935 53.0993,116.8045 C59.8953,103.3005 66.1993,83.2375 66.1993,83.2375 L61.2433,81.4645 L53.5133,93.0155 L46.9913,90.7545 L36.6043,84.3705 L34.9283,85.2065 Z" id="Fill-62" fill="#66682E"></path>
                        <path d="M30.068,132.9883 L46.693,101.4733 L47.047,100.8023 L44.639,96.5063 L43.989,97.7383 L26.998,129.9473 C27.118,130.9673 27.243,132.0113 27.369,133.0683" id="Fill-64" fill="#66682E"></path>
                        <polyline id="Fill-66" fill="#66682E" points="40.8707 132.3154 52.4287 110.4074 49.7377 105.6054 35.5077 132.5794"></polyline>
                        <path d="M9.1959,134.0644 L34.9779,85.1014 C33.7799,85.4474 31.2809,86.1744 28.7919,86.9274 L3.7519,134.2724" id="Fill-68" fill="#66682E"></path>
                        <path d="M66.6735,83.4048 C65.4885,83.1678 64.7285,83.0318 64.7285,83.0318 L59.3935,92.4058 L53.9545,107.5138 L66.6735,83.4048 Z" id="Fill-70" fill="#66682E"></path>
                        <path d="M62.108,131.1479 L82.808,91.9079 C81.719,89.7489 80.962,88.3429 80.676,87.9979 C80.51,87.7989 80.263,87.5999 79.962,87.4019 L56.717,131.4639" id="Fill-72" fill="#66682E"></path>
                        <path d="M15.486,133.7256 L25.512,117.2046 C25.512,117.2046 25.72,119.0216 26.049,121.8456 L40.983,93.5696 L37.992,89.3156 L14.528,133.7836" id="Fill-74" fill="#66682E"></path>
                        <path d="M72.2174,130.5966 L77.1534,121.3906 C77.2794,116.2286 77.3754,112.4986 77.3754,112.4986 L79.7434,116.4816 L87.5644,101.6566 C86.7754,100.0066 86.0274,98.4546 85.3324,97.0256 L67.4874,130.8536" id="Fill-76" fill="#66682E"></path>
                        <path d="M22.4342,89.0844 C22.2772,89.1494 22.1562,89.2054 22.0792,89.2494 C21.7032,89.4654 18.8232,95.2424 14.9662,103.2404 L22.4342,89.0844 Z" id="Fill-78" fill="#66682E"></path>
                        <path d="M82.5114,121.1377 L85.2794,125.7937 L92.5124,112.0827 C91.6734,110.3037 90.8474,108.5537 90.0434,106.8597 L82.5114,121.1377 Z" id="Fill-80" fill="#66682E"></path>
                        <path d="M88.4283,129.7275 L94.9743,117.3185 C95.7953,119.0715 96.6173,120.8285 97.4303,122.5655 L93.8133,129.4225" id="Fill-82" fill="#66682E"></path>
                        <path d="M60.0524,87.2363 L59.9754,86.5453" id="Fill-84" fill="#9D752B"></path>
                        <path d="M38.484,84.9331 C38.484,84.9331 51.851,94.0171 63.269,83.2461 L52.596,109.2641 L38.484,84.9331 Z" id="Fill-86" fill="#FEFEFE"></path>
                        <path d="M33.6969,36.6386 C28.5359,36.9216 25.3839,40.5586 25.6689,45.9046 C25.9459,51.1066 29.3749,54.1596 34.6159,53.8716 C39.7449,53.5906 44.8829,50.1456 44.6009,44.8656 C44.3119,39.4306 38.7169,36.3636 33.6969,36.6386 M34.6689,54.8686 C28.8179,55.1896 24.9919,51.7756 24.6809,45.9586 C24.3689,40.0986 27.9709,35.9526 33.6439,35.6416 C39.1369,35.3406 45.2659,38.7606 45.5889,44.8116 C45.9029,50.7146 40.2839,54.5606 34.6689,54.8686" id="Fill-88" fill="#6D3926"></path>
                        <path d="M61.3278,35.1225 C55.8428,35.4235 52.0578,39.3435 52.3298,44.4415 C52.5948,49.4085 56.6718,52.6625 62.2458,52.3565 C67.8188,52.0505 71.5268,48.3695 71.2628,43.4035 C70.9908,38.3045 66.8118,34.8215 61.3278,35.1225 M62.2998,53.3525 C56.1438,53.6905 51.6388,50.0485 51.3428,44.4965 C51.0448,38.9105 55.3148,34.4535 61.2748,34.1255 C67.2328,33.7995 71.9518,37.7635 72.2498,43.3495 C72.5458,48.9015 68.4538,53.0155 62.2998,53.3525" id="Fill-90" fill="#6D3926"></path>
                        <path d="M15.4528,45.4712 C15.4328,45.3982 14.9728,43.6852 15.7558,42.3012 C16.1748,41.5642 16.8518,41.0642 17.7738,40.8162 C20.1658,40.1872 25.0568,42.5662 25.2658,42.6682 L24.8308,43.5662 C23.5138,42.9162 19.7078,41.3112 18.0268,41.7822 C17.3638,41.9592 16.9038,42.2912 16.6168,42.7912 C16.0368,43.8112 16.3998,45.1892 16.4048,45.2022 L15.4528,45.4712 Z" id="Fill-92" fill="#6D3926"></path>
                        <path d="M81.5348,41.8457 L80.5588,41.6827 C80.5618,41.6687 80.7768,40.2587 80.0928,39.3087 C79.7548,38.8427 79.2618,38.5637 78.5838,38.4597 C76.8578,38.1977 73.2508,40.1877 72.0098,40.9777 L71.4798,40.1327 C71.6778,40.0087 76.2828,37.1037 78.7318,37.4717 C79.6758,37.6167 80.4018,38.0397 80.8968,38.7277 C81.8218,40.0177 81.5468,41.7707 81.5348,41.8457" id="Fill-94" fill="#6D3926"></path>
                        <path d="M45.0514,43.1425 L44.3854,42.4055 C44.4204,42.3705 47.8344,39.3185 52.1114,41.8275 L51.6154,42.6905 C47.9474,40.5355 45.0764,43.1175 45.0514,43.1425" id="Fill-96" fill="#6D3926"></path>
                        <path d="M18.3561,42.9926 C18.3561,42.9926 15.3611,41.5206 14.1641,43.3866 C12.9661,45.2516 15.3721,50.8466 17.3101,50.7406 C19.2501,50.6346 19.7831,48.4776 19.7831,48.4776 L18.3561,42.9926 Z" id="Fill-98" fill="#E8CBAD"></path>
                        <path d="M77.9049,39.7256 C77.9049,39.7256 80.7259,37.9346 82.1149,39.6586 C83.5039,41.3826 81.7069,47.2076 79.7679,47.3136 C77.8289,47.4206 77.0689,45.3346 77.0689,45.3346 L77.9049,39.7256 Z" id="Fill-100" fill="#E8CBAD"></path>
                        <path d="M29.9127,4.3979 C29.9127,4.3979 32.9587,12.9029 32.1447,15.8929 C31.3327,18.8819 22.7277,21.6459 21.2377,27.1269 C19.7477,32.6079 17.2387,40.2729 17.2387,40.2729 C17.2387,40.2729 14.4217,31.2549 15.6537,22.6879 C17.0917,12.6929 23.0327,3.0129 29.9127,4.3979" id="Fill-102" fill="#E5E6E6"></path>
                        <path d="M62.1588,2.6284 C62.1588,2.6284 60.0338,11.4174 61.1598,14.3004 C62.2858,17.1844 71.1338,18.9894 73.1978,24.2754 C75.2618,29.5624 78.5698,36.9074 78.5698,36.9074 C78.5698,36.9074 80.4128,27.6344 78.2778,19.2524 C75.7868,9.4734 68.8508,0.4994 62.1588,2.6284" id="Fill-104" fill="#E5E6E6"></path>
                        <path d="M57.0826,12.479 C57.0826,12.479 58.7626,16.641 47.8876,19.365 C37.0136,22.089 24.8986,19.808 20.1236,30.542 C20.1236,30.542 20.9466,21.661 29.3766,15.635 C37.8066,9.61 49.8516,10.585 49.8516,10.585 C49.8516,10.585 43.3756,7.668 33.0626,11.833 C33.0626,11.833 46.3976,3.575 57.0826,12.479" id="Fill-106" fill="#FEFEFE"></path>
                        <path d="M60.3737,13.2861 C60.1587,14.2761 59.7407,15.0311 59.2237,15.7631 C58.7067,16.4801 58.1087,17.1271 57.4457,17.6871 C56.1197,18.8041 54.6277,19.6931 53.0467,20.3281 C52.2737,20.6901 51.4487,20.9131 50.6557,21.2111 C49.8347,21.4221 49.0227,21.6691 48.1977,21.8501 C47.3667,22.0051 46.5427,22.1931 45.7087,22.3191 L43.2007,22.6491 L45.6857,22.1961 C46.5107,22.0301 47.3207,21.8011 48.1377,21.6071 C48.9467,21.3881 49.7377,21.1031 50.5367,20.8551 C51.3047,20.5231 52.1027,20.2651 52.8397,19.8731 C54.3527,19.1781 55.7477,18.2431 56.9417,17.1311 C57.5397,16.5751 58.0607,15.9471 58.4967,15.2761 C58.9307,14.6231 59.2707,13.8311 59.3807,13.1651 L59.3917,13.0991 C59.4367,12.8271 59.6937,12.6421 59.9657,12.6871 C60.2377,12.7321 60.4227,12.9891 60.3777,13.2621 C60.3767,13.2691 60.3747,13.2791 60.3737,13.2861" id="Fill-108" fill="#FEFEFE"></path>
                        <path d="M62.6549,3.0102 C62.6549,3.0102 60.8469,12.4362 63.7649,14.7302 C66.6829,17.0252 71.4029,16.6432 74.4509,21.3852 C74.4509,21.3852 74.5949,19.5362 74.0889,16.8642 C74.0889,16.8642 77.2059,20.6202 78.4679,26.0732 C78.4679,26.0732 77.2909,7.6762 65.9469,3.1972 C64.8399,2.7612 63.3729,2.7872 62.6549,3.0102" id="Fill-110" fill="#FEFEFE"></path>
                        <path d="M29.7682,4.8149 C29.7682,4.8149 32.5662,13.9879 29.9092,16.5879 C27.2512,19.1879 22.5192,19.3249 19.9932,24.3729 C19.9932,24.3729 19.6522,22.5499 19.8722,19.8379 C19.8722,19.8379 17.1722,23.9139 16.4972,29.4729 C16.4972,29.4729 15.7122,11.0539 26.5152,5.3609 C27.5692,4.8059 29.0312,4.6709 29.7682,4.8149" id="Fill-112" fill="#FEFEFE"></path>
                        <path d="M25.8247,14.358 C20.7587,16.599 18.8797,17.848 17.9617,21.907 C17.9617,21.907 19.8487,17.794 22.7817,16.57 C25.7157,15.346 28.7807,15.096 29.4717,12.849 C29.4717,12.849 29.0577,15.735 23.8557,18.475 C23.8557,18.475 29.2797,16.868 29.9327,15.441 C30.5867,14.015 31.5487,10.771 30.0367,5.209 C30.0367,5.209 30.8907,12.116 25.8247,14.358 Z" id="Fill-114" fill="#E5E6E6"></path>
                        <path d="M63.2106,3.3891 C63.2106,3.3891 63.0956,10.3491 68.3696,12.0231 C73.6456,13.6981 75.6456,14.7331 76.9886,18.6681 C76.9886,18.6681 74.6756,14.7861 71.6296,13.8901 C68.5836,12.9931 65.5096,13.0801 64.5836,10.9221 C64.5836,10.9221 65.3016,13.7461 70.7646,15.9011 C70.7646,15.9011 65.2006,14.8971 64.3996,13.5501 C63.5996,12.2031 62.2986,9.0841 63.2106,3.3891" id="Fill-116" fill="#E5E6E6"></path>
                        <polyline id="Fill-118" fill="#66682E" points="48.399 131.8115 46.224 132.0535 71.326 84.3885 74.165 85.2145 75.199 86.3745 51.35 131.7205"></polyline>
                        <path d="M23.6803,24.2929 C24.1543,23.6949 24.8403,23.3079 25.5073,22.9529 C26.1893,22.6139 26.8923,22.3179 27.6093,22.0639 C29.0413,21.5459 30.5133,21.1459 31.9963,20.8139 C34.9633,20.1509 37.9903,19.7599 40.9863,19.3649 C43.9723,18.9959 46.9473,18.4769 49.7913,17.5809 C51.1923,17.0919 52.5863,16.5569 53.8163,15.7789 C54.4103,15.3759 55.0023,14.9519 55.4453,14.4219 C55.5673,14.2969 55.6733,14.1639 55.7613,14.0209 C55.8613,13.8839 55.9563,13.7469 56.0223,13.5989 C56.1833,13.3339 56.2753,12.9589 56.2833,12.7829 L57.1433,13.0639 C56.0453,14.1409 54.8333,14.7649 53.5643,15.3609 C52.2953,15.9319 50.9783,16.3599 49.6463,16.7069 C46.9823,17.4089 44.2423,17.7299 41.5253,17.8669 C38.8033,18.0379 36.0763,17.9999 33.3783,18.0619 C32.0323,18.0989 30.6843,18.1989 29.3923,18.5649 C28.1013,18.9249 26.8943,19.5779 25.8233,20.4119 C26.8273,19.5019 28.0083,18.7549 29.3173,18.3249 C30.6203,17.8799 31.9953,17.7069 33.3533,17.5989 C36.0763,17.4209 38.7813,17.3939 41.4703,17.1319 C44.1623,16.8869 46.8333,16.5459 49.4163,15.8419 C50.7043,15.4909 51.9723,15.0639 53.1733,14.5069 C54.3503,13.9569 55.5653,13.2589 56.4013,12.4199 L56.4543,12.3649 C56.6393,12.1809 56.9383,12.1799 57.1223,12.3639 C57.2153,12.4569 57.2623,12.5799 57.2613,12.7009 C57.2583,13.2809 57.1083,13.6499 56.9093,14.0469 C56.8203,14.2469 56.7033,14.4209 56.5813,14.5919 C56.4663,14.7709 56.3353,14.9309 56.1923,15.0779 C55.6513,15.7059 54.9923,16.1639 54.3323,16.6009 C52.9873,17.4309 51.5293,17.9689 50.0713,18.4599 C47.1243,19.3409 44.1073,19.8759 41.0773,20.1589 C38.0613,20.4599 35.0643,20.7499 32.0983,21.3129 C30.6153,21.5769 29.1373,21.8879 27.6973,22.3279 C26.9753,22.5409 26.2663,22.7969 25.5763,23.0959 C24.8943,23.4019 24.1933,23.7319 23.6803,24.2929" id="Fill-120" fill="#E5E6E6"></path>
                        <path d="M48.5035,11.1499 C49.1605,11.0349 49.8265,10.9859 50.4945,10.9529 C51.1625,10.9179 51.8355,10.9129 52.5075,10.9659 C53.8475,11.0649 55.2195,11.2889 56.4955,11.9689 C56.7105,12.0839 56.7925,12.3509 56.6775,12.5669 C56.6455,12.6269 56.6015,12.6769 56.5495,12.7149 L56.5425,12.7199 C55.4175,13.5409 54.2375,14.0259 53.0205,14.5009 C51.7995,14.9399 50.5515,15.2809 49.2875,15.5299 C48.0275,15.8009 46.7485,15.9459 45.4735,16.0549 C44.1945,16.1489 42.9135,16.1589 41.6375,16.1079 C42.2675,15.9889 42.8965,15.8979 43.5245,15.8029 L45.3965,15.4639 C46.6375,15.2179 47.8735,14.9739 49.0885,14.6579 C50.3025,14.3379 51.5125,14.0089 52.6765,13.5639 C53.8345,13.1459 55.0145,12.6219 55.9885,12.0009 L56.0355,12.7519 C54.9875,12.1329 53.7125,11.7999 52.4345,11.5719 C51.1485,11.3509 49.8325,11.2129 48.5035,11.1499" id="Fill-122" fill="#E5E6E6"></path>
                        <polygon id="Fill-124" fill="#9D752B" points="50.3571 114.3774 47.2961 110.1684 44.9121 114.8394 47.9261 118.9514"></polygon>
                        <polygon id="Fill-126" fill="#9D752B" points="38.566 98.1045 35.539 93.9395 33.146 98.4635 36.15 102.6555"></polygon>
                        <polygon id="Fill-128" fill="#9D752B" points="30.9547 102.5669 28.5617 107.0899 31.6307 111.3579 34.0007 106.7899"></polygon>
                        <polygon id="Fill-130" fill="#9D752B" points="29.2047 115.9116 26.1767 111.7466 23.7847 116.2696 25.0467 117.9956 25.5297 117.1916 25.6947 118.9366 26.7877 120.4616"></polygon>
                        <polygon id="Fill-132" fill="#9D752B" points="45.7809 123.1577 42.7679 118.8867 40.3369 123.4387 43.3499 127.7317"></polygon>
                        <polyline id="Fill-134" fill="#9D752B" points="40.9303 132.3471 40.9783 132.2571 37.9183 128.0481 35.5273 132.5971"></polyline>
                        <polygon id="Fill-136" fill="#9D752B" points="37.0026 110.9531 34.6166 115.5171 37.3236 119.2651 39.7086 114.7011"></polygon>
                        <polygon id="Fill-138" fill="#9D752B" points="34.8893 123.8598 32.1393 120.0558 29.7543 124.6198 32.5183 128.4078"></polygon>
                        <polyline id="Fill-140" fill="#9D752B" points="30.0553 132.9043 30.1553 132.7133 27.4493 128.9653 26.9773 129.8683 27.3673 133.0683"></polyline>
                        <polyline id="Fill-142" fill="#9D752B" points="51.3502 131.7202 51.6362 131.1712 48.7732 127.2372 46.4032 131.7852 46.5522 131.9972"></polyline>
                        <polygon id="Fill-144" fill="#9D752B" points="56.1871 122.4843 53.3241 118.5503 50.9541 123.0983 53.7801 127.0953"></polygon>
                        <polygon id="Fill-146" fill="#9D752B" points="60.986 113.3242 58.124 109.3902 55.753 113.9382 58.579 117.9352"></polygon>
                        <polygon id="Fill-148" fill="#9D752B" points="65.8492 104.2216 62.9862 100.2876 60.6152 104.8356 63.4412 108.8326"></polygon>
                        <polygon id="Fill-150" fill="#9D752B" points="70.5592 95.0966 67.6962 91.1626 65.3252 95.7106 68.1512 99.7076"></polygon>
                        <polygon id="Fill-152" fill="#9D752B" points="75.1989 86.3745 74.1649 85.2145 71.3259 84.3885 69.9659 86.9885 72.7919 90.9855"></polygon>
                        <polyline id="Fill-154" fill="#9D752B" points="61.9821 131.1714 62.1291 130.8894 59.1551 126.6724 56.7831 131.1904 56.9201 131.3874"></polyline>
                        <polygon id="Fill-156" fill="#9D752B" points="66.483 113.0786 69.445 117.3416 71.83 112.7776 68.856 108.5616"></polygon>
                        <polygon id="Fill-158" fill="#9D752B" points="71.3395 103.854 74.3015 108.117 76.6865 103.553 73.7115 99.336"></polygon>
                        <polygon id="Fill-160" fill="#9D752B" points="81.1735 94.8081 78.1985 90.5921 75.8265 95.1091 78.7885 99.3721"></polygon>
                        <polygon id="Fill-162" fill="#9D752B" points="67.0426 121.8608 64.0336 117.5768 61.6326 122.1268 64.6566 126.4248"></polygon>
                        <polyline id="Fill-164" fill="#9D752B" points="72.2174 130.5966 72.7124 129.6186 70.0764 125.9636 67.6834 130.4776 67.8994 130.8156"></polyline>
                        <polygon id="Fill-166" fill="#9D752B" points="77.2955 112.3296 80.0025 116.0776 82.3875 111.5136 79.6815 107.7656"></polygon>
                        <polygon id="Fill-168" fill="#9D752B" points="86.9987 102.8232 84.2927 99.0752 81.9077 103.6392 84.6137 107.3872"></polygon>
                        <polygon id="Fill-170" fill="#9D752B" points="44.2448 106.0151 41.5378 102.2671 39.1528 106.8311 41.8588 110.5791"></polygon>
                        <polygon id="Fill-172" fill="#9D752B" points="32.5358 89.7505 30.2058 86.5315 28.7588 86.9905 27.1188 90.1265 30.1218 94.3035"></polygon>
                        <polygon id="Fill-174" fill="#9D752B" points="27.9449 98.4497 24.9239 94.2177 22.4749 98.7877 25.5729 102.9767"></polygon>
                        <polygon id="Fill-176" fill="#9D752B" points="17.7125 107.9082 20.7395 112.1212 23.1535 107.5692 20.1225 103.3812"></polygon>
                        <polygon id="Fill-178" fill="#9D752B" points="13.0192 116.7763 16.0282 121.0113 18.4412 116.4583 15.4112 112.2713"></polygon>
                        <polygon id="Fill-180" fill="#9D752B" points="8.1803 125.9389 11.2423 130.1679 13.6253 125.6809 10.5913 121.3889"></polygon>
                        <polyline id="Fill-182" fill="#9D752B" points="8.9205 134.0674 5.9835 130.0094 3.7005 134.3774"></polyline>
                        <polygon id="Fill-184" fill="#9D752B" points="83.0905 120.0522 86.0525 124.3152 88.4385 119.7512 85.4635 115.5352"></polygon>
                        <polygon id="Fill-186" fill="#9D752B" points="90.9362 108.7563 90.0492 106.9383 87.6762 111.4553 90.6382 115.7183 92.5302 112.0643"></polygon>
                        <polyline id="Fill-188" fill="#9D752B" points="93.8112 129.396 94.4382 128.196 91.4632 123.98 89.0912 128.498 89.8732 129.623"></polyline>
                        <polygon id="Fill-190" fill="#9D752B" points="94.9606 117.3711 93.6456 119.8721 96.6066 124.1351 97.3796 122.4751"></polygon>
                        <polygon id="Fill-192" fill="#9D752B" points="72.4908 121.3676 75.1968 125.1156 77.1498 121.3776 77.1968 120.0186 74.8758 116.8036"></polygon>
                        <polygon id="Fill-194" fill="#877A45" points="89.0914 128.4975 88.3944 129.6785 87.6284 129.7615 85.2684 125.7595 86.0524 124.3155"></polygon>
                        <polygon id="Fill-196" fill="#877A45" points="80.0026 116.0771 83.0906 120.0521 82.5296 121.1231 79.7086 116.4521"></polygon>
                        <path d="M39.317,79.395 C39.638,85.431 51.276,89.416 51.276,89.416 C51.276,89.416 61.149,85.396 60.741,77.728 L64.67,83.035 C64.87,86.788 54.713,94.626 54.713,94.626 L51.276,89.416 L48.565,95.577 C48.565,95.577 36.24,90.077 35.962,84.856 L39.317,79.395 Z" id="Fill-198" fill="#EFEEEF"></path>
                    </g>
                    <g id="foon" transform="translate(0.000000, 90.000000)">
                        <mask id="mask-6" fill="white">
                            <use xlink:href="#path-5"></use>
                        </mask>
                        <g id="Clip-201"></g>
                        <path d="M125.9596,196.977 C126.0286,198.29 125.0316,199.413 123.7306,199.484 L24.1466,204.948 C22.8466,205.019 21.7346,204.012 21.6656,202.699 L11.9586,20.507 C12.0566,19.588 12.5116,18.615 14.0726,18.43 L47.1006,16.618 L113.7936,12.958 C115.0946,12.888 116.2046,13.894 116.2746,15.207 L121.0136,104.138 L125.9596,196.977 Z M73.1296,230.726 C68.2706,230.992 64.1196,227.231 63.8576,222.325 C63.5976,217.419 67.3236,213.226 72.1836,212.959 C77.0416,212.693 81.1916,216.454 81.4536,221.36 C81.7156,226.266 77.9876,230.459 73.1296,230.726 Z M108.5636,0.176 L106.2086,0.305 L36.6266,4.123 L18.0506,5.142 C7.5306,5.719 -0.5374,14.797 0.0276,25.418 L10.4766,221.532 C11.1116,233.467 21.2096,242.616 33.0296,241.968 L118.8326,237.26 C130.6526,236.612 139.7196,226.411 139.0836,214.477 L133.9396,117.937 L128.6356,18.363 C128.0686,7.741 119.0826,-0.401 108.5636,0.176 Z" id="Fill-200" fill="#014152" mask="url(#mask-6)"></path>
                    </g>
                    <path d="M108.567,90.2549 L106.213,90.3839 L36.631,94.2019 L18.054,95.2209 C7.535,95.7979 -0.534,104.8759 0.032,115.4969 L0.594,126.0549 L13.295,135.5839 L11.963,110.5859 C12.06,109.6669 12.516,108.6929 14.077,108.5079 L47.104,106.6959 L113.797,103.0369 C115.098,102.9659 116.209,103.9729 116.279,105.2859 L121.017,194.2159 L122.249,217.3329 L134.949,226.8609 L133.945,208.0159 L128.639,108.4419 C128.074,97.8199 119.087,89.6779 108.567,90.2549" id="Fill-203" fill="#0B4C5F"></path>
                    <path d="M75.7514,321.3085 C70.5424,321.5945 66.0924,317.5625 65.8124,312.3025 C65.5314,307.0425 69.5284,302.5475 74.7374,302.2615 C79.9464,301.9755 84.3964,306.0075 84.6764,311.2675 C84.9564,316.5275 80.9604,321.0225 75.7514,321.3085 Z" id="Fill-205" fill="#FEFEFE"></path>
                    <mask id="mask-8" fill="white">
                        <use xlink:href="#path-7"></use>
                    </mask>
                    <g id="Clip-207"></g>
                    <path d="M189.728545,111.063154 C189.660984,113.08999 189.255617,114.914143 188.512444,116.46805 C187.904393,117.819274 186.958536,119.102937 185.607312,120.116355 C184.256088,121.197334 182.431936,121.805385 179.999732,121.805385 C177.567529,121.805385 175.675816,121.197334 174.324592,120.116355 C172.973368,119.102937 172.095072,117.819274 171.487021,116.46805 C170.743848,114.914143 170.338481,113.08999 170.27092,111.063154 L170.27092,81.8091549 C170.338481,79.8498801 170.743848,78.0257277 171.487021,76.4718201 C172.095072,75.1205961 172.973368,73.7693721 174.324592,72.7559541 C175.675816,71.7425361 177.567529,71.0669241 179.999732,71.0669241 C182.431936,71.0669241 184.256088,71.7425361 185.607312,72.7559541 C186.958536,73.7693721 187.904393,75.1205961 188.512444,76.4718201 C189.255617,78.0257277 189.660984,79.8498801 189.728545,81.8091549 L189.728545,111.063154 Z M182.431936,81.8091549 C182.431936,80.4579309 182.161691,79.5120741 181.486079,78.7013397 C181.148273,78.3635337 180.607783,78.1608501 179.999732,78.1608501 C178.71607,78.1608501 178.108019,79.1067069 177.837774,79.9850025 C177.63509,80.5254921 177.567529,81.1335429 177.567529,81.8091549 L177.567529,111.063154 C177.567529,112.48194 177.905335,113.427796 178.580947,114.17097 C178.918753,114.508776 179.391682,114.711459 179.999732,114.711459 C181.283395,114.711459 181.891446,113.900725 182.161691,112.887307 C182.364374,112.414378 182.431936,111.806328 182.431936,111.063154 L182.431936,81.8091549 Z M194.680513,71.6074137 L201.977122,71.6074137 C205.152499,71.6074137 208.327875,72.4181481 210.760078,74.7152289 C213.192282,77.0123097 214.81375,80.7957369 214.81375,86.4708777 C214.81375,92.1460185 213.192282,95.8618845 210.760078,98.1589653 C208.327875,100.456046 205.152499,101.401903 201.977122,101.401903 L201.977122,121.264896 L194.680513,121.264896 L194.680513,71.6074137 Z M201.977122,93.9701709 C204.206642,93.9701709 205.625427,93.5648037 206.436162,92.4162633 C207.246896,91.3352841 207.44958,89.5111317 207.44958,86.7411225 C207.44958,83.9711133 207.246896,82.0118385 206.436162,80.7957369 C205.625427,79.5796353 204.206642,79.0391457 201.977122,79.0391457 L201.977122,93.9701709 Z M215.91473,79.1067069 L215.91473,71.6074137 L236.993824,71.6074137 L236.993824,79.1067069 L230.102582,79.1067069 L230.102582,121.264896 L222.805972,121.264896 L222.805972,79.1067069 L215.91473,79.1067069 Z M239.851394,71.6074137 L247.148004,71.6074137 L247.148004,121.264896 L239.851394,121.264896 L239.851394,71.6074137 Z M264.666355,121.264896 L260.004632,90.0516213 L259.734387,87.9572241 L259.32902,87.9572241 L259.32902,121.264896 L252.5729,121.264896 L252.5729,71.6074137 L261.490978,71.6074137 L265.814895,94.3079769 L266.152701,96.9428637 L266.287824,96.9428637 L266.62563,94.3079769 L270.949546,71.6074137 L279.867625,71.6074137 L279.867625,121.264896 L273.111505,121.264896 L273.111505,87.9572241 L272.706138,87.9572241 L272.435893,90.0516213 L267.77417,121.264896 L264.666355,121.264896 Z M283.265685,121.264896 L290.764978,71.6074137 L299.683056,71.6074137 L307.18235,121.264896 L300.088424,121.264896 L298.7372,111.130716 L291.710835,111.130716 L290.359611,121.264896 L283.265685,121.264896 Z M295.629384,87.7545405 L295.426701,86.4708777 L295.021334,86.4708777 L294.81865,87.7545405 L292.724253,103.428739 L297.723782,103.428739 L295.629384,87.7545405 Z M308.553574,121.264896 L316.052867,71.6074137 L324.970945,71.6074137 L332.470238,121.264896 L325.376312,121.264896 L324.025088,111.130716 L316.998724,111.130716 L315.6475,121.264896 L308.553574,121.264896 Z M320.917273,87.7545405 L320.71459,86.4708777 L320.309222,86.4708777 L320.106539,87.7545405 L318.012142,103.428739 L323.01167,103.428739 L320.917273,87.7545405 Z M335.868298,71.6074137 L343.164908,71.6074137 L343.164908,114.508776 L352.82616,114.508776 L352.82616,121.264896 L335.868298,121.264896 L335.868298,71.6074137 Z" id="OPTIMAAL" fill="#FEFEFE" mask="url(#mask-8)"></path>
                    <path d="M183.102629,178.812489 L183.102629,129.155007 L188.845331,129.155007 C195.601451,129.155007 199.249756,130.506231 201.209031,134.289658 C203.100744,138.073086 203.370989,144.288716 203.370989,154.017529 C203.370989,163.746342 203.100744,169.894411 201.209031,173.677838 C199.249756,177.461265 195.601451,178.812489 188.845331,178.812489 L183.102629,178.812489 Z M190.399239,171.51588 C192.899003,171.51588 194.317788,171.245635 195.060962,168.813432 C195.398768,167.664891 195.669012,165.9083 195.736574,163.543658 C195.804135,161.179016 195.804135,158.00364 195.804135,153.949968 C195.804135,149.896296 195.804135,146.720919 195.736574,144.356277 C195.669012,142.059196 195.398768,140.302605 195.060962,139.086504 C194.317788,136.721862 192.899003,136.451617 190.399239,136.451617 L190.399239,171.51588 Z M208.255396,129.155007 L215.552005,129.155007 L215.552005,178.812489 L208.255396,178.812489 L208.255396,129.155007 Z M232.664989,146.991164 L232.664989,139.356748 C232.664989,138.005524 232.394744,137.059668 231.719132,136.248933 C231.381326,135.911127 230.840836,135.708444 230.232786,135.708444 C228.949123,135.708444 228.341072,136.6543 228.070827,137.532596 C227.868144,138.073086 227.800582,138.681136 227.800582,139.356748 L227.800582,169.218799 C227.800582,170.637584 228.138388,171.583441 228.814,172.326614 C229.151806,172.66442 229.624735,172.867104 230.232786,172.867104 C231.516448,172.867104 232.124499,172.056369 232.394744,171.042951 C232.597428,170.570023 232.664989,169.961972 232.664989,169.218799 L232.664989,160.233159 L229.759857,160.233159 L229.759857,154.08509 L239.961598,154.08509 L239.961598,178.812489 L235.637682,178.812489 L234.759386,176.447847 C233.408162,178.136877 231.448887,179.352979 229.084245,179.352979 C226.719603,179.352979 225.098134,178.744928 223.882033,177.663949 C222.665931,176.650531 221.855197,175.366868 221.314707,174.015644 C220.706656,172.461736 220.436412,170.637584 220.503973,168.610748 L220.503973,139.356748 C220.571534,137.397474 220.976901,135.573321 221.720074,134.019414 C222.328125,132.66819 223.206421,131.316966 224.557645,130.303548 C225.908869,129.29013 227.800582,128.614518 230.232786,128.614518 C232.664989,128.614518 234.489141,129.29013 235.840365,130.303548 C237.191589,131.316966 238.137446,132.66819 238.745497,134.019414 C239.48867,135.573321 239.894037,137.397474 239.961598,139.356748 L239.961598,146.991164 L232.664989,146.991164 Z M245.318933,129.155007 L252.615543,129.155007 L252.615543,178.812489 L245.318933,178.812489 L245.318933,129.155007 Z M255.473113,136.6543 L255.473113,129.155007 L276.552208,129.155007 L276.552208,136.6543 L269.660965,136.6543 L269.660965,178.812489 L262.364356,178.812489 L262.364356,136.6543 L255.473113,136.6543 Z M274.506727,178.812489 L282.006021,129.155007 L290.924099,129.155007 L298.423392,178.812489 L291.329466,178.812489 L289.978242,168.678309 L282.951877,168.678309 L281.600653,178.812489 L274.506727,178.812489 Z M286.870427,145.302134 L286.667743,144.018471 L286.262376,144.018471 L286.059693,145.302134 L283.965295,160.976332 L288.964824,160.976332 L286.870427,145.302134 Z M299.794616,178.812489 L307.293909,129.155007 L316.211988,129.155007 L323.711281,178.812489 L316.617355,178.812489 L315.266131,168.678309 L308.239766,168.678309 L306.888542,178.812489 L299.794616,178.812489 Z M312.158316,145.302134 L311.955632,144.018471 L311.550265,144.018471 L311.347581,145.302134 L309.253184,160.976332 L314.252713,160.976332 L312.158316,145.302134 Z M327.109341,129.155007 L334.405951,129.155007 L334.405951,172.056369 L344.067202,172.056369 L344.067202,178.812489 L327.109341,178.812489 L327.109341,129.155007 Z" id="DIGITAAL" fill="#FEFEFE" mask="url(#mask-8)"></path>
                </g>
            </g>
        </g>
    </g>
</svg>