<svg height="331" viewBox="0 0 432 331" width="432" xmlns="http://www.w3.org/2000/svg" xmlns:xlink="http://www.w3.org/1999/xlink"><mask id="a" fill="#fff"><path d="m.55965591.90956334h349.19334409v281.76006966h-349.19334409z" fill="none"/></mask><mask id="b" fill="#fff"><path d="m29.313 1.066-.018.001-8.666.476s.447 8.37.719 13.493c.274 5.126-6.008 7.919-13.019 10.716-7.016 2.793-7.682 7.304-7.682 7.304s25.354 6.368 60.74-3.016c0 0-1.261-4.449-8.532-6.458-7.267-2.013-13.885-4.372-14.158-9.498-.272-5.123-.718-13.493-.718-13.493z" fill="none"/></mask><mask id="c" fill="#fff"><path d="m0 .14713163h139.115115v241.85286837h-139.115115z" fill="none"/></mask><mask id="d" fill="#fff"><path d="m0 332h431.753v-331.091h-431.753z" fill="none"/></mask><g fill="none" fill-rule="evenodd" transform="translate(0 -1)"><path d="m402.8463 259.9689-293.314 16.092-13.106-245.99 293.315-16.092z" fill="#24b24a"/><path d="m233.3375 30.0924-36.178 9.355 214.352 163.405-13.735-38.048-6.923-129.961-5.942-13.067z" fill="#1d9c41"/><g transform="translate(7 .091)"><path d="m32.5319 43.8901 268.04-14.706 11.232 210.832-268.039 14.706zm281.542 88.865c-.314-5.899 4.167-10.941 10.009-11.261 5.842-.321 10.833 4.201 11.147 10.1s-4.167 10.94-10.009 11.26c-5.842.321-10.833-4.201-11.147-10.099zm-313.474-87.113 11.233 210.832c.814 15.274 13.737 26.984 28.865 26.154l283.097-15.532c15.128-.83 26.732-13.885 25.918-29.159l-11.233-210.832c-.813-15.275-13.737-26.984-28.865-26.154l-283.097 15.531c-15.128.83-26.731 13.886-25.918 29.16z" fill="#014152" mask="url(#a)" transform="translate(75)"/><path d="m400.2213 142.8545c-5.843.321-10.833-4.201-11.146-10.1-.315-5.899 4.166-10.94 10.007-11.26 5.843-.321 10.833 4.201 11.148 10.1.314 5.898-4.167 10.94-10.009 11.26m-15.605-141.904-228.906 12.559 34.449 25.847 185.413-10.172 8.285 155.504 39.601 29.714-9.978-187.298c-.814-15.274-13.737-26.983-28.864-26.154" fill="#0b4c5f"/><path d="m123.4225 317.5825-111.298 6.106-11.696-219.529 111.298-6.107z" fill="#24b24a"/><path d="m2.4518 130.7578 116.271 87.238-6.468-121.414-111.298 6.106z" fill="#1d9c41"/><path d="m56.4098 249.9067s-2.12-8.637-1.032-9.515c1.087-.878 15.153-3.777 21.424-1.667l1.26 9.995-18.444 9.684z" fill="#896226"/></g><path d="m29.313 1.066-.018.001-8.666.476s.447 8.37.719 13.493c.274 5.126-6.008 7.919-13.019 10.716-7.016 2.793-7.682 7.304-7.682 7.304s25.354 6.368 60.74-3.016c0 0-1.261-4.449-8.532-6.458-7.267-2.013-13.885-4.372-14.158-9.498-.272-5.123-.718-13.493-.718-13.493z" mask="url(#b)" transform="translate(43 224.091)"/><g transform="translate(0 .091)"><g transform="translate(23 161)"><path d="m14.4674 133.7754 1.025-.056 10.023-16.515s.865 7.574 1.855 15.863l49.575-2.72c.209-9.198.433-17.849.433-17.849l10.262 17.262.751-.041 5.421-.297 6.648-.365c-7.972-17.123-18.509-39.525-19.782-41.059-2.078-2.504-15.948-4.966-15.948-4.966l-4.222 6.306-7.782 21.596-10.716-19.201-6.346-6.739s-12.326 3.531-13.584 4.255c-.806.464-13.188 26.624-21.959 45.313" fill="#896226"/><path d="m78.5133 26.9297c1.332 25-6.545 42.469-29.124 43.708-22.578 1.238-31.848-15.535-33.179-40.535-1.333-25.005 19.541-28.746 29.839-29.311s31.132 1.133 32.464 26.138" fill="#e8cbad"/><path d="m40.9323 45.0493c.184 3.434-2.459 6.372-5.896 6.561-3.44.188-6.374-2.444-6.556-5.878-.183-3.433 2.454-6.37 5.893-6.559 3.438-.188 6.376 2.442 6.559 5.876" fill="#8c7163"/><path d="m39.3307 45.1357c.128 2.396-1.695 4.448-4.067 4.579-2.374.13-4.402-1.711-4.53-4.107-.128-2.392 1.693-4.445 4.068-4.575 2.372-.13 4.402 1.711 4.529 4.103" fill="#2a2011"/><path d="m33.1012 43.2221c.037.692-.491 1.289-1.175 1.327-.687.037-1.275-.498-1.312-1.19-.037-.693.491-1.284 1.178-1.322.684-.037 1.272.493 1.309 1.185" fill="#fefefe"/><path d="m56.1666 44.2133c.183 3.434 3.121 6.066 6.559 5.877 3.439-.189 6.076-3.127 5.893-6.56-.182-3.434-3.116-6.065-6.556-5.876-3.437.188-6.08 3.125-5.896 6.559" fill="#8c7163"/><path d="m57.7682 44.124c.127 2.396 2.157 4.237 4.529 4.107 2.375-.13 4.196-2.182 4.068-4.578-.128-2.393-2.156-4.234-4.53-4.103-2.372.13-4.195 2.182-4.067 4.574" fill="#2a2011"/><path d="m57.8912 41.8623c.037.692.625 1.228 1.31 1.19.686-.038 1.214-.634 1.177-1.327-.037-.692-.625-1.222-1.311-1.184-.685.037-1.213.629-1.176 1.321" fill="#fefefe"/><path d="m59.776 59.2509c-.432-.599-3.082-4.94-5.882-6.222-2.538-1.162-5.269.698-5.269.698l-.04.002s-2.914-1.55-5.314-.117c-2.648 1.58-4.821 6.186-5.186 6.829-.637 1.118-1.46 1.512-1.46 1.512s.798.124 1.982-.068c1.526-.247 8.22-2.353 10.301-2.467 2.08-.114 8.959 1.247 10.502 1.326 1.197.061 1.977-.15 1.977-.15s-.859-.301-1.611-1.343" fill="#fefefe"/><path d="m59.776 59.2509c-.847-.871-1.627-1.772-2.473-2.593-.829-.827-1.696-1.613-2.609-2.219-.951-.628-1.786-.941-2.734-.776-.927.12-1.97.617-2.727 1.21l-.565.442-.611-.382c-.808-.507-1.894-.891-2.821-.902-.473-.017-.924.061-1.338.246-.415.188-.87.494-1.286.841-.84.702-1.615 1.576-2.35 2.486-.751.905-1.429 1.882-2.177 2.837.351-1.156.806-2.277 1.351-3.371.571-1.078 1.208-2.144 2.099-3.085.436-.479.927-.923 1.573-1.274.647-.357 1.387-.543 2.104-.574.72-.03 1.412.101 2.061.294.661.205 1.236.443 1.878.828l-1.176.06c.597-.446 1.144-.745 1.779-1.019.623-.26 1.293-.467 2.012-.519.714-.052 1.47.045 2.156.323.692.273 1.224.665 1.715 1.093.992.838 1.743 1.831 2.428 2.843.662 1.03 1.235 2.098 1.711 3.211" fill="#e5e6e6"/><path d="m13.8531 133.7778-8.089-11.202c-.678 1.435-1.351 2.864-2.017 4.28l5.197 7.198" fill="#877a45"/><path d="m17.3326 130.6899 2.606-4.295-9.651-13.367c-.746 1.568-1.503 3.163-2.265 4.771z" fill="#877a45"/><path d="m3.4137 134.3818-1.92-2.739c-.465.99-.923 1.965-1.371 2.92" fill="#877a45"/><path d="m100.2858 129.0576-32.856-45.5c-1.611-.333-2.698-.526-2.698-.526l-1.229 2.161 31.872 44.138" fill="#877a45"/><path d="m60.986 89.6142-1.589 2.792-.7 1.944 18.495 25.613c.108-4.408.188-7.465.188-7.465" fill="#877a45"/><path d="m56.943 131.4502-31.368-43.439c-1.738.551-3.115 1.021-3.492 1.238-.06.034-.181.207-.359.504l30.308 41.97" fill="#877a45"/><path d="m14.7174 103.7666c-.693 1.439-1.415 2.943-2.159 4.5l9.988 13.832 2.47-4.069z" fill="#877a45"/><path d="m76.9469 130.3476c.021-.919.041-1.833.062-2.732l-20.21-27.989-1.9 5.276 18.481 25.592" fill="#877a45"/><path d="m67.902 130.8149-14.902-20.637-.273.756-2.833-5.056-14.932-20.68c-.949.274-2.746.796-4.711 1.382l32.172 44.552" fill="#877a45"/><path d="m74.3365 85.2168 15.868 21.974c-4.782-10.088-8.772-18.286-9.524-19.193-.816-.982-3.448-1.957-6.344-2.781" fill="#877a45"/><path d="m46.5338 132.0156-27.209-37.68c-.678 1.355-1.458 2.939-2.316 4.699l24.044 33.296" fill="#877a45"/><path d="m35.5338 132.5937-9.81-13.584c.22 1.905.596 5.154 1.04 8.931l3.564 4.934" fill="#877a45"/><path d="m34.9283 85.2065s9.182 18.387 18.171 31.598c6.796-13.504 13.1-33.567 13.1-33.567l-4.956-1.773-7.73 11.551-6.522-2.261-10.387-6.384z" fill="#66682e"/><path d="m30.068 132.9883 16.625-31.515.354-.671-2.408-4.296-.65 1.232-16.991 32.209c.12 1.02.245 2.064.371 3.121" fill="#66682e"/><path d="m40.8707 132.3154 11.558-21.908-2.691-4.802-14.23 26.974" fill="#66682e"/><path d="m9.1959 134.0644 25.782-48.963c-1.198.346-3.697 1.073-6.186 1.826l-25.04 47.345" fill="#66682e"/><path d="m66.6735 83.4048c-1.185-.237-1.945-.373-1.945-.373l-5.335 9.374-5.439 15.108z" fill="#66682e"/><path d="m62.108 131.1479 20.7-39.24c-1.089-2.159-1.846-3.565-2.132-3.91-.166-.199-.413-.398-.714-.596l-23.245 44.062" fill="#66682e"/><path d="m15.486 133.7256 10.026-16.521s.208 1.817.537 4.641l14.934-28.276-2.991-4.254-23.464 44.468" fill="#66682e"/><path d="m72.2174 130.5966 4.936-9.206c.126-5.162.222-8.892.222-8.892l2.368 3.983 7.821-14.825c-.789-1.65-1.537-3.202-2.232-4.631l-17.845 33.828" fill="#66682e"/><path d="m22.4342 89.0844c-.157.065-.278.121-.355.165-.376.216-3.256 5.993-7.113 13.991z" fill="#66682e"/><path d="m82.5114 121.1377 2.768 4.656 7.233-13.711c-.839-1.779-1.665-3.529-2.469-5.223z" fill="#66682e"/><path d="m88.4283 129.7275 6.546-12.409c.821 1.753 1.643 3.51 2.456 5.247l-3.617 6.857" fill="#66682e"/><path d="m60.0524 87.2363-.077-.691" fill="#9d752b"/><path d="m38.484 84.9331s13.367 9.084 24.785-1.687l-10.673 26.018z" fill="#fefefe"/><path d="m33.6969 36.6386c-5.161.283-8.313 3.92-8.028 9.266.277 5.202 3.706 8.255 8.947 7.967 5.129-.281 10.267-3.726 9.985-9.006-.289-5.435-5.884-8.502-10.904-8.227m.972 18.23c-5.851.321-9.677-3.093-9.988-8.91-.312-5.86 3.29-10.006 8.963-10.317 5.493-.301 11.622 3.119 11.945 9.17.314 5.903-5.305 9.749-10.92 10.057" fill="#6d3926"/><path d="m61.3278 35.1225c-5.485.301-9.27 4.221-8.998 9.319.265 4.967 4.342 8.221 9.916 7.915 5.573-.306 9.281-3.987 9.017-8.953-.272-5.099-4.451-8.582-9.935-8.281m.972 18.23c-6.156.338-10.661-3.304-10.957-8.856-.298-5.586 3.972-10.043 9.932-10.371 5.958-.326 10.677 3.638 10.975 9.224.296 5.552-3.796 9.666-9.95 10.003" fill="#6d3926"/><path d="m15.4528 45.4712c-.02-.073-.48-1.786.303-3.17.419-.737 1.096-1.237 2.018-1.485 2.392-.629 7.283 1.75 7.492 1.852l-.435.898c-1.317-.65-5.123-2.255-6.804-1.784-.663.177-1.123.509-1.41 1.009-.58 1.02-.217 2.398-.212 2.411z" fill="#6d3926"/><path d="m81.5348 41.8457-.976-.163c.003-.014.218-1.424-.466-2.374-.338-.466-.831-.745-1.509-.849-1.726-.262-5.333 1.728-6.574 2.518l-.53-.845c.198-.124 4.803-3.029 7.252-2.661.944.145 1.67.568 2.165 1.256.925 1.29.65 3.043.638 3.118" fill="#6d3926"/><path d="m45.0514 43.1425-.666-.737c.035-.035 3.449-3.087 7.726-.578l-.496.863c-3.668-2.155-6.539.427-6.564.452" fill="#6d3926"/><path d="m18.3561 42.9926s-2.995-1.472-4.192.394c-1.198 1.865 1.208 7.46 3.146 7.354 1.94-.106 2.473-2.263 2.473-2.263z" fill="#e8cbad"/><path d="m77.9049 39.7256s2.821-1.791 4.21-.067-.408 7.549-2.347 7.655c-1.939.107-2.699-1.979-2.699-1.979z" fill="#e8cbad"/><path d="m29.9127 4.3979s3.046 8.505 2.232 11.495c-.812 2.989-9.417 5.753-10.907 11.234s-3.999 13.146-3.999 13.146-2.817-9.018-1.585-17.585c1.438-9.995 7.379-19.675 14.259-18.29" fill="#e5e6e6"/><path d="m62.1588 2.6284s-2.125 8.789-.999 11.672c1.126 2.884 9.974 4.689 12.038 9.975 2.064 5.287 5.372 12.632 5.372 12.632s1.843-9.273-.292-17.655c-2.491-9.779-9.427-18.753-16.119-16.624" fill="#e5e6e6"/><path d="m57.0826 12.479s1.68 4.162-9.195 6.886c-10.874 2.724-22.989.443-27.764 11.177 0 0 .823-8.881 9.253-14.907 8.43-6.025 20.475-5.05 20.475-5.05s-6.476-2.917-16.789 1.248c0 0 13.335-8.258 24.02.646" fill="#fefefe"/><path d="m60.3737 13.2861c-.215.99-.633 1.745-1.15 2.477-.517.717-1.115 1.364-1.778 1.924-1.326 1.117-2.818 2.006-4.399 2.641-.773.362-1.598.585-2.391.883-.821.211-1.633.458-2.458.639-.831.155-1.655.343-2.489.469l-2.508.33 2.485-.453c.825-.166 1.635-.395 2.452-.589.809-.219 1.6-.504 2.399-.752.768-.332 1.566-.59 2.303-.982 1.513-.695 2.908-1.63 4.102-2.742.598-.556 1.119-1.184 1.555-1.855.434-.653.774-1.445.884-2.111l.011-.066c.045-.272.302-.457.574-.412s.457.302.412.575c-.001.007-.003.017-.004.024" fill="#fefefe"/><path d="m62.6549 3.0102s-1.808 9.426 1.11 11.72c2.918 2.295 7.638 1.913 10.686 6.655 0 0 .144-1.849-.362-4.521 0 0 3.117 3.756 4.379 9.209 0 0-1.177-18.397-12.521-22.876-1.107-.436-2.574-.41-3.292-.187" fill="#fefefe"/><path d="m29.7682 4.8149s2.798 9.173.141 11.773c-2.658 2.6-7.39 2.737-9.916 7.785 0 0-.341-1.823-.121-4.535 0 0-2.7 4.076-3.375 9.635 0 0-.785-18.419 10.018-24.112 1.054-.555 2.516-.69 3.253-.546" fill="#fefefe"/><path d="m25.8247 14.358c-5.066 2.241-6.945 3.49-7.863 7.549 0 0 1.887-4.113 4.82-5.337 2.934-1.224 5.999-1.474 6.69-3.721 0 0-.414 2.886-5.616 5.626 0 0 5.424-1.607 6.077-3.034.654-1.426 1.616-4.67.104-10.232 0 0 .854 6.907-4.212 9.149z" fill="#e5e6e6"/><path d="m63.2106 3.3891s-.115 6.96 5.159 8.634c5.276 1.675 7.276 2.71 8.619 6.645 0 0-2.313-3.882-5.359-4.778-3.046-.897-6.12-.81-7.046-2.968 0 0 .718 2.824 6.181 4.979 0 0-5.564-1.004-6.365-2.351-.8-1.347-2.101-4.466-1.189-10.161" fill="#e5e6e6"/><path d="m48.399 131.8115-2.175.242 25.102-47.665 2.839.826 1.034 1.16-23.849 45.346" fill="#66682e"/><path d="m23.6803 24.2929c.474-.598 1.16-.985 1.827-1.34.682-.339 1.385-.635 2.102-.889 1.432-.518 2.904-.918 4.387-1.25 2.967-.663 5.994-1.054 8.99-1.449 2.986-.369 5.961-.888 8.805-1.784 1.401-.489 2.795-1.024 4.025-1.802.594-.403 1.186-.827 1.629-1.357.122-.125.228-.258.316-.401.1-.137.195-.274.261-.422.161-.265.253-.64.261-.816l.86.281c-1.098 1.077-2.31 1.701-3.579 2.297-1.269.571-2.586.999-3.918 1.346-2.664.702-5.404 1.023-8.121 1.16-2.722.171-5.449.133-8.147.195-1.346.037-2.694.137-3.986.503-1.291.36-2.498 1.013-3.569 1.847 1.004-.91 2.185-1.657 3.494-2.087 1.303-.445 2.678-.618 4.036-.726 2.723-.178 5.428-.205 8.117-.467 2.692-.245 5.363-.586 7.946-1.29 1.288-.351 2.556-.778 3.757-1.335 1.177-.55 2.392-1.248 3.228-2.087l.053-.055c.185-.184.484-.185.668-.001.093.093.14.216.139.337-.003.58-.153.949-.352 1.346-.089.2-.206.374-.328.545-.115.179-.246.339-.389.486-.541.628-1.2 1.086-1.86 1.523-1.345.83-2.803 1.368-4.261 1.859-2.947.881-5.964 1.416-8.994 1.699-3.016.301-6.013.591-8.979 1.154-1.483.264-2.961.575-4.401 1.015-.722.213-1.431.469-2.121.768-.682.306-1.383.636-1.896 1.197" fill="#e5e6e6"/><path d="m48.5035 11.1499c.657-.115 1.323-.164 1.991-.197.668-.035 1.341-.04 2.013.013 1.34.099 2.712.323 3.988 1.003.215.115.297.382.182.598-.032.06-.076.11-.128.148l-.007.005c-1.125.821-2.305 1.306-3.522 1.781-1.221.439-2.469.78-3.733 1.029-1.26.271-2.539.416-3.814.525-1.279.094-2.56.104-3.836.053.63-.119 1.259-.21 1.887-.305l1.872-.339c1.241-.246 2.477-.49 3.692-.806 1.214-.32 2.424-.649 3.588-1.094 1.158-.418 2.338-.942 3.312-1.563l.047.751c-1.048-.619-2.323-.952-3.601-1.18-1.286-.221-2.602-.359-3.931-.422" fill="#e5e6e6"/><g fill="#9d752b"><path d="m50.3571 114.3774-3.061-4.209-2.384 4.671 3.014 4.112z"/><path d="m38.566 98.1045-3.027-4.165-2.393 4.524 3.004 4.192z"/><path d="m30.9547 102.5669-2.393 4.523 3.069 4.268 2.37-4.568z"/><path d="m29.2047 115.9116-3.028-4.165-2.392 4.523 1.262 1.726.483-.804.165 1.745 1.093 1.525z"/><path d="m45.7809 123.1577-3.013-4.271-2.431 4.552 3.013 4.293z"/><path d="m40.9303 132.3471.048-.09-3.06-4.209-2.391 4.549"/><path d="m37.0026 110.9531-2.386 4.564 2.707 3.748 2.385-4.564z"/><path d="m34.8893 123.8598-2.75-3.804-2.385 4.564 2.764 3.788z"/><path d="m30.0553 132.9043.1-.191-2.706-3.748-.472.903.39 3.2"/><path d="m51.3502 131.7202.286-.549-2.863-3.934-2.37 4.548.149.212"/><path d="m56.1871 122.4843-2.863-3.934-2.37 4.548 2.826 3.997z"/><path d="m60.986 113.3242-2.862-3.934-2.371 4.548 2.826 3.997z"/><path d="m65.8492 104.2216-2.863-3.934-2.371 4.548 2.826 3.997z"/><path d="m70.5592 95.0966-2.863-3.934-2.371 4.548 2.826 3.997z"/><path d="m75.1989 86.3745-1.034-1.16-2.839-.826-1.36 2.6 2.826 3.997z"/><path d="m61.9821 131.1714.147-.282-2.974-4.217-2.372 4.518.137.197"/><path d="m66.483 113.0786 2.962 4.263 2.385-4.564-2.974-4.216z"/><path d="m71.3395 103.854 2.962 4.263 2.385-4.564-2.975-4.217z"/><path d="m81.1735 94.8081-2.975-4.216-2.372 4.517 2.962 4.263z"/><path d="m67.0426 121.8608-3.009-4.284-2.401 4.55 3.024 4.298z"/><path d="m72.2174 130.5966.495-.978-2.636-3.655-2.393 4.514.216.338"/><path d="m77.2955 112.3296 2.707 3.748 2.385-4.564-2.706-3.748z"/><path d="m86.9987 102.8232-2.706-3.748-2.385 4.564 2.706 3.748z"/><path d="m44.2448 106.0151-2.707-3.748-2.385 4.564 2.706 3.748z"/><path d="m32.5358 89.7505-2.33-3.219-1.447.459-1.64 3.136 3.003 4.177z"/><path d="m27.9449 98.4497-3.021-4.232-2.449 4.57 3.098 4.189z"/><path d="m17.7125 107.9082 3.027 4.213 2.414-4.552-3.031-4.188z"/><path d="m13.0192 116.7763 3.009 4.235 2.413-4.553-3.03-4.187z"/><path d="m8.1803 125.9389 3.062 4.229 2.383-4.487-3.034-4.292z"/><path d="m8.9205 134.0674-2.937-4.058-2.283 4.368"/><path d="m83.0905 120.0522 2.962 4.263 2.386-4.564-2.975-4.216z"/><path d="m90.9362 108.7563-.887-1.818-2.373 4.517 2.962 4.263 1.892-3.654z"/><path d="m93.8112 129.396.627-1.2-2.975-4.216-2.372 4.518.782 1.125"/><path d="m94.9606 117.3711-1.315 2.501 2.961 4.263.773-1.66z"/><path d="m72.4908 121.3676 2.706 3.748 1.953-3.738.047-1.359-2.321-3.215z"/></g><path d="m89.0914 128.4975-.697 1.181-.766.083-2.36-4.002.784-1.444z" fill="#877a45"/><path d="m80.0026 116.0771 3.088 3.975-.561 1.071-2.821-4.671z" fill="#877a45"/><path d="m39.317 79.395c.321 6.036 11.959 10.021 11.959 10.021s9.873-4.02 9.465-11.688l3.929 5.307c.2 3.753-9.957 11.591-9.957 11.591l-3.437-5.21-2.711 6.161s-12.325-5.5-12.603-10.721z" fill="#efeeef"/></g><path d="m125.9596 196.977c.069 1.313-.928 2.436-2.229 2.507l-99.584 5.464c-1.3.071-2.412-.936-2.481-2.249l-9.707-182.192c.098-.919.553-1.892 2.114-2.077l33.028-1.812 66.693-3.66c1.301-.07 2.411.936 2.481 2.249l4.739 88.931zm-52.83 33.749c-4.859.266-9.01-3.495-9.272-8.401-.26-4.906 3.466-9.099 8.326-9.366 4.858-.266 9.008 3.495 9.27 8.401s-3.466 9.099-8.324 9.366zm35.434-230.55-2.355.129-69.582 3.818-18.576 1.019c-10.52.577-18.588 9.655-18.023 20.276l10.449 196.114c.635 11.935 10.733 21.084 22.553 20.436l85.803-4.708c11.82-.648 20.887-10.849 20.251-22.783l-5.144-96.54-5.304-99.574c-.567-10.622-9.553-18.764-20.072-18.187z" fill="#014152" mask="url(#c)" transform="translate(0 90)"/><path d="m108.567 90.2549-2.354.129-69.582 3.818-18.577 1.019c-10.519.577-18.588 9.655-18.022 20.276l.562 10.558 12.701 9.529-1.332-24.998c.097-.919.553-1.893 2.114-2.078l33.027-1.812 66.693-3.659c1.301-.071 2.412.936 2.482 2.249l4.738 88.93 1.232 23.117 12.7 9.528-1.004-18.845-5.306-99.574c-.565-10.622-9.552-18.764-20.072-18.187" fill="#0b4c5f"/><g fill="#fefefe"><path d="m75.7514 321.3085c-5.209.286-9.659-3.746-9.939-9.006-.281-5.26 3.716-9.755 8.925-10.041s9.659 3.746 9.939 9.006-3.716 9.755-8.925 10.041z"/><path d="m189.728545 111.063154c-.067561 2.026836-.472928 3.850989-1.216101 5.404896-.608051 1.351224-1.553908 2.634887-2.905132 3.648305-1.351224 1.080979-3.175376 1.68903-5.60758 1.68903-2.432203 0-4.323916-.608051-5.67514-1.68903-1.351224-1.013418-2.22952-2.297081-2.837571-3.648305-.743173-1.553907-1.14854-3.37806-1.216101-5.404896v-29.2539991c.067561-1.9592748.472928-3.7834272 1.216101-5.3373348.608051-1.351224 1.486347-2.702448 2.837571-3.715866s3.242937-1.68903 5.67514-1.68903c2.432204 0 4.256356.675612 5.60758 1.68903s2.297081 2.364642 2.905132 3.715866c.743173 1.5539076 1.14854 3.37806 1.216101 5.3373348zm-7.296609-29.2539991c0-1.351224-.270245-2.2970808-.945857-3.1078152-.337806-.337806-.878296-.5404896-1.486347-.5404896-1.283662 0-1.891713.9458568-2.161958 1.8241524-.202684.5404896-.270245 1.1485404-.270245 1.8241524v29.2539991c0 1.418786.337806 2.364642 1.013418 3.107816.337806.337806.810735.540489 1.418785.540489 1.283663 0 1.891714-.810734 2.161959-1.824152.202683-.472929.270245-1.080979.270245-1.824153zm12.248577-10.2017412h7.296609c3.175377 0 6.350753.8107344 8.782956 3.1078152 2.432204 2.2970808 4.053672 6.080508 4.053672 11.7556488s-1.621468 9.3910068-4.053672 11.6880876c-2.432203 2.2970807-5.607579 3.2429377-8.782956 3.2429377v19.862993h-7.296609zm7.296609 22.3627572c2.22952 0 3.648305-.4053672 4.45904-1.5539076.810734-1.0809792 1.013418-2.9051316 1.013418-5.6751408s-.202684-4.729284-1.013418-5.9453856c-.810735-1.2161016-2.22952-1.7565912-4.45904-1.7565912zm13.937608-14.863464v-7.4992932h21.079094v7.4992932h-6.891242v42.1581891h-7.29661v-42.1581891zm23.936664-7.4992932h7.29661v49.6574823h-7.29661zm24.814961 49.6574823-4.661723-31.2132747-.270245-2.0943972h-.405367v33.3076719h-6.75612v-49.6574823h8.918078l4.323917 22.7005632.337806 2.6348868h.135123l.337806-2.6348868 4.323916-22.7005632h8.918079v49.6574823h-6.75612v-33.3076719h-.405367l-.270245 2.0943972-4.661723 31.2132747zm18.59933 0 7.499293-49.6574823h8.918078l7.499294 49.6574823h-7.093926l-1.351224-10.13418h-7.026365l-1.351224 10.13418zm12.363699-33.5103555-.202683-1.2836628h-.405367l-.202684 1.2836628-2.094397 15.6741985h4.999529zm12.92419 33.5103555 7.499293-49.6574823h8.918078l7.499293 49.6574823h-7.093926l-1.351224-10.13418h-7.026364l-1.351224 10.13418zm12.363699-33.5103555-.202683-1.2836628h-.405368l-.202683 1.2836628-2.094397 15.6741985h4.999528zm14.951025-16.1471268h7.29661v42.9013623h9.661252v6.75612h-16.957862z" mask="url(#d)"/><path d="m183.102629 178.812489v-49.657482h5.742702c6.75612 0 10.404425 1.351224 12.3637 5.134651 1.891713 3.783428 2.161958 9.999058 2.161958 19.727871s-.270245 15.876882-2.161958 19.660309c-1.959275 3.783427-5.60758 5.134651-12.3637 5.134651zm7.29661-7.296609c2.499764 0 3.918549-.270245 4.661723-2.702448.337806-1.148541.60805-2.905132.675612-5.269774.067561-2.364642.067561-5.540018.067561-9.59369s0-7.229049-.067561-9.593691c-.067562-2.297081-.337806-4.053672-.675612-5.269773-.743174-2.364642-2.161959-2.634887-4.661723-2.634887zm17.856157-42.360873h7.296609v49.657482h-7.296609zm24.409593 17.836157v-7.634416c0-1.351224-.270245-2.29708-.945857-3.107815-.337806-.337806-.878296-.540489-1.486346-.540489-1.283663 0-1.891714.945856-2.161959 1.824152-.202683.54049-.270245 1.14854-.270245 1.824152v29.862051c0 1.418785.337806 2.364642 1.013418 3.107815.337806.337806.810735.54049 1.418786.54049 1.283662 0 1.891713-.810735 2.161958-1.824153.202684-.472928.270245-1.080979.270245-1.824152v-8.98564h-2.905132v-6.148069h10.201741v24.727399h-4.323916l-.878296-2.364642c-1.351224 1.68903-3.310499 2.905132-5.675141 2.905132s-3.986111-.608051-5.202212-1.68903c-1.216102-1.013418-2.026836-2.297081-2.567326-3.648305-.608051-1.553908-.878295-3.37806-.810734-5.404896v-29.254c.067561-1.959274.472928-3.783427 1.216101-5.337334.608051-1.351224 1.486347-2.702448 2.837571-3.715866s3.242937-1.68903 5.675141-1.68903c2.432203 0 4.256355.675612 5.607579 1.68903s2.297081 2.364642 2.905132 3.715866c.743173 1.553907 1.14854 3.37806 1.216101 5.337334v7.634416zm12.653944-17.836157h7.29661v49.657482h-7.29661zm10.15418 7.499293v-7.499293h21.079095v7.499293h-6.891243v42.158189h-7.296609v-42.158189zm19.033614 42.158189 7.499294-49.657482h8.918078l7.499293 49.657482h-7.093926l-1.351224-10.13418h-7.026365l-1.351224 10.13418zm12.3637-33.510355-.202684-1.283663h-.405367l-.202683 1.283663-2.094398 15.674198h4.999529zm12.924189 33.510355 7.499293-49.657482h8.918079l7.499293 49.657482h-7.093926l-1.351224-10.13418h-7.026365l-1.351224 10.13418zm12.3637-33.510355-.202684-1.283663h-.405367l-.202684 1.283663-2.094397 15.674198h4.999529zm14.951025-16.147127h7.29661v42.901362h9.661251v6.75612h-16.957861z" mask="url(#d)"/></g></g></g></svg>