<?xml version="1.0" encoding="UTF-8"?>
<svg width="60px" height="77px" viewBox="0 0 60 77" version="1.1" xmlns="http://www.w3.org/2000/svg" xmlns:xlink="http://www.w3.org/1999/xlink">
    <!-- Generator: Sketch 52.2 (67145) - http://www.bohemiancoding.com/sketch -->
    <title>oude_man</title>
    <desc>Created with Sketch.</desc>
    <defs>
        <linearGradient x1="50.0642045%" y1="100.024988%" x2="50.0642045%" y2="0.443276972%" id="linearGradient-1">
            <stop stop-color="#E9CCAE" offset="44.51%"></stop>
            <stop stop-color="#CAB298" offset="100%"></stop>
        </linearGradient>
    </defs>
    <g id="Page-1" stroke="none" stroke-width="1" fill="none" fill-rule="evenodd">
        <g id="alle-poppetjes-od-copy" transform="translate(-305.000000, -8.000000)">
            <g id="oude_man" transform="translate(305.000000, 8.000000)">
                <path d="M25.6,51.1 C25.6,51.1 24.6,46.1 25.3,45.6 C26,45.1 34.2,43.9 37.7,45.3 L38.1,51.1 L27.1,56.1 L25.6,51.1 Z" id="Path" fill="#8A6327"></path>
                <path d="M49.1,54.8 C49.1,54.8 48.5,52.2 44.4,50.8 C40.3,49.4 36.5,47.9 36.5,44.9 C36.5,42 36.5,37.1 36.5,37.1 L31.5,37.1 L26.5,37.1 C26.5,37.1 26.5,41.9 26.5,44.9 C26.5,47.8 22.8,49.2 18.6,50.6 C14.5,52 13.9,54.5 13.9,54.5 C13.9,54.5 28.4,59.1 49.1,54.8 Z" id="Path" fill="url(#linearGradient-1)"></path>
                <path d="M9.2,76 L9.8,76 L16.1,66.9 C16.1,66.9 16.4,71.3 16.7,76 L45.5,76 C45.9,70.7 46.3,65.8 46.3,65.8 L51.7,76 L52.1,76 L55.2,76 L59.1,76 C55,65.9 49.6,52.8 48.9,51.9 C47.8,50.4 39.8,48.6 39.8,48.6 L37.2,52.1 L32,64.1 L26.4,52.8 L22.9,48.7 C22.9,48.7 15.7,50.3 14.9,50.7 C14.4,50.9 6.5,65.5 0.8,76" id="Path" fill="#8A6327"></path>
                <path d="M49.5,16.8 C49.5,31.2 44.4,40.9 31.3,40.9 C18.2,40.9 13.4,31 13.4,16.6 C13.4,2.2 25.6,0.7 31.6,0.7 C37.6,0.7 49.5,2.5 49.5,16.8 Z" id="Path" fill="#E9CCAE"></path>
                <path d="M27.2,26 C27.2,28 25.6,29.6 23.6,29.6 C21.6,29.6 20,28 20,26 C20,24 21.6,22.4 23.6,22.4 C25.6,22.5 27.2,24.1 27.2,26 Z" id="Path" fill="#8D7164"></path>
                <path d="M26.3,26 C26.3,27.4 25.2,28.5 23.8,28.5 C22.4,28.5 21.3,27.4 21.3,26 C21.3,24.6 22.4,23.5 23.8,23.5 C25.2,23.5 26.3,24.7 26.3,26 Z" id="Path" fill="#2B2111"></path>
                <path d="M22.7,24.7 C22.7,25.1 22.4,25.4 22,25.4 C21.6,25.4 21.3,25.1 21.3,24.7 C21.3,24.3 21.6,24 22,24 C22.4,24 22.7,24.3 22.7,24.7 Z" id="Path" fill="#FFFFFF"></path>
                <path d="M36.1,26 C36.1,28 37.7,29.6 39.7,29.6 C41.7,29.6 43.3,28 43.3,26 C43.3,24 41.7,22.4 39.7,22.4 C37.7,22.5 36.1,24.1 36.1,26 Z" id="Path" fill="#8D7164"></path>
                <path d="M37,26 C37,27.4 38.1,28.5 39.5,28.5 C40.9,28.5 42,27.4 42,26 C42,24.6 40.9,23.5 39.5,23.5 C38.1,23.5 37,24.7 37,26 Z" id="Path" fill="#2B2111"></path>
                <path d="M37.1,24.7 C37.1,25.1 37.4,25.4 37.8,25.4 C38.2,25.4 38.5,25.1 38.5,24.7 C38.5,24.3 38.2,24 37.8,24 C37.4,24 37.1,24.3 37.1,24.7 Z" id="Path" fill="#FFFFFF"></path>
                <path d="M37.7,34.8 C37.5,34.4 36.1,31.9 34.5,31.1 C33.1,30.4 31.4,31.3 31.4,31.3 C31.4,31.3 29.8,30.3 28.3,31.1 C26.7,31.9 25.3,34.5 25.1,34.8 C24.7,35.4 24.2,35.6 24.2,35.6 C24.2,35.6 24.7,35.7 25.3,35.6 C26.2,35.5 30.1,34.5 31.3,34.5 C32.5,34.5 36.4,35.5 37.3,35.6 C38,35.7 38.4,35.6 38.4,35.6 C38.4,35.6 38.1,35.4 37.7,34.8 Z" id="Path" fill="#FFFFFF"></path>
                <path d="M37.7,34.8 C36.9,33.7 35.9,32.6 34.9,31.9 C34.3,31.5 33.9,31.4 33.4,31.5 C32.9,31.6 32.4,31.9 32,32.2 L30.8,32.2 C30.4,31.9 29.9,31.6 29.4,31.5 C28.9,31.4 28.4,31.5 27.9,31.9 C26.8,32.6 25.9,33.7 25.1,34.8 C25.7,33.5 26.3,32.3 27.3,31.2 C27.6,30.9 27.8,30.7 28.2,30.4 C28.6,30.2 29,30.1 29.5,30 C30.4,30 31.2,30.2 32,30.6 L30.8,30.6 C31.6,30.2 32.4,30 33.3,30 C33.7,30 34.2,30.1 34.6,30.3 C35,30.5 35.3,30.8 35.5,31 C36.5,32.2 37.1,33.5 37.7,34.8 Z" id="Path" fill="#E6E7E7"></path>
                <g id="Group" transform="translate(0.000000, 48.000000)" fill="#877A45">
                    <path d="M8.8,28 L4.5,21.3 C4.1,22.1 3.6,22.9 3.2,23.7 L6,28" id="Path"></path>
                    <path d="M10.9,26.3 L12.5,23.9 L7.3,15.9 C6.8,16.8 6.3,17.7 5.8,18.6 L10.9,26.3 Z" id="Path"></path>
                    <path d="M2.8,28 L1.8,26.4 C1.5,27 1.2,27.5 0.9,28" id="Path"></path>
                    <path d="M59,28 L41.4,0.9 C40.5,0.7 39.9,0.5 39.9,0.5 L39.1,1.7 L56.1,28" id="Path"></path>
                    <path d="M37.4,4.2 L36.4,5.7 L35.9,6.8 L45.8,22.1 C46,19.6 46.1,17.8 46.1,17.8" id="Path"></path>
                    <path d="M33.8,28 L17,2.2 C16,2.5 15.2,2.7 14.9,2.8 C14.9,2.8 14.8,2.9 14.7,3.1 L31,28" id="Path"></path>
                    <path d="M10.2,10.8 C9.8,11.6 9.3,12.4 8.8,13.3 L14.2,21.5 L15.8,19.2 L10.2,10.8 Z" id="Path"></path>
                    <path d="M45.4,28 C45.4,27.5 45.5,27 45.5,26.4 L34.7,9.7 L33.4,12.7 L43.3,27.9" id="Path"></path>
                    <path d="M40.2,28 L32.2,15.7 L32,16.1 L30.5,13.1 L22.5,0.8 C21.9,0.9 20.9,1.2 19.7,1.4 L37,28" id="Path"></path>
                    <path d="M45.3,2.1 L53.8,15.2 C51.3,9.3 49.3,4.4 48.9,3.9 C48.4,3.3 46.9,2.7 45.3,2.1 Z" id="Path"></path>
                    <path d="M27.8,28 L13.2,5.6 C12.8,6.4 12.3,7.2 11.7,8.2 L24.6,28" id="Path"></path>
                    <path d="M21.4,28 L16.1,19.9 C16.2,21 16.3,22.9 16.4,25 L18.3,27.9" id="Path"></path>
                </g>
                <path d="M22.5,48.8 C22.5,48.8 27.2,59.6 32,67.5 C36.3,60 40.6,48.7 40.6,48.7 L37.8,47.5 L33,53.9 L29.3,52.4 L23.5,48.4 L22.5,48.8 Z" id="Path" fill="#66692E"></path>
                <g id="Group" transform="translate(3.000000, 48.000000)" fill="#66692E">
                    <path d="M15.2,28.1 L25.8,10.6 L26,10.2 L24.7,7.7 L24.3,8.4 L13.5,26.3 C13.5,26.9 13.6,27.5 13.6,28.1" id="Path"></path>
                    <polyline id="Path" points="21.5 28 28.8 15.8 27.4 13 18.4 28"></polyline>
                    <path d="M3.1,28 L19.5,0.8 C18.8,1 17.3,1.3 15.9,1.7 L0,28" id="Path"></path>
                    <path d="M37.9,0.8 C37.2,0.6 36.8,0.5 36.8,0.5 L33.4,5.7 L29.8,14.2 L37.9,0.8 Z" id="Path"></path>
                    <path d="M33.8,28 L47,6.2 C46.4,4.9 46,4.1 45.9,3.9 C45.8,3.8 45.7,3.7 45.5,3.5 L30.7,28" id="Path"></path>
                    <path d="M6.8,28 L13.1,18.9 C13.1,18.9 13.2,19.9 13.3,21.6 L22.8,5.9 L21.2,3.4 L6.2,28" id="Path"></path>
                    <path d="M39.7,28 L42.8,22.9 C43,19.9 43.2,17.8 43.2,17.8 L44.4,20.2 L49.4,12 C49,11 48.6,10.1 48.3,9.3 L36.9,28" id="Path"></path>
                    <path d="M12.2,2.7 C12.1,2.7 12,2.8 12,2.8 C11.8,2.9 9.9,6.1 7.5,10.6 L12.2,2.7 Z" id="Path"></path>
                    <path d="M45.9,22.9 L47.4,25.7 L52,18.1 C51.6,17.1 51.1,16 50.7,15 L45.9,22.9 Z" id="Path"></path>
                    <path d="M49.1,28 L53.3,21.1 C53.7,22.1 54.1,23.2 54.6,24.2 L52.3,28" id="Path"></path>
                </g>
                <path d="M37,50.8 L37,50.4" id="Path" fill="#9E762B"></path>
                <path d="M24.6,48.8 C24.6,48.8 32.1,54.4 39,48.6 L32,63.2 L24.6,48.8 Z" id="Path" fill="#FFFFFF"></path>
                <path d="M23.3,31.5 C19.9,31.5 17.8,29.4 17.8,26.1 C17.8,22.7 20,20.5 23.3,20.5 C26.5,20.5 29.9,22.7 29.9,26.1 C29.9,29.4 26.5,31.5 23.3,31.5 Z M23.3,21 C20.3,21 18.4,23 18.4,26.1 C18.4,29.1 20.3,31 23.3,31 C26.3,31 29.4,29.2 29.4,26.1 C29.3,22.9 26.2,21 23.3,21 Z" id="Shape" fill="#6E3A27" fill-rule="nonzero"></path>
                <path d="M39.3,31.5 C35.7,31.5 33.2,29.3 33.2,26.1 C33.2,22.9 35.8,20.5 39.3,20.5 C42.8,20.5 45.4,22.9 45.4,26.1 C45.4,29.2 42.9,31.5 39.3,31.5 Z M39.3,21 C36.1,21 33.8,23.1 33.8,26.1 C33.8,29 36.1,31 39.3,31 C42.5,31 44.8,29 44.8,26.1 C44.8,23.1 42.5,21 39.3,21 Z" id="Shape" fill="#6E3A27" fill-rule="nonzero"></path>
                <path d="M12.5,25.5 C12.5,25.5 12.3,24.5 12.8,23.7 C13.1,23.3 13.5,23 14,22.9 C15.4,22.6 18.2,24.1 18.3,24.2 L18,24.7 C17.3,24.3 15.1,23.3 14.1,23.5 C13.7,23.6 13.4,23.8 13.2,24 C12.8,24.6 13,25.4 13,25.4 L12.5,25.5 Z" id="Path" fill="#6E3A27"></path>
                <path d="M50.8,25.5 L50.3,25.4 C50.3,25.4 50.5,24.6 50.1,24 C49.9,23.7 49.6,23.5 49.2,23.5 C48.2,23.3 46.1,24.3 45.3,24.7 L45,24.2 C45.1,24.1 47.9,22.6 49.3,22.9 C49.8,23 50.2,23.3 50.5,23.7 C51,24.4 50.8,25.4 50.8,25.5 Z" id="Path" fill="#6E3A27"></path>
                <path d="M29.7,25.1 L29.3,24.7 C29.3,24.7 31.4,23 33.8,24.6 L33.5,25.1 C31.4,23.7 29.7,25 29.7,25.1 Z" id="Path" fill="#6E3A27"></path>
                <path d="M14.2,24.1 C14.2,24.1 12.5,23.2 11.8,24.2 C11.1,25.2 12.3,28.5 13.4,28.5 C14.5,28.5 14.9,27.3 14.9,27.3 L14.2,24.1 Z" id="Path" fill="#E9CCAE"></path>
                <path d="M48.8,24.1 C48.8,24.1 50.5,23.2 51.2,24.2 C51.9,25.2 50.7,28.5 49.6,28.5 C48.5,28.5 48.1,27.3 48.1,27.3 L48.8,24.1 Z" id="Path" fill="#E9CCAE"></path>
                <path d="M22.1,2.4 C22.1,2.4 23.6,7.4 23,9.1 C22.4,10.8 17.4,12.1 16.3,15.2 C15.3,18.3 13.6,22.6 13.6,22.6 C13.6,22.6 12.2,17.3 13.2,12.5 C14.4,6.7 18.2,1.4 22.1,2.4 Z" id="Path" fill="#E6E7E7"></path>
                <path d="M40.8,2.4 C40.8,2.4 39.3,7.4 39.9,9.1 C40.5,10.8 45.5,12.1 46.6,15.2 C47.6,18.3 49.3,22.6 49.3,22.6 C49.3,22.6 50.7,17.3 49.7,12.5 C48.5,6.7 44.7,1.4 40.8,2.4 Z" id="Path" fill="#E6E7E7"></path>
                <path d="M37.6,7.9 C37.6,7.9 38.4,10.3 32.1,11.6 C25.8,12.9 18.8,11.1 15.7,17.1 C15.7,17.1 16.4,12 21.5,8.9 C26.6,5.7 33.5,6.7 33.5,6.7 C33.5,6.7 29.8,4.8 23.8,6.9 C23.7,6.8 31.7,2.4 37.6,7.9 Z" id="Path" fill="#FFFFFF"></path>
                <path d="M39.6,8.5 C39.4,9.1 39.1,9.5 38.8,10 C38.5,10.4 38.1,10.8 37.7,11.1 C36.9,11.7 36,12.1 35,12.4 C34.5,12.6 34,12.7 33.6,12.8 C33.1,12.9 32.6,13 32.2,13.1 C31.2,13.2 30.3,13.3 29.3,13.3 C30.3,13.2 31.2,13 32.2,12.8 C32.7,12.7 33.1,12.5 33.6,12.4 C34,12.2 34.5,12.1 34.9,11.9 C35.8,11.5 36.6,11 37.3,10.4 C37.7,10.1 38,9.8 38.2,9.4 C38.5,9.1 38.7,8.6 38.7,8.3 L38.7,8.2 C38.8,7.9 39,7.7 39.3,7.8 C39.6,7.9 39.7,8.2 39.6,8.5 C39.7,8.5 39.6,8.5 39.6,8.5 Z" id="Path" fill="#FFFFFF"></path>
                <path d="M41.1,2.6 C41.1,2.6 39.8,7.9 41.4,9.3 C43,10.7 45.8,10.6 47.4,13.4 C47.4,13.4 47.5,12.3 47.3,10.8 C47.3,10.8 49,13 49.5,16.2 C49.5,16.2 49.4,5.6 43,2.7 C42.3,2.6 41.5,2.5 41.1,2.6 Z" id="Path" fill="#FFFFFF"></path>
                <path d="M22,2.6 C22,2.6 23.3,7.9 21.7,9.3 C20.1,10.7 17.3,10.6 15.7,13.4 C15.7,13.4 15.6,12.3 15.8,10.8 C15.8,10.8 14.1,13 13.6,16.2 C13.6,16.2 13.7,5.6 20.1,2.7 C20.7,2.6 21.6,2.5 22,2.6 Z" id="Path" fill="#FFFFFF"></path>
                <path d="M22.1,2.9 C22.1,2.9 22.4,6.9 19.4,8 C16.4,9.1 15.3,9.8 14.6,12.1 C14.6,12.1 15.8,9.8 17.6,9.2 C19.3,8.6 21.1,8.5 21.6,7.3 C21.6,7.3 21.3,8.9 18.2,10.3 C18.2,10.3 21.4,9.6 21.8,8.8 C22.2,7.9 22.8,6.1 22.1,2.9 Z" id="Path" fill="#E6E7E7"></path>
                <path d="M41.4,2.9 C41.4,2.9 41.1,6.9 44.1,8 C47.1,9.1 48.2,9.8 48.9,12.1 C48.9,12.1 47.7,9.8 45.9,9.2 C44.2,8.6 42.4,8.5 41.9,7.3 C41.9,7.3 42.2,8.9 45.3,10.3 C45.3,10.3 42.1,9.6 41.7,8.8 C41.3,7.9 40.7,6.1 41.4,2.9 Z" id="Path" fill="#E6E7E7"></path>
                <polyline id="Path" fill="#66692E" points="28.9 76 27.6 76 43.6 49.5 45.2 50.1 45.8 50.8 30.6 76"></polyline>
                <path d="M17.9,13.6 C18.5,13 19.4,12.7 20.2,12.4 C21,12.1 21.9,11.9 22.8,11.8 C24.5,11.5 26.3,11.3 28,11.2 C29.7,11.1 31.5,10.8 33.1,10.4 C33.9,10.2 34.7,9.9 35.4,9.5 C35.7,9.3 36.1,9.1 36.3,8.8 C36.4,8.7 36.5,8.5 36.6,8.4 C36.7,8.3 36.7,8.1 36.7,8.1 L37.5,8.4 C36.8,9 36.1,9.3 35.3,9.7 C34.5,10 33.7,10.2 33,10.3 C31.4,10.6 29.8,10.7 28.2,10.7 C26.6,10.7 25,10.6 23.5,10.5 C22.7,10.5 21.9,10.5 21.2,10.6 C20.4,10.8 19.7,11.1 19.1,11.5 C19.7,11 20.4,10.6 21.2,10.4 C22,10.2 22.8,10.1 23.6,10.1 C25.2,10.1 26.7,10.1 28.3,10 C29.9,9.9 31.4,9.8 32.9,9.5 C33.6,9.3 34.4,9.1 35.1,8.9 C35.8,8.6 36.5,8.3 37,7.9 L37.1,7.8 C37.3,7.6 37.6,7.6 37.8,7.8 C37.9,7.9 37.9,8 37.9,8.1 C37.9,8.5 37.8,8.7 37.6,9 C37.5,9.2 37.3,9.4 37.1,9.6 C36.7,10 36.3,10.2 35.9,10.5 C35.1,10.9 34.2,11.2 33.3,11.4 C31.5,11.8 29.8,12 28,12 C26.2,12.1 24.5,12.1 22.8,12.3 C21.9,12.4 21.1,12.5 20.2,12.7 C19.8,12.8 19.4,12.9 18.9,13 C18.6,13.1 18.2,13.3 17.9,13.6 Z" id="Path" fill="#E6E7E7"></path>
                <path d="M32.6,6.8 C33.4,6.7 34.2,6.6 34.9,6.7 C35.7,6.8 36.5,6.9 37.3,7.4 C37.5,7.5 37.6,7.8 37.5,8 C37.5,8.1 37.4,8.1 37.4,8.1 C36.7,8.6 36,8.8 35.3,9.1 C34.6,9.3 33.8,9.5 33.1,9.6 C32.4,9.7 31.6,9.7 30.9,9.7 C30.2,9.7 29.4,9.6 28.7,9.5 C29.4,9.4 30.2,9.2 30.9,9.1 C31.6,9 32.3,8.8 33,8.7 C33.7,8.5 34.4,8.4 35.1,8.2 C35.8,8 36.5,7.7 37,7.5 L37,8.3 C36.5,7.9 35.8,7.7 35,7.5 C34.2,7.1 33.4,7 32.6,6.8 Z" id="Path" fill="#E6E7E7"></path>
                <g id="Group" transform="translate(2.000000, 49.000000)" fill="#9E762B">
                    <polygon id="Path" points="28.5 17 26.9 14.5 25.4 17.1 27 19.6"></polygon>
                    <polygon id="Path" points="22.2 7.3 20.6 4.9 19.1 7.4 20.7 9.9"></polygon>
                    <polygon id="Path" points="17.7 9.7 16.1 12.2 17.8 14.7 19.3 12.2"></polygon>
                    <polygon id="Path" points="16.2 17.3 14.6 14.8 13.1 17.3 13.8 18.3 14.1 17.9 14.1 18.9 14.7 19.8"></polygon>
                    <polygon id="Path" points="25.6 21.9 24 19.4 22.5 21.9 24.1 24.5"></polygon>
                    <polyline id="Path" points="22.5 27 22.6 27 20.9 24.5 19.4 27"></polyline>
                    <polygon id="Path" points="20.9 14.7 19.4 17.2 20.8 19.4 22.4 16.9"></polygon>
                    <polygon id="Path" points="19.3 22 17.8 19.7 16.3 22.3 17.8 24.5"></polygon>
                    <polyline id="Path" points="16.2 27 16.3 26.9 14.8 24.7 14.5 25.2 14.7 27"></polyline>
                    <polyline id="Path" points="28.6 27 28.8 26.7 27.2 24.4 25.7 26.9 25.8 27"></polyline>
                    <polygon id="Path" points="31.7 21.9 30.1 19.5 28.6 22.1 30.1 24.4"></polygon>
                    <polygon id="Path" points="34.7 16.8 33.2 14.4 31.7 17 33.2 19.3"></polygon>
                    <polygon id="Path" points="37.8 11.7 36.3 9.4 34.8 11.9 36.3 14.3"></polygon>
                    <polygon id="Path" points="40.8 6.6 39.3 4.3 37.8 6.8 39.3 9.2"></polygon>
                    <polygon id="Path" points="43.8 1.8 43.2 1.1 41.6 0.5 40.7 2 42.2 4.3"></polygon>
                    <polyline id="Path" points="34.7 27 34.8 26.9 33.2 24.4 31.7 26.9 31.8 27"></polyline>
                    <polygon id="Path" points="37.9 16.8 39.5 19.3 41 16.8 39.4 14.3"></polygon>
                    <polygon id="Path" points="41 11.7 42.6 14.2 44.1 11.7 42.5 9.2"></polygon>
                    <polygon id="Path" points="47 6.8 45.4 4.3 43.9 6.8 45.4 9.3"></polygon>
                    <polygon id="Path" points="37.9 21.9 36.3 19.3 34.8 21.8 36.4 24.4"></polygon>
                    <polyline id="Path" points="40.7 27 41 26.5 39.6 24.3 38.1 26.8 38.2 27"></polyline>
                    <polygon id="Path" points="44.2 16.7 45.6 18.9 47.1 16.4 45.7 14.2"></polygon>
                    <polygon id="Path" points="50.1 11.6 48.6 9.3 47.1 11.9 48.6 14.1"></polygon>
                    <polygon id="Path" points="25.3 12.1 23.8 9.8 22.3 12.4 23.7 14.6"></polygon>
                    <polygon id="Path" points="19 2.4 17.7 0.5 16.9 0.7 15.8 2.4 17.4 4.9"></polygon>
                    <polygon id="Path" points="16.1 7.2 14.4 4.7 12.9 7.2 14.5 9.7"></polygon>
                    <polygon id="Path" points="9.8 12.3 11.5 14.8 13 12.3 11.4 9.8"></polygon>
                    <polygon id="Path" points="6.9 17.2 8.5 19.8 10 17.2 8.4 14.7"></polygon>
                    <polygon id="Path" points="3.8 22.3 5.4 24.9 6.9 22.4 5.3 19.8"></polygon>
                    <polyline id="Path" points="4 27 2.4 24.6 0.9 27"></polyline>
                    <polygon id="Path" points="47.3 21.3 48.9 23.9 50.4 21.3 48.8 18.8"></polygon>
                    <polygon id="Path" points="52.2 15.1 51.7 14 50.2 16.5 51.8 19.1 53 17"></polygon>
                    <polyline id="Path" points="53.2 27 53.6 26.3 52 23.8 50.5 26.3 50.9 27"></polyline>
                    <polygon id="Path" points="54.2 20.2 53.4 21.5 55 24.1 55.5 23.2"></polygon>
                    <polygon id="Path" points="41.1 21.7 42.6 24 43.8 21.9 43.9 21.1 42.6 19.2"></polygon>
                </g>
                <polygon id="Path" fill="#877A45" points="52.5 75.3 52.1 76 51.6 76 50.4 73.7 50.9 72.9"></polygon>
                <polygon id="Path" fill="#877A45" points="47.6 67.9 49.3 70.3 48.9 70.9 47.4 68.2"></polygon>
                <path d="M25.2,45.7 C25.2,49.2 31.8,51.8 31.8,51.8 C31.8,51.8 37.6,49.8 37.6,45.4 L39.7,48.6 C39.7,50.8 33.6,54.9 33.6,54.9 L31.8,51.8 L30,55.2 C30,55.2 23,51.7 23,48.7 L25.2,45.7 Z" id="Path" fill="#F0EFF0"></path>
            </g>
        </g>
    </g>
</svg>