<?xml version="1.0" encoding="UTF-8"?>
<svg width="53px" height="77px" viewBox="0 0 53 77" version="1.1" xmlns="http://www.w3.org/2000/svg" xmlns:xlink="http://www.w3.org/1999/xlink">
    <!-- Generator: Sketch 52.2 (67145) - http://www.bohemiancoding.com/sketch -->
    <title>paars-shirt</title>
    <desc>Created with Sketch.</desc>
    <defs>
        <linearGradient x1="49.9615679%" y1="100.005497%" x2="49.9615679%" y2="0.234293194%" id="linearGradient-1">
            <stop stop-color="#FEDDC8" offset="0%"></stop>
            <stop stop-color="#EACDBC" offset="100%"></stop>
        </linearGradient>
    </defs>
    <g id="Page-1" stroke="none" stroke-width="1" fill="none" fill-rule="evenodd">
        <g id="alle-poppetjes-od-copy" transform="translate(-435.000000, -8.000000)">
            <g id="paars-shirt" transform="translate(435.000000, 8.000000)">
                <path d="M7,76.7 L16.3,63.7 L18.8,76.7 L39,76.7 C40.3,66.3 39,62.4 39,62.4 L47.1,76.7 L53,76.7 L43.2,54 C43.2,54 42.7,51.7 39,50.5 C35.4,49.3 33.3,47.9 33.3,45.3 C33.3,42.7 33.3,38.5 33.3,38.5 L28.9,38.5 L24.5,38.5 C24.5,38.5 24.5,42.7 24.5,45.3 C24.5,47.9 21.7,49.1 18.1,50.3 C14.5,51.5 14,53.8 14,53.8 L0.7,76.6 L7,76.6 L7,76.7 Z" id="Path" fill="url(#linearGradient-1)"></path>
                <path d="M44.7,19 C44.7,31.6 40.2,41.9 28.8,41.9 C17.3,41.9 13.1,31.5 13.1,18.9 C13.1,6.3 23.8,3.8 29,3.8 C34.2,3.8 44.7,6.4 44.7,19 Z" id="Path" fill="#FEDDC8"></path>
                <path d="M25.2,27.1 C25.2,28.8 23.8,30.2 22,30.2 C20.3,30.2 18.8,28.8 18.8,27.1 C18.8,25.4 20.2,24 22,24 C23.8,24 25.2,25.4 25.2,27.1 Z" id="Path" fill="#6DCFF6"></path>
                <path d="M24.4,27.1 C24.4,28.3 23.4,29.3 22.2,29.3 C21,29.3 20,28.3 20,27.1 C20,25.9 21,24.9 22.2,24.9 C23.4,24.9 24.4,25.9 24.4,27.1 Z" id="Path" fill="#2B2111"></path>
                <path d="M21.3,25.9 C21.3,26.2 21,26.5 20.7,26.5 C20.4,26.5 20.1,26.2 20.1,25.9 C20.1,25.6 20.4,25.3 20.7,25.3 C21,25.3 21.3,25.6 21.3,25.9 Z" id="Path" fill="#FFFFFF"></path>
                <path d="M21.9,34 C24.1,35.3 26.4,36.1 28.7,36.1 C31.1,36.1 33.3,35.2 35.6,34 C34.8,35 33.7,35.8 32.6,36.4 C31.4,37 30.1,37.3 28.8,37.3 C27.5,37.3 26.1,37 24.9,36.4 C23.8,35.9 22.7,35.1 21.9,34 Z" id="Path" fill="#C42D77"></path>
                <path d="M32.9,27.1 C32.9,28.8 34.3,30.2 36.1,30.2 C37.8,30.2 39.3,28.8 39.3,27.1 C39.3,25.4 37.9,24 36.1,24 C34.4,24 32.9,25.4 32.9,27.1 Z" id="Path" fill="#6DCFF6"></path>
                <path d="M33.8,27.1 C33.8,28.3 34.8,29.3 36,29.3 C37.2,29.3 38.2,28.3 38.2,27.1 C38.2,25.9 37.2,24.9 36,24.9 C34.7,24.9 33.8,25.9 33.8,27.1 Z" id="Path" fill="#2B2111"></path>
                <path d="M33.9,25.9 C33.9,26.2 34.2,26.5 34.5,26.5 C34.8,26.5 35.1,26.2 35.1,25.9 C35.1,25.6 34.8,25.3 34.5,25.3 C34.2,25.3 33.9,25.6 33.9,25.9 Z" id="Path" fill="#FFFFFF"></path>
                <path d="M13.8,26.9 C13.8,26.9 15.9,14.6 22,12.8 C29.3,10.6 35.6,12.4 37.5,13.2 C40.6,14.5 44,26.6 44,26.6 C44,26.6 45.6,16.4 44.7,13.3 C43.7,10.2 41.2,7.1 41.2,7.1 C41.2,7.1 40.4,3.6 37.3,2.8 C34.2,2 32,0.3 32,0.3 L32,1.1 L26.6,0.1 L26.9,1.1 L20.3,1.7 L21.1,2.7 L16.7,4 L17.7,4.5 L13.3,7.1 L15.1,7.1 L13,11.1 L12.5,11.8 L13.5,12.1 L12,16.2 L13.3,16.2 L12.3,20.3 L12.3,20.4 L13.1,20.2 L13.8,26.9 Z" id="Path" fill="#EDC867"></path>
                <path d="M37.8,13.3 L40.8,8.4 L37.5,12.2 C37.5,12.2 25.7,9.2 21.1,13.4 C21,13.3 28,9.6 37.8,13.3 Z" id="Path" fill="#C7A957"></path>
                <path d="M37.1,12.8 C37.1,12.8 40.1,14.7 42.3,20.9 C42.3,20.9 41.1,15.3 37.5,12.1 L37.1,12.8 Z" id="Path" fill="#C7A957"></path>
                <path d="M33.6,11.8 L28.9,9.7 L29.1,10.4 L24.8,9.3 L26.1,10.6 L23.1,10.3 L23.8,10.7 L20.3,11.3 L22.1,11.5 C22.1,11.5 19.5,12 18.7,12.9 C17.9,13.8 15.6,20 15.6,20 C15.6,20 19.3,13.3 21.1,12.9 C23,12.4 33.6,11.8 33.6,11.8 Z" id="Path" fill="#C7A957"></path>
                <polygon id="Path" fill="#EFE08A" points="37.6 5.5 35.4 4 36.7 5.3 35 5 34.2 4.8 34.3 5.6 35.5 5.9 32.3 6.1 34.4 6.7 33.6 7.8 36.1 7.8"></polygon>
                <path d="M41.2,10.6 C41,10.8 40,11.9 40.4,13.2 C40.8,14.5 41.7,16.7 41.7,16.7 L41.4,13.4 L42.2,14 L41.2,10.6 Z" id="Path" fill="#EFE08A"></path>
                <path d="M35.7,10 C33.4,9.9 29.2,8.2 29.2,8.2 L32.7,8.9 L32.4,8.1 L34.5,8.3 C34.5,8.3 31.5,6.8 31.9,6.9 C32.3,7 35.5,7.5 35.5,7.5 L35.7,10 Z" id="Path" fill="#EFE08A"></path>
                <path d="M17.6,12.5 C17.1,14.1 15.5,19.2 15.5,19.2 L16.1,16.2 C16.1,16.2 15.9,16 15.9,15.6 C15.9,15.3 17.6,12.5 17.6,12.5 Z" id="Path" fill="#EFE08A"></path>
                <path d="M16.5,66.1 C16.5,66.1 17.2,72.2 17.7,76.7 L38.7,76.7 C39.2,71.8 40.2,66.3 40.2,66.3 L42.4,70.5 L49.1,64.8 L43.9,52 L39.2,49.5 C39.2,49.5 37,56.9 29.6,57.1 C22.2,57.3 18.3,49.5 18.3,49.5 L14.8,50.7 L8.1,62 L13,70.6 L16.5,66.1 Z" id="Path" fill="#553083"></path>
                <path d="M22.7,76.7 L33.7,76.7 C35.5,75.3 36.9,73.2 36.8,71.1 C36.6,67.6 35.3,62.1 33.7,61.7 C32.1,61.4 28.4,60.7 28.4,60.7 C28.4,60.7 26.3,60.2 23.5,62.5 C20.7,64.8 18.7,70.4 20.9,74.3 C21.4,75.4 22,76.1 22.7,76.7 Z" id="Path" fill="#C42D77"></path>
                <path d="M32.2,68.3 C31.6,66.8 31.1,65.3 31.9,65.3 C31.9,65.3 30.8,63.6 28.6,65 C26.5,66.5 25.9,73.5 23.1,73.2 C23.1,73.2 27,73.8 29.5,73.1 C32.2,72.3 32.8,69.9 32.2,68.3 Z M29.9,66.5 C29.5,66.5 29.2,66.2 29.2,65.8 C29.2,65.4 29.5,65.1 29.9,65.1 C30.3,65.1 30.6,65.4 30.6,65.8 C30.6,66.2 30.2,66.5 29.9,66.5 Z" id="Shape" fill="#FFFFFF" fill-rule="nonzero"></path>
            </g>
        </g>
    </g>
</svg>