<?xml version="1.0" encoding="UTF-8"?>
<svg width="64px" height="96px" viewBox="0 0 64 96" version="1.1" xmlns="http://www.w3.org/2000/svg" xmlns:xlink="http://www.w3.org/1999/xlink">
    <!-- Generator: Sketch 52.2 (67145) - http://www.bohemiancoding.com/sketch -->
    <title>ruitjestrui</title>
    <desc>Created with Sketch.</desc>
    <defs>
        <linearGradient x1="-0.32748091%" y1="50.4844035%" x2="99.9968285%" y2="49.407287%" id="linearGradient-1">
            <stop stop-color="#604A2D" offset="0%"></stop>
            <stop stop-color="#47361C" offset="100%"></stop>
        </linearGradient>
    </defs>
    <g id="Page-1" stroke="none" stroke-width="1" fill="none" fill-rule="evenodd">
        <g id="alle-poppetjes-od-copy" transform="translate(0.000000, -148.000000)">
            <g id="ruitjestrui" transform="translate(0.000000, 148.000000)">
                <path d="M28.4,49.3 C28.4,49.3 26.9,44.4 27.4,44 C28,43.6 36.5,42.4 39.7,43.7 L39.5,49.3 L29.8,53.8 L28.4,49.3 Z" id="Path" fill="#B0B1B4"></path>
                <path d="M11.2,75.6 L20.4,62.4 L21.8,75.5 L44.7,75.3 C45.8,63.2 46.1,61.2 46.1,61.2 L53.7,75.2 L59.3,75.2 L49.3,52.4 C49.3,52.4 48.8,50.1 45.1,48.9 C41.4,47.7 38.1,46.4 38.1,43.7 C38.1,41.1 38,36.8 38,36.8 L33.6,36.8 L29.2,36.8 C29.2,36.8 29.2,41.1 29.3,43.7 C29.3,46.3 26,47.6 22.4,48.8 C18.7,50 18.3,52.3 18.3,52.3 L5,75.4 L11.2,75.6 Z" id="Path" fill="url(#linearGradient-1)"></path>
                <path d="M11.5,75.6 L19.8,63.3 C19.8,63.3 20.3,70.1 20.7,75.5 L45.5,75.3 C45.9,69.5 46.4,62.2 46.4,62.2 L53.5,75.3 L59.6,75.3 C55.9,66.4 49.5,50.9 48.7,49.9 C47.7,48.6 39.6,46.3 39.6,46.3 L33.5,55.3 L26.6,46.1 C26.6,46.1 19.3,48.8 18.7,49.1 C18.2,49.4 8.9,66.8 4.2,75.7 L11.5,75.6 Z" id="Path" fill="#24B34B"></path>
                <path d="M49.4,17.1 C49.5,29.8 45.1,40.2 33.5,40.3 C21.9,40.4 17.6,29.9 17.5,17.2 C17.4,4.5 28.2,3.1 33.5,3.1 C38.6,3 49.3,4.4 49.4,17.1 Z" id="Path" fill="#604A2D"></path>
                <path d="M30.7,25.4 C30.7,27.1 29.3,28.6 27.5,28.6 C25.7,28.6 24.3,27.2 24.3,25.5 C24.3,23.8 25.7,22.3 27.5,22.3 C29.2,22.2 30.7,23.6 30.7,25.4 Z" id="Path" fill="#906A2D"></path>
                <path d="M29.9,25.4 C29.9,26.6 28.9,27.6 27.7,27.6 C26.5,27.6 25.5,26.6 25.5,25.4 C25.5,24.2 26.5,23.2 27.7,23.2 C28.9,23.2 29.9,24.1 29.9,25.4 Z" id="Path" fill="#2B2111"></path>
                <path d="M26.7,24.2 C26.7,24.6 26.4,24.8 26.1,24.8 C25.7,24.8 25.5,24.5 25.5,24.2 C25.5,23.8 25.8,23.6 26.1,23.6 C26.4,23.6 26.7,23.9 26.7,24.2 Z" id="Path" fill="#FFFFFF"></path>
                <path d="M26.5,32.4 C28.7,33.7 31,34.5 33.4,34.5 C35.8,34.5 38.1,33.5 40.3,32.3 C39.5,33.3 38.4,34.1 37.3,34.7 C36.1,35.3 34.8,35.6 33.4,35.7 C32.1,35.7 30.7,35.4 29.5,34.8 C28.3,34.2 27.2,33.4 26.5,32.4 Z" id="Path" fill="#2B2111"></path>
                <path d="M36.5,25.3 C36.5,27 38,28.4 39.7,28.4 C41.5,28.4 42.9,27 42.9,25.2 C42.9,23.5 41.4,22.1 39.7,22.1 C37.9,22.1 36.5,23.6 36.5,25.3 Z" id="Path" fill="#906A2D"></path>
                <path d="M37.3,25.3 C37.3,26.5 38.3,27.5 39.5,27.5 C40.7,27.5 41.7,26.5 41.7,25.3 C41.7,24.1 40.7,23.1 39.5,23.1 C38.3,23.1 37.3,24.1 37.3,25.3 Z" id="Path" fill="#2B2111"></path>
                <path d="M37.5,24.2 C37.5,24.6 37.8,24.8 38.1,24.8 C38.5,24.8 38.7,24.5 38.7,24.2 C38.7,23.9 38.4,23.6 38.1,23.6 C37.7,23.5 37.5,23.8 37.5,24.2 Z" id="Path" fill="#FFFFFF"></path>
                <path d="M27.6,47.8 C27.6,47.8 33.4,52.7 39.5,47.7 L33.5,55.2 L27.6,47.8 Z" id="Path" fill="#024252"></path>
                <path d="M51.6,16.6 C51.6,16.1 51.2,15.6 50.7,15.6 C51.3,15.5 51.7,15 51.7,14.4 C51.7,13.7 51.1,13.1 50.4,13.2 C50.3,13.2 50.2,13.2 50.1,13.2 C50.1,13.2 50.1,13.2 50.1,13.2 C50.6,13 51,12.6 51,12 C51,11.3 50.4,10.7 49.7,10.8 C49.7,10.8 49.6,10.8 49.6,10.8 C50,10.5 50.2,10 50.2,9.5 C50.2,8.5 49.4,7.8 48.4,7.8 C48.2,7.8 48,7.8 47.8,7.9 C48.1,7.6 48.2,7.3 48.2,6.8 C48.2,6 47.5,5.3 46.7,5.4 C46.6,5.4 46.5,5.4 46.3,5.5 C46.3,5.4 46.3,5.4 46.3,5.3 C46.3,4.4 45.6,3.7 44.7,3.7 C44.3,3.7 44,3.8 43.7,4 C43.7,3.9 43.7,3.8 43.7,3.7 C43.7,2.8 43,2.1 42.1,2.1 C41.7,2.1 41.4,2.2 41.1,2.5 C41.1,1.6 40.3,0.8 39.3,0.8 C38.7,0.8 38.2,1.1 37.9,1.6 C37.7,0.9 37.1,0.4 36.3,0.4 C35.8,0.4 35.3,0.6 35.1,1 C34.8,0.5 34.3,0.1 33.7,0.1 C33.3,0.1 32.9,0.3 32.6,0.5 C32.4,0.4 32.1,0.3 31.9,0.3 C31.5,0.3 31.2,0.5 30.9,0.7 C30.6,0.5 30.3,0.4 29.9,0.4 C29.1,0.4 28.5,0.9 28.4,1.6 C28.1,1.1 27.5,0.8 26.9,0.8 C26,0.8 25.2,1.6 25.2,2.5 C24.9,2.3 24.6,2.2 24.2,2.2 C23.3,2.2 22.6,2.9 22.6,3.8 C22.6,3.9 22.6,4 22.6,4.1 C22.3,3.9 22,3.8 21.6,3.8 C20.7,3.8 20,4.5 20,5.4 C20,5.5 20,5.5 20,5.6 C19.9,5.6 19.8,5.6 19.6,5.6 C18.8,5.6 18.1,6.3 18.2,7.1 C18.2,7.4 18.3,7.6 18.4,7.8 C18.3,7.8 18.3,7.8 18.2,7.8 C17.6,7.8 17.2,8.3 17.2,8.9 C17.2,9.3 17.4,9.6 17.7,9.8 C17.7,9.8 17.7,9.8 17.7,9.8 C17.6,9.8 17.5,9.7 17.3,9.7 C16.7,9.7 16.3,10.2 16.3,10.8 C16.3,10.9 16.3,11.1 16.4,11.2 C15.9,11.4 15.6,11.8 15.6,12.4 C15.6,12.9 15.9,13.4 16.4,13.6 C16.4,13.6 16.4,13.6 16.4,13.6 C16.3,13.6 16.3,13.6 16.2,13.6 C15.5,13.6 14.9,14.2 15,14.9 C15,15.5 15.4,16 16,16.1 C15.5,16.2 15.1,16.6 15.1,17.1 C15.1,17.6 15.5,18.1 16,18.1 C15.5,18.2 15.1,18.6 15.1,19.1 C15.1,19.6 15.5,20.1 16,20.1 C16,20.1 16,20.2 16,20.2 C15.6,20.3 15.3,20.7 15.4,21.1 C15.4,21.6 15.7,21.9 16.2,22 C16.2,22.1 16.2,22.1 16.2,22.1 C16,22.3 15.9,22.5 15.9,22.8 C15.9,23.1 16.1,23.4 16.4,23.6 C16.4,23.7 16.4,23.7 16.4,23.8 C16.3,23.9 16.3,24 16.3,24.2 C16.3,24.4 16.4,24.6 16.5,24.7 C16.6,25.5 18.4,27.2 18.4,27.2 C18.4,27.2 18.9,18.7 19.9,17.6 C20.1,17.4 20.2,17.2 20.4,17 C21,17 21.4,16.5 21.4,15.9 C21.4,15.9 21.4,15.9 21.4,15.8 C21.6,16 21.8,16.1 22.1,16.1 C22.7,16.1 23.1,15.6 23.1,15 C23.1,14.9 23.1,14.7 23,14.6 C23.1,14.6 23.2,14.6 23.2,14.6 C23.6,14.6 24,14.3 24.2,13.9 C26,13.3 28.9,12.9 33.5,12.8 C38.7,12.8 41.8,13.4 43.8,14.5 C43.9,14.8 44.2,15 44.5,15 C44.5,15 44.5,15 44.5,15 C44.5,15 44.5,15.1 44.5,15.1 C44.5,15.7 45,16.1 45.6,16.1 C45.7,16.1 45.8,16.1 45.9,16 C45.9,16 45.9,16 45.9,16 C45.9,16.1 45.9,16.2 45.9,16.2 C45.9,16.7 46.3,17.2 46.8,17.2 C46.9,17.3 46.9,17.4 47,17.5 C48.4,20.3 48,27.8 48,27.8 C48.3,26.7 49.9,25.5 50.1,24.3 C50.3,24.2 50.5,23.9 50.5,23.7 C50.5,23.5 50.4,23.3 50.3,23.2 C50.6,23.1 50.9,22.7 50.9,22.3 C50.9,22 50.7,21.7 50.5,21.5 C50.5,21.5 50.5,21.5 50.5,21.5 C51,21.5 51.4,21.1 51.4,20.6 C51.4,20.1 51.1,19.8 50.6,19.7 C50.6,19.7 50.6,19.7 50.6,19.6 C51.2,19.6 51.6,19.1 51.6,18.5 C51.6,18 51.2,17.6 50.7,17.5 C51.2,17.6 51.6,17.1 51.6,16.6 Z" id="Path" fill="#2B2111"></path>
                <g id="Group" transform="translate(5.000000, 42.000000)" fill="#F99E1E">
                    <polygon id="Path" points="3.4 22.2 0.9 27.6 3.5 32.9 1 38.2 3.6 43.5 6.1 38.1 3.6 32.9 6 27.6"></polygon>
                    <polygon id="Path" points="13.7 1 11.2 6.4 13.8 11.7 11.3 17 13.8 22.2 11.4 27.5 13.9 32.8 11.5 38.1 14 43.4 11.5 48.7 14.1 54 16.6 48.6 14.1 43.4 16.6 38.1 14 32.8 16.5 27.5 13.9 22.2 16.4 16.9 13.8 11.7 16.3 6.4"></polygon>
                    <polygon id="Path" points="24.2 0.9 21.7 6.3 24.2 11.6 21.7 16.9 24.3 22.1 21.8 27.4 24.4 32.7 21.9 38 24.5 43.3 22 48.6 24.6 53.9 27.1 48.5 24.5 43.3 27 38 24.4 32.7 26.9 27.4 24.4 22.1 26.8 16.8 24.3 11.6 26.8 6.3"></polygon>
                    <polygon id="Path" points="34.6 0.8 32.1 6.2 34.7 11.5 32.2 16.8 34.7 22.1 32.3 27.4 34.8 32.6 32.3 37.9 34.9 43.2 32.4 48.5 35 53.9 37.5 48.5 35 43.2 37.4 37.9 34.9 32.6 37.4 27.3 34.8 22.1 37.3 16.8 34.7 11.5 37.2 6.2"></polygon>
                    <polygon id="Path" points="45.1 0.8 42.5 6.2 45.1 11.4 42.6 16.7 45.2 22 42.7 27.3 45.3 32.6 42.8 37.9 45.4 43.2 47.9 37.8 45.3 32.6 47.8 27.2 45.3 22 47.7 16.7 45.2 11.4 47.6 6.1"></polygon>
                    <polygon id="Path" points="55.7 32.4 53.2 37.8 55.8 43.1 58.3 37.7"></polygon>
                </g>
                <g id="Group" transform="translate(4.000000, 45.000000)">
                    <path d="M51.7,29.5 L52.1,30.2 L55.6,30.2 C55,28.7 54.3,27.1 53.6,25.4 L51.7,29.5 Z" id="Path"></path>
                    <path d="M7.5,30.6 L9.1,28.3 L7.3,24.6 L9.8,19.3 L8.2,15.9 C5.5,21 2.4,26.7 0.3,30.7 L7.5,30.6 Z" id="Path"></path>
                    <path d="M41.5,30.2 C41.5,29.7 41.6,29.2 41.6,28.7 L41.2,29.6 L41.5,30.2 Z" id="Path"></path>
                    <path d="M41.1,8.4 L43.7,13.7 L41.2,19 L42.2,21.1 C42.4,18.8 42.5,17.2 42.5,17.2 L49.6,30.3 L51.3,30.3 L51.7,29.5 L49.1,24.2 L51.2,19.6 C48.2,12.4 45.2,5.4 44.7,4.8 C44.5,4.5 43.9,4.2 43.2,3.8 L41.1,8.4 Z" id="Path"></path>
                    <path d="M12.3,13.9 L9.8,19.2 L12,23.8 L15.8,18.3 C15.8,18.3 16.3,25.1 16.7,30.5 L19.9,30.5 L20.3,29.7 L17.7,24.4 L20.2,19.1 L17.6,13.8 L20.1,8.5 L17.5,3.2 L17.7,2.7 C16.2,3.3 14.9,3.8 14.6,3.9 C14.4,4 12.8,6.8 10.7,10.7 L12.3,13.9 Z" id="Path"></path>
                    <path d="M33.2,13.8 L30.7,19.1 L33.3,24.4 L30.8,29.7 L31.2,30.4 L40.9,30.3 L41.3,29.5 L38.7,24.2 L41.2,18.9 L38.6,13.6 L41.1,8.3 L38.5,3 L38.9,2.1 C37.1,1.5 35.6,1.1 35.6,1.1 L30.7,8.4 L33.2,13.8 Z" id="Path"></path>
                    <path d="M22.7,3.3 L20.2,8.6 L22.8,13.9 L20.3,19.2 L22.9,24.5 L20.4,29.8 L20.8,30.5 L30.5,30.4 L30.9,29.6 L28.3,24.3 L30.8,19 L28.2,13.7 L30.4,9 L29.6,10.1 L22.7,0.9 C22.7,0.9 22.3,1 21.8,1.2 L22.7,3.3 Z" id="Path"></path>
                </g>
                <g id="Group" transform="translate(4.000000, 45.000000)">
                    <path d="M17.3,3.3 L14.8,8.6 L17.4,13.9 L14.9,19.2 L15,19.4 L15.8,18.3 C15.8,18.3 15.9,19.6 16,21.4 L17.5,24.4 L16.4,26.7 C16.5,28 16.6,29.2 16.7,30.4 L25,30.3 L25.4,29.5 L22.8,24.2 L25.3,18.9 L22.7,13.6 L25.2,8.3 L22.6,3 L23.2,1.6 L22.5,0.7 C22.5,0.7 19.4,1.9 17.1,2.8 L17.3,3.3 Z" id="Path"></path>
                    <path d="M46.3,18.9 L48.9,24.2 L47.7,26.7 L49.6,30.2 L55.7,30.2 C53.8,25.5 51.1,19 48.8,13.7 L46.3,18.9 Z" id="Path"></path>
                    <path d="M7,24.5 L4.5,29.8 L4.9,30.5 L7.5,30.5 L14.1,20.8 L14.9,19.1 L12.3,13.8 L14.8,8.5 L13.5,5.9 C11.8,8.9 8.5,15 5.3,20.9 L7,24.5 Z" id="Path"></path>
                    <path d="M42.4,17.2 L44.8,21.7 L46.1,18.9 L43.5,13.6 L46,8.3 L44.1,4.3 C42.7,3.4 39.6,2.4 37.5,1.8 L38.1,3.1 L35.6,8.4 L38.2,13.7 L35.7,19 L38.3,24.3 L35.8,29.6 L36.2,30.3 L41.5,30.3 C41.9,24.5 42.4,17.2 42.4,17.2 Z" id="Path"></path>
                    <polygon id="Path" points="25.3 8.5 27.8 13.8 25.4 19.1 27.9 24.4 25.4 29.7 25.8 30.4 35.5 30.3 35.8 29.6 33.3 24.3 35.7 19 33.2 13.8 35.7 8.5 33.6 4.2 29.5 10.2 26.4 6.1"></polygon>
                    <path d="M4.1,30.6 L4.5,29.8 L2.7,26 C1.8,27.7 1,29.2 0.3,30.6 L4.1,30.6 Z" id="Path"></path>
                    <path d="M48.1,12.4 C47.4,10.8 46.8,9.3 46.2,8.1 L46.1,8.3 L48.1,12.4 Z" id="Path"></path>
                </g>
                <g id="Group" transform="translate(0.000000, 42.000000)" fill="#1A9C49">
                    <polygon id="Path" points="0.9 38.2 3.5 43.6 6 38.2 3.4 32.8"></polygon>
                    <polygon id="Path" points="13.7 11.6 11.2 17 13.7 22.3 11.3 27.6 13.8 32.8 11.3 38.1 13.9 43.5 16.4 38.1 13.9 32.8 16.4 27.5 13.8 22.3 16.3 17"></polygon>
                    <polygon id="Path" points="24.1 1 21.5 6.4 24.1 11.6 21.6 16.9 24.2 22.2 21.7 27.5 24.3 32.8 21.8 38.1 24.3 43.3 21.9 48.6 24.5 54 27 48.6 24.4 43.3 26.9 38 24.3 32.8 26.8 27.4 24.3 22.2 26.7 16.9 24.2 11.6 26.6 6.3"></polygon>
                    <polygon id="Path" points="34.5 0.9 32 6.3 34.5 11.5 32.1 16.8 34.6 22.1 32.2 27.4 34.7 32.7 32.2 38 34.8 43.2 32.3 48.5 34.9 53.9 37.4 48.5 34.9 43.2 37.3 37.9 34.8 32.7 37.2 27.4 34.7 22.1 37.2 16.8 34.6 11.5 37.1 6.2"></polygon>
                    <polygon id="Path" points="44.9 0.8 42.4 6.2 45 11.5 42.5 16.8 45.1 22 42.6 27.3 45.1 32.6 42.7 37.9 45.2 43.2 42.8 48.5 45.3 53.8 47.9 48.4 45.3 43.2 47.8 37.9 45.2 32.6 47.7 27.3 45.1 22 47.6 16.7 45.1 11.5 47.5 6.2"></polygon>
                    <polygon id="Path" points="58.1 27.2 55.5 21.9 53 27.2 55.6 32.5 53.1 37.8 55.7 43.2 58.2 37.8 55.7 32.5"></polygon>
                </g>
                <path d="M27.5,44 C27.7,46 33.9,54.2 33.9,54.2 C33.9,54.2 40.1,46.4 39.8,43.6 L42.3,46.8 C42.3,48.7 36.8,58.5 36.8,58.5 L33.8,54.7 L30.8,58.7 C30.8,58.7 25.1,49.2 25.1,46.6 L27.5,44 Z" id="Path" fill="#F0EFF0"></path>
            </g>
        </g>
    </g>
</svg>