<?xml version="1.0" encoding="UTF-8"?>
<svg width="56px" height="77px" viewBox="0 0 56 77" version="1.1" xmlns="http://www.w3.org/2000/svg" xmlns:xlink="http://www.w3.org/1999/xlink">
    <!-- Generator: Sketch 52.2 (67145) - http://www.bohemiancoding.com/sketch -->
    <title>ruitblouse</title>
    <desc>Created with Sketch.</desc>
    <defs>
        <linearGradient x1="49.8160584%" y1="99.8028424%" x2="49.8160584%" y2="-0.222739018%" id="linearGradient-1">
            <stop stop-color="#FDDFD8" offset="0%"></stop>
            <stop stop-color="#EDCBC8" offset="100%"></stop>
        </linearGradient>
    </defs>
    <g id="Page-1" stroke="none" stroke-width="1" fill="none" fill-rule="evenodd">
        <g id="alle-poppetjes-od-copy" transform="translate(-203.000000, -11.000000)">
            <g id="ruitblouse" transform="translate(203.000000, 11.000000)">
                <path d="M24.8,50.3 C24.8,50.3 23.3,45.4 23.9,45 C24.5,44.6 33.1,43.5 36.3,44.7 L36,50.3 L26.2,54.7 L24.8,50.3 Z" id="Path" fill="#B0B1B4"></path>
                <path d="M7.3,76.6 L16.7,63.4 L18,76.6 L41,76.6 C42.2,64.5 42.5,62.5 42.5,62.5 L50.1,76.6 L55.8,76.6 L45.9,53.6 C45.9,53.6 45.4,51.3 41.7,50.1 C38,48.9 34.7,47.5 34.7,44.9 C34.7,42.3 34.7,38 34.7,38 L30.2,38 L25.7,38 C25.7,38 25.7,42.3 25.7,44.9 C25.7,47.5 22.4,48.8 18.7,50 C15,51.2 14.5,53.5 14.5,53.5 L1,76.7 L7.3,76.7 L7.3,76.6 Z" id="Path" fill="url(#linearGradient-1)"></path>
                <path d="M46.1,18 C46.1,30.8 41.6,41.2 29.9,41.2 C18.2,41.2 13.9,30.6 13.9,17.8 C13.9,5 24.8,3.7 30.1,3.7 C35.4,3.7 46.1,5.2 46.1,18 Z" id="Path" fill="#FDDFD8"></path>
                <path d="M26.3,26.2 C26.3,28 24.9,29.4 23.1,29.4 C21.3,29.4 19.9,28 19.9,26.2 C19.9,24.4 21.3,23 23.1,23 C24.8,23 26.3,24.5 26.3,26.2 Z" id="Path" fill="#82B040"></path>
                <path d="M25.4,26.2 C25.4,27.4 24.4,28.4 23.2,28.4 C22,28.4 21,27.4 21,26.2 C21,25 22,24 23.2,24 C24.4,24 25.4,25 25.4,26.2 Z" id="Path" fill="#2B2111"></path>
                <path d="M22.3,25.1 C22.3,25.5 22,25.7 21.7,25.7 C21.3,25.7 21.1,25.4 21.1,25.1 C21.1,24.7 21.4,24.5 21.7,24.5 C22,24.4 22.3,24.7 22.3,25.1 Z" id="Path" fill="#FFFFFF"></path>
                <path d="M23,33.3 C25.2,34.6 27.6,35.5 29.9,35.4 C32.3,35.4 34.6,34.5 36.9,33.3 C36.1,34.3 35,35.1 33.8,35.7 C32.6,36.3 31.3,36.6 29.9,36.7 C28.5,36.7 27.2,36.4 26,35.8 C24.8,35.1 23.7,34.3 23,33.3 Z" id="Path" fill="#F99E1E"></path>
                <path d="M34.1,26.2 C34.1,28 35.5,29.4 37.3,29.4 C39.1,29.4 40.5,28 40.5,26.2 C40.5,24.4 39.1,23 37.3,23 C35.6,23 34.1,24.5 34.1,26.2 Z" id="Path" fill="#82B040"></path>
                <path d="M35,26.2 C35,27.4 36,28.4 37.2,28.4 C38.4,28.4 39.4,27.4 39.4,26.2 C39.4,25 38.4,24 37.2,24 C36,24 35,25 35,26.2 Z" id="Path" fill="#2B2111"></path>
                <path d="M35.1,25.1 C35.1,25.5 35.4,25.7 35.7,25.7 C36.1,25.7 36.3,25.4 36.3,25.1 C36.3,24.7 36,24.5 35.7,24.5 C35.4,24.4 35.1,24.7 35.1,25.1 Z" id="Path" fill="#FFFFFF"></path>
                <path d="M24,48.8 C24,48.8 29.8,53.8 36,48.8 L31.7,61.3 L24,48.8 Z" id="Path" fill="#FFFFFF"></path>
                <path d="M27.5,57.8 C27.5,57.8 29.5,61.3 30.3,61.3 C31.1,61.3 33.4,57.8 33.4,57.8 L30.4,55.5 L27.5,57.8 Z" id="Path" fill="#1A9C49"></path>
                <path d="M7.6,76.6 L16.1,64.3 C16.1,64.3 16.5,71.1 16.9,76.6 L41.9,76.6 C42.3,70.8 42.9,63.4 42.9,63.4 L49.9,76.6 L56,76.6 C52.4,67.7 46,51.9 45.3,51 C44.3,49.7 36.1,47.3 36.1,47.3 L29.9,56.3 L23,47 C23,47 15.7,49.7 15,50 C14.5,50.2 5,67.7 0.2,76.6 L7.6,76.6 Z" id="Path" fill="#E6E7E7"></path>
                <path d="M1.6,76.6 L2.8,74.5 C3.2,74.6 3.6,74.8 4,75 L3,76.6 L3.3,76.6 L4.2,75.1 C4.7,75.3 5.1,75.6 5.5,75.9 L5,76.6 L5.3,76.6 L5.7,76 C5.9,76.2 6.2,76.4 6.4,76.6 L6.7,76.6 C6.4,76.3 6.1,76 5.8,75.8 L6.7,74.2 C7.5,74.9 8,75.4 8,75.4 L8.2,75.2 C8.2,75.2 7.7,74.6 6.8,74 L7.9,72.2 C8.4,72.6 8.9,73 9.4,73.5 L9.6,73.3 C9.2,72.8 8.6,72.4 8.1,72 L9.2,70.2 C10,71 10.5,71.6 10.6,71.6 L10.8,71.4 C10.8,71.4 10.2,70.7 9.4,70 L10.5,68.2 C11.5,69.1 12.1,69.8 12.1,69.8 L12.3,69.6 C12.2,69.5 11.6,68.8 10.6,67.9 L11.6,66.3 L13.3,68 L13.5,67.8 L11.8,66 L13,64 L14.5,66.2 L14.7,66 L13.1,63.7 L14.5,61.4 C15,63.4 15.2,65.1 15.2,65.2 L15.4,64.9 C15.4,64.8 15.1,63.1 14.7,61.1 L16,59 C16,61.8 15.9,64 15.9,64.1 L15.9,64.3 L16.1,64.2 C16.1,64.2 16.7,64 17.9,63.8 C18,64.7 18,65.5 18.1,66.4 C16.9,66.7 16.2,66.9 16.2,66.9 L16.3,67.1 C16.3,67.1 17,66.9 18.1,66.6 C18.2,67.5 18.3,68.5 18.3,69.4 C17,69.6 16.3,69.8 16.3,69.8 L16.4,70 C16.4,70 17.1,69.8 18.4,69.6 C18.5,70.4 18.5,71.2 18.6,72 C17.3,72.1 16.6,72.2 16.5,72.2 L16.5,72.4 C16.5,72.4 17.3,72.3 18.6,72.2 C18.7,73.1 18.7,74 18.8,74.9 C18.1,75 17.5,75.1 16.9,75.2 L16.9,75.4 C17.5,75.3 18.1,75.2 18.8,75.1 C18.8,75.5 18.9,75.8 18.9,76.1 L19.2,76.1 C19.2,75.7 19.1,75.4 19.1,75 C19.7,74.9 20.3,74.9 21,74.8 L21.1,76.1 L21.3,76.1 L21.2,74.8 C21.9,74.7 22.5,74.7 23.2,74.6 L23.3,76.1 L23.5,76.1 L23.4,74.6 C24.2,74.6 25,74.5 25.8,74.5 L26,76.1 L26.2,76.1 L26,74.5 C26.8,74.5 27.5,74.5 28.3,74.4 L28.5,76.1 L28.8,76.1 L28.6,74.4 C29.9,74.4 31.1,74.4 32.3,74.4 L32.2,76.1 L32.4,76.1 L32.5,74.4 C33.1,74.4 33.7,74.4 34.2,74.4 L34.1,76 L34.4,76 L34.5,74.4 C35.4,74.4 36.2,74.5 37,74.5 C37,75 36.9,75.5 36.9,76 L37.2,76 C37.2,75.5 37.2,75 37.3,74.5 C38.2,74.5 39,74.6 39.7,74.6 C39.7,75.1 39.7,75.6 39.6,76 L39.9,76 C39.9,75.6 39.9,75.1 40,74.6 C41.2,74.7 42,74.7 42,74.7 L42,74.5 C42,74.5 41.2,74.4 40,74.4 C40,73.7 40.1,72.9 40.1,72.1 C40.8,72.2 41.5,72.3 42.2,72.4 L42.2,72.2 C41.5,72.1 40.8,72 40.1,71.9 C40.1,71.2 40.2,70.5 40.2,69.8 C40.9,69.9 41.7,70.1 42.4,70.2 L42.4,70 C41.6,69.9 40.9,69.7 40.1,69.6 C40.2,68.5 40.2,67.4 40.3,66.3 C41.1,66.4 41.8,66.6 42.6,66.8 L42.7,66.6 C41.9,66.4 41.1,66.3 40.4,66.1 C40.4,65.3 40.5,64.5 40.5,63.7 C41.3,63.8 42,63.9 42.8,64.1 L42.8,63.9 C42,63.8 41.2,63.6 40.5,63.5 C40.5,63 40.6,62.5 40.6,61.9 C41.4,62.1 42.1,62.2 42.9,62.4 C42.9,62.6 42.9,62.8 42.9,63 L43.2,63 C43.2,62 43.2,61.1 43.2,60.2 L44.3,62.4 C44.2,63.4 44.1,64.4 44.1,65.3 L44.4,65.3 C44.4,64.5 44.4,63.6 44.5,62.8 L45.5,64.8 C45.2,65.5 45.1,66.1 45,66.6 L45.2,66.6 C45.2,66.2 45.4,65.6 45.6,65.1 L46.6,67.1 C46.1,67.7 45.8,68.2 45.7,68.3 L45.9,68.4 C45.9,68.4 46.2,67.9 46.7,67.3 L47.9,69.6 C47.4,70 47,70.4 47,70.4 L47.2,70.6 C47.2,70.6 47.5,70.3 48,69.8 L49.3,72.4 C48.9,72.8 48.6,73.2 48.6,73.2 L48.8,73.3 C48.8,73.3 49,73 49.4,72.6 L51,75.7 C50.9,75.8 50.7,75.9 50.7,76 L51.1,76 C51.1,76 51.1,76 51.2,75.9 L51.2,76 L51.5,76 L51.4,75.8 C51.7,75.6 52.1,75.3 52.5,75 L53,76.1 L53.3,76.1 L52.7,74.9 C53.1,74.6 53.5,74.4 53.9,74.2 L54.7,76.1 L55,76.1 L54.1,74.1 C54.5,73.9 54.9,73.8 55.3,73.8 L55.3,73.5 C54.9,73.5 54.5,73.6 54,73.8 L52.6,70.6 C53,70.5 53.4,70.5 53.8,70.5 L53.8,70.3 C53.3,70.2 52.9,70.3 52.5,70.4 L51.2,67.5 C51.7,67.2 52.1,67.1 52.4,67.1 L52.4,66.9 C52,66.9 51.6,67 51,67.3 L49.6,64.2 C50,63.9 50.4,63.6 50.7,63.5 L50.6,63.3 C50.2,63.4 49.8,63.7 49.4,64 L47.8,60.3 C48.3,59.3 48.7,58.7 48.8,58.6 L48.6,58.5 C48.6,58.6 48.2,59.2 47.7,60 L46.1,56.4 C46.6,55 47,54.1 47,54.1 L46.8,54 C46.8,54 46.4,54.8 45.9,56.1 L44.2,52.3 C44.8,50.8 45.3,50.7 45.3,50.7 L45.3,50.5 C45.2,50.5 44.6,50.6 44,52 L41,51 C41.1,49.7 41.1,48.9 41.1,48.8 L40.9,48.8 C40.9,48.8 40.9,49.6 40.8,50.9 L38.5,50.1 C38.6,49.1 38.6,48.6 38.6,48.5 L38.4,48.5 C38.4,48.7 38.4,49.2 38.3,50 L37.9,49.9 L37.8,50.1 L38.2,50.2 C38.1,51.2 38.1,52.4 38,54 C37.4,53.8 36.9,53.7 36.3,53.6 L36.3,53.8 C36.9,53.9 37.4,54.1 38,54.2 C37.9,55.2 37.9,56.4 37.8,57.6 C37.2,57.4 36.5,57.3 35.9,57.2 L36.5,50.5 L36.3,50.5 L35.7,57.2 C35.3,57.1 34.8,57.1 34.4,57 L34.4,57.2 C34.9,57.3 35.3,57.3 35.7,57.4 L35.4,60.8 C34.8,60.7 34.2,60.7 33.7,60.6 L34.2,55 L34,55 L33.5,60.6 C31.3,60.4 29.3,60.4 27.4,60.4 L26.9,55.3 L26.7,55.3 L27.2,60.4 C26.4,60.4 25.6,60.4 24.9,60.5 L24.5,56.4 C24.8,56.3 25.2,56.3 25.5,56.2 L26.4,56.1 L26.4,55.9 L25.5,56 C25.2,56.1 24.8,56.1 24.5,56.2 L24.2,52.5 L24,52.5 L24.4,56.2 C23.7,56.3 23,56.5 22.3,56.6 L22,52.9 L23.7,52.4 L23.6,52.2 L21.9,52.7 L21.7,49.7 L22.6,49.4 L22.5,49.2 L21.7,49.4 L21.5,47.5 L21.3,47.5 L21.5,49.4 L19.8,49.9 L19.7,48.1 L19.5,48.1 L19.6,50 L17.5,50.6 C17.4,49.8 17.4,49.2 17.4,49 L17.2,49 C17.2,49 17.3,49.6 17.3,50.6 L16.2,50.9 C16.1,50.3 15.9,49.8 15.7,49.3 L15.5,49.4 C15.7,49.9 15.8,50.4 16,51 L13.5,55.5 C13.2,55 12.9,54.7 12.6,54.4 L12.4,54.6 C12.7,54.9 13.1,55.3 13.3,55.8 L11.2,59.6 L10.6,58.7 L10.4,58.8 L11.1,59.8 L9.6,62.5 L8.9,61.7 L8.7,61.9 L9.5,62.7 L8.3,64.8 C7.9,64.6 7.6,64.4 7.2,64.3 L7.1,64.5 C7.4,64.6 7.8,64.8 8.1,65 L7,67 C6.6,66.8 6.3,66.7 5.9,66.5 L5.8,66.7 C6.2,66.8 6.5,67 6.9,67.1 L5.7,69.2 C5.2,68.9 4.8,68.8 4.8,68.8 L4.7,69 C4.7,69 5.1,69.2 5.6,69.4 L4.6,71.2 C4.3,71.1 4,71 3.7,70.9 L3.6,71.1 C3.9,71.2 4.2,71.3 4.5,71.4 L3.4,73.3 C2.7,73.1 2.2,73 2.2,73 L2.1,73.2 C2.1,73.2 2.6,73.3 3.2,73.5 L2,75.6 C1.7,75.5 1.3,75.4 1,75.3 L0.9,75.5 C1.1,75.5 1.2,75.6 1.4,75.6 L1.6,75.6 L1.6,76.6 Z M5.7,75.7 C5.3,75.4 4.8,75.1 4.3,74.9 L5.3,73.2 C5.8,73.5 6.2,73.8 6.6,74.1 L5.7,75.7 Z M6.8,73.9 C6.4,73.6 6,73.3 5.5,73 L6.5,71.2 C6.9,71.5 7.4,71.8 7.9,72.1 L6.8,73.9 Z M8.1,71.8 C7.6,71.5 7.2,71.2 6.7,70.9 L7.9,68.9 C8.4,69.3 8.8,69.6 9.2,70 L8.1,71.8 Z M9.3,69.8 C8.9,69.5 8.5,69.1 8,68.7 L9.1,66.8 C9.6,67.2 10,67.6 10.4,67.9 L9.3,69.8 Z M10.5,67.8 C10.1,67.4 9.6,67 9.2,66.7 L10.2,64.9 L11.5,66.2 L10.5,67.8 Z M11.6,66 L10.3,64.7 L11.7,62.4 L12.8,64 L11.6,66 Z M13,63.7 L11.9,62.1 L13.8,58.9 C14.1,59.7 14.3,60.5 14.5,61.3 L13,63.7 Z M14.7,61 C14.5,60.2 14.3,59.4 14,58.6 L15.9,55.3 C16,56.5 16,57.6 16.1,58.8 L14.7,61 Z M16.3,58.8 C16.4,58.7 16.8,58.6 17.4,58.4 C17.5,59.4 17.6,60.4 17.7,61.5 C17,61.6 16.5,61.7 16.3,61.8 C16.3,61 16.3,59.9 16.3,58.8 Z M16.3,58.6 C16.3,57.4 16.2,56.2 16.1,55 L16.2,54.9 L17.1,54.7 C17.2,55.8 17.3,57 17.4,58.3 C16.8,58.4 16.4,58.5 16.3,58.6 Z M16.2,64.2 C16.2,63.9 16.3,63.1 16.3,62.1 C16.4,62.1 16.9,62 17.7,61.8 C17.8,62.4 17.8,63.1 17.9,63.8 C17,64 16.4,64.1 16.2,64.2 Z M17.6,58.4 C18.1,58.2 18.8,58 19.6,57.8 L19.8,61.3 C19,61.4 18.4,61.5 17.8,61.6 C17.8,60.5 17.7,59.4 17.6,58.4 Z M18.1,63.8 C18,63.1 18,62.5 17.9,61.8 C18.4,61.7 19.1,61.6 19.9,61.5 L20,63.4 C19.3,63.6 18.6,63.7 18.1,63.8 Z M18.3,66.6 C18.2,65.7 18.2,64.9 18.1,64 C18.6,63.9 19.3,63.8 20,63.7 L20.2,66.2 C19.5,66.4 18.8,66.5 18.3,66.6 Z M34.6,69.4 C34,69.3 33.4,69.3 32.9,69.3 L33.2,66 C33.8,66 34.3,66.1 34.9,66.1 L34.6,69.4 Z M35.1,66.1 C35.8,66.2 36.6,66.3 37.3,66.4 C37.2,67.5 37.2,68.6 37.1,69.8 C36.3,69.7 35.5,69.6 34.8,69.5 L35.1,66.1 Z M27.9,69.1 L27.6,65.8 C29.2,65.8 30.9,65.8 32.8,65.9 L32.5,69.2 C30.9,69.1 29.4,69.1 27.9,69.1 Z M27.9,71.9 C27.1,71.9 26.3,71.9 25.6,71.9 L25.4,69.3 C26.1,69.3 26.9,69.3 27.7,69.3 L27.9,71.9 Z M32.9,65.6 C31,65.5 29.2,65.5 27.6,65.5 L27.4,63.2 C29.1,63.2 31,63.2 33.1,63.4 L32.9,65.6 Z M27.7,69.1 C26.9,69.1 26.1,69.1 25.4,69.1 L25.1,65.9 C25.8,65.8 26.6,65.8 27.4,65.8 L27.7,69.1 Z M25.1,69.1 C24.3,69.1 23.5,69.2 22.8,69.2 L22.5,66.1 C22.8,66.1 23.2,66 23.6,66 C24,66 24.4,65.9 24.8,65.9 L25.1,69.1 Z M22.6,69.2 C21.9,69.3 21.3,69.3 20.7,69.4 L20.5,66.4 C21.1,66.3 21.7,66.2 22.4,66.1 L22.6,69.2 Z M20.5,66.2 L20.3,63.7 C20.9,63.6 21.5,63.6 22.1,63.5 L22.3,66 C21.6,66 21,66.1 20.5,66.2 Z M20.3,63.4 L20.2,61.5 C20.8,61.4 21.4,61.4 22,61.3 L22.2,63.2 C21.4,63.3 20.8,63.4 20.3,63.4 Z M18.3,66.8 C18.8,66.7 19.5,66.6 20.2,66.4 L20.4,69.4 C19.7,69.5 19,69.6 18.5,69.7 C18.5,68.7 18.4,67.8 18.3,66.8 Z M18.6,69.9 C19.1,69.8 19.8,69.7 20.5,69.6 L20.7,72.1 C20,72.2 19.4,72.2 18.8,72.3 C18.7,71.6 18.6,70.8 18.6,69.9 Z M19,75.3 C18.9,74.4 18.9,73.5 18.8,72.6 C19.3,72.5 20,72.5 20.7,72.4 L20.9,75 C20.2,75.1 19.6,75.2 19,75.3 Z M20.7,69.7 C21.3,69.6 21.9,69.6 22.6,69.5 L22.8,72.1 C22.1,72.1 21.5,72.2 20.9,72.2 L20.7,69.7 Z M21.1,75.1 L20.9,72.5 C21.5,72.5 22.2,72.4 22.9,72.4 L23.1,75 C22.4,75 21.7,75 21.1,75.1 Z M23.1,72 L22.9,69.4 C23.1,69.4 23.3,69.4 23.5,69.4 C24,69.4 24.6,69.3 25.2,69.3 L25.4,71.9 C24.6,72 23.8,72 23.1,72 Z M23.3,74.9 L23.1,72.3 C23.8,72.3 24.6,72.2 25.4,72.2 L25.6,74.8 C24.9,74.8 24.1,74.8 23.3,74.9 Z M25.9,74.8 L25.7,72.2 C26.4,72.2 27.2,72.2 28,72.2 L28.2,74.8 C27.4,74.7 26.7,74.7 25.9,74.8 Z M32.1,74.7 C30.9,74.7 29.7,74.7 28.4,74.7 L28.2,72.1 C29.5,72.1 30.9,72.1 32.3,72.2 L32.1,74.7 Z M32.4,71.9 C30.9,71.9 29.5,71.8 28.2,71.8 L28,69.2 C29.4,69.2 31,69.3 32.6,69.4 L32.4,71.9 Z M34.1,74.7 C33.5,74.7 33,74.7 32.4,74.7 L32.6,72.2 C33.2,72.2 33.7,72.2 34.3,72.3 L34.1,74.7 Z M34.3,72 C33.7,72 33.1,71.9 32.6,71.9 L32.8,69.4 C33.4,69.4 33.9,69.5 34.5,69.5 L34.3,72 Z M36.9,74.8 C36.1,74.8 35.3,74.7 34.4,74.7 L34.6,72.2 C35.4,72.2 36.2,72.3 37,72.4 C36.9,73.3 36.9,74.1 36.9,74.8 Z M37,72.2 C36.2,72.1 35.4,72.1 34.6,72 L34.8,69.6 C35.6,69.7 36.3,69.8 37.1,69.9 C37.1,70.7 37,71.5 37,72.2 Z M39.5,75 C38.8,75 38,74.9 37.1,74.9 C37.1,74.1 37.2,73.3 37.2,72.5 C38,72.6 38.8,72.6 39.6,72.7 C39.6,73.5 39.5,74.2 39.5,75 Z M39.6,72.4 C38.8,72.3 38,72.2 37.2,72.2 C37.2,71.5 37.3,70.7 37.3,69.9 C38.1,70 38.9,70.1 39.7,70.2 C39.7,71 39.6,71.7 39.6,72.4 Z M39.7,70 C38.9,69.9 38.1,69.8 37.3,69.7 C37.4,68.6 37.4,67.5 37.5,66.3 C38.3,66.4 39.1,66.5 39.9,66.7 C39.9,67.8 39.8,69 39.7,70 Z M39.9,66.5 C39.1,66.4 38.3,66.2 37.5,66.1 C37.5,65.3 37.6,64.5 37.6,63.8 C38.4,63.9 39.2,64 40,64.1 C40,64.9 40,65.7 39.9,66.5 Z M42.7,62.6 C41.9,62.4 41.2,62.2 40.4,62.1 C40.5,61.2 40.5,60.2 40.5,59.4 C41.6,59.8 42.4,60.3 42.7,60.4 C42.7,61.1 42.7,61.8 42.7,62.6 Z M44.1,62.4 L43.1,60.3 C43.1,60.3 43.1,60.3 43.1,60.3 C43.1,59 43.2,57.8 43.3,56.8 L44.8,59.8 C44.5,60.6 44.3,61.5 44.1,62.4 Z M45.4,64.8 L44.4,62.7 C44.5,61.8 44.7,60.9 44.9,60.1 L46.2,62.9 C45.9,63.6 45.6,64.2 45.4,64.8 Z M45.5,65.1 C45.7,64.5 46,63.9 46.3,63.2 L47.6,66 C47.2,66.4 46.8,66.9 46.5,67.3 L45.5,65.1 Z M46.7,67.5 C47,67.1 47.4,66.7 47.8,66.2 L49.1,68.9 C48.7,69.2 48.3,69.6 47.9,69.9 L46.7,67.5 Z M48,70.1 C48.3,69.8 48.7,69.5 49.2,69.1 L50.5,71.7 C50.1,72 49.7,72.3 49.4,72.7 L48,70.1 Z M51,76.2 L49.4,73 C49.7,72.7 50.1,72.4 50.5,72 L52.1,75.3 C51.7,75.6 51.3,75.9 51,76.2 Z M53.5,74.5 C53.1,74.7 52.7,74.9 52.3,75.2 L50.7,71.9 C51.1,71.6 51.5,71.4 52,71.2 L53.5,74.5 Z M52,71 C51.5,71.2 51.1,71.4 50.7,71.6 L49.4,68.9 C49.8,68.6 50.3,68.3 50.7,68 L52,71 Z M50.6,67.9 C50.2,68.1 49.7,68.5 49.3,68.8 L48,66.1 C48.4,65.7 48.8,65.2 49.3,64.9 L50.6,67.9 Z M49.1,64.6 C48.7,65 48.2,65.4 47.8,65.8 L46.4,63 C46.7,62.3 47.1,61.6 47.4,61 L49.1,64.6 Z M45.8,57.1 L47.4,60.7 C47.1,61.3 46.7,62 46.4,62.7 L45,59.8 C45.2,58.8 45.5,57.9 45.8,57.1 Z M44,53 L45.7,56.8 C45.4,57.6 45.1,58.5 44.8,59.4 L43.3,56.3 C43.5,54.9 43.7,53.8 44,53 Z M41,51.7 L43.8,52.6 L43.9,52.7 C43.6,53.6 43.3,54.8 43.1,56.3 C42.7,56.1 41.9,55.8 40.8,55.4 C40.9,53.9 40.9,52.7 41,51.7 Z M40.8,55.7 C41.9,56.1 42.7,56.4 43.1,56.6 C43,57.7 42.9,58.8 42.8,60.2 C42.4,60 41.7,59.6 40.6,59.2 C40.6,57.9 40.7,56.7 40.8,55.7 Z M38.4,50.8 L40.7,51.6 C40.6,52.6 40.6,53.9 40.5,55.3 C39.8,55 39,54.8 38.2,54.6 C38.3,53 38.3,51.8 38.4,50.8 Z M38.2,54.8 C39,55 39.8,55.3 40.5,55.5 C40.4,56.5 40.4,57.7 40.3,58.9 C39.6,58.6 38.8,58.4 38,58.1 C38,57 38.1,55.9 38.2,54.8 Z M38,58.4 C38.9,58.6 39.7,58.9 40.3,59.2 C40.3,60.1 40.2,61 40.1,62 C39.3,61.8 38.5,61.7 37.7,61.6 C37.9,60.5 37.9,59.5 38,58.4 Z M37.8,61.9 C38.6,62 39.4,62.2 40.2,62.3 C40.2,62.8 40.1,63.3 40.1,63.9 C39.3,63.8 38.5,63.7 37.7,63.6 C37.7,63 37.8,62.4 37.8,61.9 Z M35.8,58 C36.5,58.1 37.1,58.3 37.8,58.4 C37.7,59.4 37.7,60.5 37.6,61.6 C36.9,61.5 36.2,61.4 35.5,61.3 L35.8,58 Z M35.5,61.5 C36.2,61.6 36.9,61.7 37.6,61.8 C37.6,62.4 37.5,62.9 37.5,63.5 C36.8,63.4 36.1,63.3 35.4,63.3 L35.5,61.5 Z M35.3,63.5 C36,63.6 36.7,63.6 37.4,63.7 C37.4,64.5 37.3,65.2 37.3,66 C36.6,65.9 35.8,65.8 35.1,65.7 L35.3,63.5 Z M33.5,61.3 C34.1,61.3 34.6,61.4 35.2,61.5 L35.1,63.3 C34.5,63.2 33.9,63.2 33.4,63.2 L33.5,61.3 Z M33.3,63.4 C33.9,63.4 34.4,63.5 35,63.5 L34.8,65.8 C34.2,65.7 33.6,65.7 33.1,65.7 L33.3,63.4 Z M33.2,61.3 L33.1,63.1 C31,63 29.1,62.9 27.4,62.9 L27.2,61 C29.1,61.1 31.1,61.1 33.2,61.3 Z M27.4,65.6 C26.6,65.6 25.8,65.7 25.1,65.7 L24.9,63.3 C25.6,63.3 26.4,63.2 27.2,63.2 L27.4,65.6 Z M27,61.1 L27.2,63 C26.4,63 25.6,63 24.9,63.1 L24.7,61.2 C25.4,61.1 26.1,61.1 27,61.1 Z M24.8,65.7 C24,65.8 23.3,65.8 22.6,65.9 L22.4,63.4 C23.1,63.3 23.8,63.3 24.6,63.2 L24.8,65.7 Z M24.6,63.1 C23.8,63.1 23.1,63.2 22.4,63.3 L22.2,61.4 C22.9,61.3 23.6,61.3 24.4,61.3 L24.6,63.1 Z M24,56.8 L24.4,60.9 C23.6,60.9 22.9,61 22.2,61 L21.9,57.2 C22.5,57.1 23.2,57 24,56.8 Z M21.9,61.1 C21.2,61.2 20.6,61.2 20.1,61.3 L19.9,57.8 C20.4,57.7 21,57.5 21.7,57.4 L21.9,61.1 Z M21.6,57.1 C21,57.2 20.4,57.4 19.9,57.5 L19.6,53.9 L21.3,53.4 L21.6,57.1 Z M21,50.2 L21.2,53.2 L19.5,53.7 L19.3,50.8 L21,50.2 Z M19.6,57.6 C18.8,57.8 18.1,58 17.6,58.2 C17.5,56.9 17.4,55.7 17.3,54.6 L19.4,54 L19.6,57.6 Z M19.1,50.7 L19.3,53.6 L17.2,54.2 C17.1,53.1 17,52.1 16.9,51.3 L19.1,50.7 Z M16.7,51.5 C16.8,52.3 16.9,53.2 17,54.4 L16.1,54.7 C16,53.7 15.9,52.8 15.7,51.9 L16.7,51.5 Z M15.4,52 C15.6,52.9 15.7,53.9 15.8,54.9 L13.8,58.3 C13.5,57.6 13.3,57 12.9,56.4 L15.4,52 Z M12.8,56.7 C13.1,57.3 13.4,57.9 13.6,58.6 L11.7,61.9 L10.7,60.4 L12.8,56.7 Z M10.6,60.6 L11.6,62.1 L10.2,64.5 L9.1,63.3 L10.6,60.6 Z M8.9,63.6 L10,64.8 L8.9,66.6 C8.5,66.3 8.1,66 7.7,65.7 L8.9,63.6 Z M7.6,65.9 C8,66.2 8.4,66.5 8.8,66.8 L7.7,68.7 C7.3,68.4 6.9,68.2 6.5,67.9 L7.6,65.9 Z M6.4,68 C6.8,68.2 7.2,68.5 7.6,68.8 L6.4,70.8 C5.9,70.5 5.5,70.3 5.2,70.1 L6.4,68 Z M5.1,70.4 C5.5,70.6 5.9,70.8 6.3,71.1 L5.3,72.9 C4.9,72.7 4.5,72.4 4.1,72.3 L5.1,70.4 Z M4,72.4 C4.4,72.6 4.8,72.8 5.2,73 L4.2,74.7 C3.8,74.5 3.3,74.3 3,74.2 L4,72.4 Z" id="Shape" fill="#CDDDC1" fill-rule="nonzero"></path>
                <polygon id="Path" fill="#24B34B" points="33.5 76.6 31.1 58.7 28.9 58.8 25.4 76.6"></polygon>
                <path d="M27.1,57.5 C27.1,57.5 29.1,61 29.9,61 C30.7,61 33,57.5 33,57.5 L30,55.2 L27.1,57.5 Z" id="Path" fill="#1A9C49"></path>
                <path d="M23.9,45 C24.1,47 30.2,55.3 30.2,55.3 C30.2,55.3 36.5,47.5 36.2,44.7 L38.7,48 C38.7,49.9 33.1,59.8 33.1,59.8 L30.1,56 L27,60 C27,60 21.3,50.4 21.3,47.7 L23.9,45 Z" id="Path" fill="#F0EFF0"></path>
                <path d="M21.2,11.7 C21.2,11.7 22.6,15.8 29,16.3 C35.4,16.8 40.4,15.5 42.9,16.8 C45.4,18.1 44.5,30.2 44.5,30.2 C44.5,30.2 47,20.8 46.6,16.6 C46.4,14.7 46.3,8.8 42.7,5.5 C38.3,1.5 31.1,1 28.7,1.4 C22.6,2.4 21.1,4.3 21.1,4.3 C21.1,4.3 18.6,4.5 17.8,5.1 C13.8,8.4 11,16.4 15.9,31.5 C15.9,31.3 13.2,17 21.2,11.7 Z" id="Path" fill="#FCBA65"></path>
                <path d="M43,16 C41,14.8 33.4,15.5 29.5,15.2 C25.6,14.9 22.1,13.3 22.4,8.4 C22.4,8.4 23.7,10.9 26.3,10.9 C26.3,10.9 24.7,9.8 22.9,5.5 C22.9,5.5 27,2.1 36.7,5.4 C36.7,5.4 30.3,0.6 21.1,4.4 C21.1,4.4 20,8.4 18,10.5 C16.1,12.5 13.7,16.6 15.7,24.9 C15.8,20.4 16.9,14.5 21.4,11.5 C21.4,11.5 22.8,15.6 29.2,16.1 C35.6,16.6 40.6,15.3 43.1,16.6 C43.8,17 44.3,18.3 44.5,20 C44.5,20 44.6,20 44.6,20 C44.6,20 44.5,16.9 43,16 Z" id="Path" fill="#F99E1E"></path>
                <path d="M23.1,10.8 C24.1,11.6 25.1,11.8 26.1,12.1 C27.1,12.3 28,12.5 29.1,12.7 C29.6,12.8 30.1,12.9 30.7,13 C31.2,13.1 31.8,13.2 32.3,13.3 C32.8,13.4 33.4,13.5 34,13.7 C34.6,13.9 35.1,14 35.8,14.3 C34.7,15 33.6,15.5 32.4,15.7 C31.8,15.8 31.2,15.9 30.6,15.9 C30,15.9 29.4,15.9 28.7,15.8 C27.5,15.6 26.2,15.1 25.2,14.3 C24.7,13.9 24.2,13.4 23.8,12.8 C23.3,12.1 23,11.4 23.1,10.8 Z" id="Path" fill="#FFD14F"></path>
                <path d="M33.7,11.3 C32.8,11.4 31.9,11.5 31,11.4 C30.1,11.4 29.2,11.2 28.3,11 C27.4,10.8 26.5,10.4 25.6,9.8 C24.8,9.2 23.9,8.3 23.5,7.2 L22.4,4.1 L25.5,5.5 C26.7,6 27.9,6.6 29,7.2 L27.3,9.6 C26.3,8.7 25.3,7.7 24.4,6.7 L23.2,5.5 L24.4,4.6 C24.7,4.4 24.8,4.4 24.9,4.3 C25,4.2 25.2,4.2 25.3,4.2 C25.5,4.1 25.8,4.1 26,4 C26.4,3.9 26.9,3.9 27.3,3.9 C28.1,3.9 28.9,4 29.7,4.2 C30.5,4.4 31.2,4.6 31.9,4.9 C32.6,5.2 33.3,5.5 34,5.9 C33.2,5.9 32.5,5.9 31.8,5.9 C31.1,5.9 30.3,5.9 29.6,6 C28.9,6.1 28.2,6.1 27.6,6.3 C27.3,6.4 27,6.4 26.7,6.5 C26.6,6.5 26.4,6.6 26.3,6.6 C26.2,6.6 26.2,6.7 26.2,6.7 C26.2,6.7 26.1,6.8 26.2,6.7 L26.3,4.6 C27.4,5.5 28.4,6.3 29.4,7.3 L37.2,14.4 L27.7,9.7 C26.5,9.1 25.4,8.5 24.2,7.9 L26.2,6.2 C26.3,6.7 26.6,7.2 27.1,7.7 C27.6,8.2 28.2,8.6 28.9,9 C30.5,10 32.1,10.6 33.7,11.3 Z" id="Path" fill="#FFD14F"></path>
                <path d="M13.4,14.2 C13.3,13 13.4,11.8 13.7,10.7 C13.9,9.5 14.3,8.4 14.8,7.2 C15.3,6.1 16,5 17.1,4.1 C18.2,3.2 19.7,2.7 21.2,2.8 L20.2,3.1 C21.1,2.4 21.9,2 22.9,1.6 C23.8,1.2 24.7,0.9 25.7,0.6 C27.6,0.1 29.6,-0.1 31.6,0.1 C32.1,0.1 32.6,0.2 33.1,0.3 C33.6,0.4 34.1,0.5 34.5,0.6 C35,0.7 35.4,0.9 35.9,1 C36.4,1.2 36.8,1.4 37.2,1.6 C38.1,1.9 38.9,2.5 39.7,3 C40.5,3.5 41.2,4.2 41.9,4.8 C41,4.5 40.2,4.1 39.3,3.9 C38.4,3.7 37.6,3.3 36.7,3.2 C35,2.8 33.2,2.6 31.5,2.7 C29.8,2.7 28.1,3 26.5,3.4 C25.7,3.6 24.9,3.9 24.1,4.2 C23.3,4.5 22.5,4.9 21.9,5.3 L21.4,5.6 L20.9,5.6 C20.1,5.5 19.3,5.7 18.5,6.1 C17.7,6.5 17,7.3 16.4,8.2 C15.8,9.1 15.2,10 14.7,11 C14.3,12 13.9,13.1 13.4,14.2 Z" id="Path" fill="#F99E1E"></path>
                <path d="M16.6,10.9 C17.1,9.8 17.5,8.9 17.8,7.9 C18.2,7 18.5,6 18.8,5.1 L20.3,7 C20.3,7 20.1,7.1 20,7.2 C19.9,7.3 19.7,7.4 19.6,7.5 C19.3,7.7 19,7.9 18.8,8.1 C18.3,8.6 17.8,9.2 17.3,9.9 C16.8,10.6 16.4,11.3 16,12.1 C15.8,12.5 15.6,12.9 15.3,13.3 C15.1,13.7 14.9,14.1 14.6,14.6 C14.5,14.1 14.4,13.6 14.3,13.1 C14.3,12.6 14.3,12.1 14.3,11.6 C14.4,10.6 14.6,9.6 15,8.6 C15.4,7.6 16,6.7 16.8,5.9 C17.2,5.5 17.7,5.2 18.2,4.9 C18.4,4.8 18.7,4.6 19,4.5 C19.3,4.4 19.5,4.3 20,4.2 L22.6,3.8 L21.5,6.1 C21,7.2 20.3,8.1 19.5,8.9 C19.1,9.3 18.7,9.7 18.2,10 C17.6,10.4 17.1,10.7 16.6,10.9 Z" id="Path" fill="#FFD14F"></path>
                <circle id="Oval" fill="#E8C6AC" cx="31.1" cy="29.1" r="1"></circle>
                <circle id="Oval" fill="#E8C6AC" cx="27.9" cy="30.3" r="1"></circle>
                <circle id="Oval" fill="#E8C6AC" cx="30" cy="24.7" r="1"></circle>
                <circle id="Oval" fill="#E8C6AC" cx="32" cy="26.3" r="1"></circle>
                <circle id="Oval" fill="#E8C6AC" cx="28.3" cy="26.2" r="1"></circle>
                <circle id="Oval" fill="#E8C6AC" cx="33.4" cy="31.4" r="1"></circle>
                <circle id="Oval" fill="#E8C6AC" cx="30.8" cy="31.9" r="1"></circle>
                <circle id="Oval" fill="#E8C6AC" cx="25.4" cy="30.7" r="1"></circle>
                <circle id="Oval" fill="#E8C6AC" cx="34.8" cy="30.4" r="1"></circle>
                <circle id="Oval" fill="#E8C6AC" cx="28.5" cy="28.1" r="1"></circle>
                <circle id="Oval" fill="#E8C6AC" cx="29.8" cy="26.9" r="1"></circle>
                <path d="M27.1,60.1 L27,60 C23.9,56 21.4,47.9 21.3,47.8 L21.5,47.7 C21.5,47.8 24,55.7 27,59.7 L30,55.7 L33,59.6 C33.6,58.6 37,52.9 38.7,48.4 L38.9,48.5 C37,53.5 33.2,59.8 33.1,59.9 L33,60.1 L30,56.2 L27.1,60.1 Z" id="Path" fill="#CDDDC1"></path>
            </g>
        </g>
    </g>
</svg>