<?xml version="1.0" encoding="utf-8"?>
<!-- Generator: Adobe Illustrator 19.0.0, SVG Export Plug-In . SVG Version: 6.00 Build 0)  -->
<!DOCTYPE svg PUBLIC "-//W3C//DTD SVG 1.1//EN" "http://www.w3.org/Graphics/SVG/1.1/DTD/svg11.dtd">
<svg version="1.1" id="Layer_1" xmlns="http://www.w3.org/2000/svg" xmlns:xlink="http://www.w3.org/1999/xlink" x="0px" y="0px"
	 width="64px" height="64px" viewBox="0 0 64 64" style="enable-background:new 0 0 64 64;" xml:space="preserve">
<style type="text/css">
	.st0{fill:#231F20;}
</style>
<path id="XMLID_2_" class="st0" d="M35.6-0.1C19.8-0.1,7,12.7,7,28.5c0,6,1.9,11.6,5,16.2L0,56.7L6.3,63l11.9-11.9
	C23,54.8,29,57,35.6,57c15.7,0,28.5-12.8,28.5-28.5S51.3-0.1,35.6-0.1z M35.6,48.3c-10.9,0-19.8-8.9-19.8-19.8
	c0-10.9,8.9-19.8,19.8-19.8c10.9,0,19.8,8.9,19.8,19.8C55.4,39.4,46.5,48.3,35.6,48.3z"/>
</svg>
