<svg enable-background="new 0 0 64 64" height="64" viewBox="0 0 64 64" width="64" xmlns="http://www.w3.org/2000/svg"><path d="m63.9 46.1h-12.4c0-13.5-6.8-7.1-6.8-18.9 0-4.3 2.8-6.6 6.4-6.6 5.3 0 9 5.1 4 14.5-1.7 3.1 1.8 3.9 5.4 4.7 3.7.9 3.4 2.8 3.4 6.3zm-60.5-6.3c3.7-.8 7.1-1.6 5.4-4.7-5-9.5-1.3-14.5 4-14.5 3.6 0 6.4 2.3 6.4 6.6 0 11.8-6.8 5.4-6.8 18.9h-12.4c0-3.5-.3-5.4 3.4-6.3zm40.4-1.6c-4.6-1.1-8.9-2-6.8-5.9 6.3-11.9 1.7-18.3-5-18.3-6.8 0-11.3 6.6-5 18.3 2.1 3.9-2.3 4.9-6.8 5.9-4.6 1.1-4.2 3.5-4.2 7.9h32c0-4.4.4-6.8-4.2-7.9z" fill="#010101"/></svg>